<?xml version="1.0" encoding="utf-8"?>
<!-- Generator: Adobe Illustrator 19.0.0, SVG Export Plug-In . SVG Version: 6.00 Build 0)  -->
<svg version="1.1" id="layer" xmlns="http://www.w3.org/2000/svg" xmlns:xlink="http://www.w3.org/1999/xlink" x="0px" y="0px"
	 viewBox="-153 -46 652 652" style="enable-background:new -153 -46 652 652;" xml:space="preserve">
<style type="text/css">
	.st0{fill-rule:evenodd;clip-rule:evenodd;fill:#31B9CE;}
	.st1{fill-rule:evenodd;clip-rule:evenodd;fill:#FFFFFF;}
</style>
<rect x="-126.6" y="147.2" class="st0" width="600" height="263.6"/>
<g>
	<path class="st1" d="M198.2,270.7v-81.3h48.2v6.3h-41.2v29.8h40.5v6.3h-40.5v32.6h41.4v6.4H198.2 M-17.9,232.9v-43h25v3.4h-21.3
		V209H6.8v3.4h-20.9v17.2H7.3v3.3H-17.9 M274.9,233.6h28.2l-14.3-35.4L274.9,233.6z M305.6,239.8h-33.3l-12.1,30.9h-6.8l31.7-81.4
		h7.2l33,81.4h-7.2L305.6,239.8z M339.4,201.3v69.5h-6.9v-81.3h7.2l47.5,69.9v-69.9h6.9v81.3h-7.2L339.4,201.3 M-9.3,365.8v-81.3H7
		v66h35.1v15.3H-9.3 M52,365.8v-81.3h51.7v15.3H68.3v16.9h34.8v15.1H68.3v18.8h35.8v15.3H52 M140.6,329.6h17.8l-8.9-24.4
		L140.6,329.6z M163.5,343.5h-27.9l-8,22.3h-16.1l29.4-81.3H158l30.8,81.3h-17.3L163.5,343.5z M212.1,312.2v53.6h-15.9v-81.3h16.9
		l34.9,54.5v-54.5H264v81.3h-16.2L212.1,312.2 M71.4,195.2c-19,0-34.4,15.5-34.4,34.5c0,19,15.4,34.4,34.4,34.4
		c19,0,34.4-15.4,34.5-34.4C105.8,210.6,90.4,195.2,71.4,195.2L71.4,195.2z M71.4,271.2c-22.9,0-41.5-18.6-41.6-41.6
		c0-22.9,18.6-41.5,41.6-41.5c22.9,0,41.5,18.6,41.5,41.5C112.9,252.6,94.3,271.2,71.4,271.2L71.4,271.2z M-42.5,351.1
		c-14.4,0-26.2-11.7-26.2-26.2c0-14.5,11.7-26.2,26.2-26.2c9.8,0,18.3,5.4,22.8,13.4v-21.9c-6.7-4.5-14.7-6.9-22.8-6.9
		c-22.9,0-41.5,18.6-41.5,41.6c0,22.9,18.6,41.5,41.5,41.5c8.1,0,16.1-2.4,22.8-6.9v-21.9C-24.3,346-33.1,351.1-42.5,351.1
		 M164.6,264.1c-19,0-34.4-15.4-34.4-34.4c0-19,15.4-34.4,34.4-34.5c9.1,0,17.3,3.6,23.5,9.3v-9.1c-6.9-4.7-15.1-7.3-23.5-7.3
		c-22.9,0-41.5,18.6-41.5,41.5c0,22.9,18.6,41.5,41.5,41.6c8.7,0,16.8-2.7,23.5-7.3v-9.1C181.7,260.8,173.3,264.1,164.6,264.1
		 M274.4,333.9v-49.6h16.3v49.6c0,10.7,5,18,16.2,18c10.7,0,16-7.5,16-18.1v-49.5h16.3v49.5c0,19.3-11.3,33.4-32.6,33.4
		C284.6,367.1,274.4,353.9,274.4,333.9 M365.8,298.4v19h7.6c6,0,9.3-3.9,9.3-9.7c0-5.8-3.3-9.4-9.3-9.4L365.8,298.4L365.8,298.4z
		 M374.8,331.5h-9v34.1h-16.2v-81.4h25.2c16.2,0,24.9,8.3,24.9,23.4C399.7,322.4,389.8,331.5,374.8,331.5L374.8,331.5z M-71.5,193.3
		v39.7h-3.7v-39.7h-9.7v-3.4h23.2v3.4H-71.5 M-24.4,232.9h-3.7v-20.8h-23.8v20.8h-3.7v-43h3.7v18.9h23.8v-18.9h3.7V232.9
		 M423.7,203.4v-11.6l-4.8,11.6h-0.5l-4.8-11.6v11.6h-1.8v-14h2.7l4.1,10.2l4.1-10.2h2.7v14H423.7z M405.6,191v12.4h-1.8V191h-3.9
		v-1.6h9.7v1.6H405.6z M405.6,191"/>
</g>
</svg>
