<?xml version="1.0" encoding="utf-8"?>
<!-- Generator: Adobe Illustrator 25.0.1, SVG Export Plug-In . SVG Version: 6.00 Build 0)  -->
<svg version="1.1" id="Layer_1" xmlns="http://www.w3.org/2000/svg" xmlns:xlink="http://www.w3.org/1999/xlink" x="0px" y="0px"
	 viewBox="0 0 100 100" style="enable-background:new 0 0 100 100;" xml:space="preserve">
<style type="text/css">
	.st0{opacity:0.13;fill:#F1F7FF;}
	.st1{opacity:0.32;fill:#F1F7FF;}
	.st2{opacity:0.58;fill:#F1F7FF;}
	.st3{fill:#FFFFFF;}
	.st4{fill:none;stroke:#FFFFFF;stroke-width:2;stroke-miterlimit:10;}
	.st5{fill:#BDD4EF;}
	.st6{fill:#060606;}
	.st7{fill:#78D23A;}
	.st8{fill:#EFEC3C;}
	.st9{fill:#D5711C;}
	.st10{fill:#C40B18;}
	.st11{fill:#3D52D2;}
	.st12{fill:#632796;}
	.st13{fill:#B50BEB;}
	.st14{fill:url(#SVGID_1_);}
	.st15{fill:url(#SVGID_2_);}
	.st16{fill:url(#SVGID_3_);}
	.st17{fill:url(#SVGID_4_);}
	.st18{fill:url(#SVGID_5_);}
	.st19{fill:#446EB2;}
	.st20{clip-path:url(#SVGID_7_);}
	.st21{fill:#222221;}
	.st22{fill:#F5D835;}
	.st23{clip-path:url(#SVGID_10_);fill:url(#SVGID_11_);}
	.st24{fill:#232222;stroke:#FFFFFF;stroke-width:0.25;stroke-miterlimit:10;}
	.st25{fill-rule:evenodd;clip-rule:evenodd;fill:#D4B5A8;}
	.st26{fill-rule:evenodd;clip-rule:evenodd;fill:#F0D6C8;}
	.st27{fill-rule:evenodd;clip-rule:evenodd;fill:#4E342E;}
	.st28{fill-rule:evenodd;clip-rule:evenodd;fill:#5D4037;}
	.st29{fill-rule:evenodd;clip-rule:evenodd;fill:#8D6E63;}
	.st30{fill-rule:evenodd;clip-rule:evenodd;fill:#BCAAA4;}
	.st31{fill:#C00E1A;}
	.st32{fill:#C94625;}
	.st33{fill:url(#SVGID_12_);}
	.st34{fill:url(#SVGID_13_);}
	.st35{fill:#181814;}
	.st36{fill:#518E45;}
	.st37{fill:#AED581;}
	.st38{fill:#7CB045;}
	.st39{fill:#477E41;}
	.st40{fill:#232322;}
	.st41{fill:#577A39;}
	.st42{fill:#F3F2F3;}
	.st43{fill:#C0101E;}
	.st44{fill:#D05451;}
	.st45{fill:#D37174;}
	.st46{fill:#C62828;}
	.st47{fill:#B71E1E;}
	.st48{fill:#EDE435;}
	.st49{fill:#CC5428;}
	.st50{fill:#E19F3A;}
	.st51{fill:#D5782C;}
	.st52{fill:#487FC2;}
	.st53{fill:#92C7F0;}
	.st54{fill:#599ED9;}
	.st55{fill:#3965AC;}
	.st56{fill:#70C535;}
	.st57{fill:#4B8325;}
	.st58{fill:#5DA22C;}
	.st59{fill:#7DBAE7;}
	.st60{fill:#75ACCE;}
	.st61{fill:#6F589D;}
	.st62{fill:#8C75AF;}
	.st63{fill:#55428F;}
	.st64{fill:#362F82;}
	.st65{fill:#BBBBBB;}
	.st66{fill:#EDEDED;}
	.st67{fill:#F7EA37;stroke:#F9EB3B;stroke-miterlimit:10;}
	.st68{fill:#575959;}
	.st69{fill:#F9EB3B;}
	.st70{fill:#D50000;}
	.st71{fill:#C00C1A;}
	.st72{fill:#74ADD4;}
	.st73{fill:#99BF6B;}
	.st74{fill:#B4B7B7;}
	.st75{fill:#DD5120;}
	.st76{fill:#EEEEEE;}
	.st77{fill:#5B3918;}
	.st78{fill:#7A481E;}
	.st79{fill:#4E2525;}
	.st80{fill:#9E4545;}
	.st81{fill:#595959;}
	.st82{fill:#740E0E;}
	.st83{fill:#D5806E;}
	.st84{fill:#982931;}
	.st85{fill:#444343;}
	.st86{fill:#31588B;}
	.st87{fill:#6F83AD;}
	.st88{fill:#426498;}
	.st89{fill:#EDC82F;}
	.st90{fill:#E8D5A5;}
	.st91{fill:#F8E9A0;}
	.st92{fill:#898D8F;}
	.st93{fill:#D4C6C6;}
	.st94{fill:#AAAAAA;}
	.st95{opacity:0.5;fill:#212121;}
	.st96{fill:#212121;}
	.st97{opacity:0.5;fill:#7CB045;}
	.st98{opacity:0.5;fill:#4377BD;}
	.st99{fill:#4377BD;}
	.st100{fill:url(#SVGID_14_);}
	.st101{fill:url(#SVGID_15_);}
	.st102{fill:url(#SVGID_16_);}
	.st103{fill:url(#SVGID_17_);}
	.st104{fill:url(#SVGID_18_);}
	.st105{fill:#8C0000;}
	.st106{clip-path:url(#SVGID_20_);}
	.st107{clip-path:url(#SVGID_23_);fill:url(#SVGID_24_);}
	.st108{fill:url(#SVGID_25_);}
	.st109{fill:url(#SVGID_26_);}
</style>
<g>
	<path class="st5" d="M78.8,90.8H21.2c-6.6,0-12-5.4-12-12V21.2c0-6.6,5.4-12,12-12h57.7c6.6,0,12,5.4,12,12v57.7
		C90.8,85.4,85.4,90.8,78.8,90.8z"/>
	<g id="LUCHA_LIBRE_14_">
		<path id="stroke_24_" class="st72" d="M68.7,25.9v4.1v4.1h-3.2h-1v-4.1h-4.1v4.1l0,0h-0.9h-3.2h0h-3.2h-1v4.1v4.1h-4.1v-4.1v-4.1
			h-4.1h-4.1v-4.1h-4.1v4.1h-4.1v-4.1v-4.1h-4.1v4.1v4.1v4.1v0.9v2.5v0.7v4.1v0v2.8v1.4h4.1h4.1h4.1V55v4.1h-4.1v4.1v4.1v4.1h4.1
			h4.1h4.1h4.1h4.1h4.1h4.1v-4.1v-4.1v-4.1h-4.1v-8.3h3h1.1h0h3h1.2h3h1.2v-4.1v0V43v-0.4v-4.1v-4.1v-4.1v-4.1H68.7z M47.9,46.7
			L47.9,46.7L47.9,46.7l4.1,0v0v3.5v0.7h4.1v8.3h-4.1h-4.1h-4.1V55v-4.1h4.1L47.9,46.7L47.9,46.7z M35.5,46.7h-4.1v0v-4.1v-0.7v-2.5
			v-0.9h4.1h4.1h4.1v3.6h0v4.8h-4.1H35.5z M60.4,67.4h-4.1h-4.1h-4.1h-4.1h-4.1v-4.1h4.1h4.1h4.1h4.1h4.1V67.4z M68.7,42.5V43v3.7v0
			h-1.2h-3h0h-1.1h-3h-4.1v-3.1h0v-1.1v-4.1h0h3.2h0.9h4.1h1h3.2V42.5z"/>
		<g id="face_24_">
			<polygon id="nose_24_" class="st35" points="43.8,55 43.8,55 43.8,59.1 47.9,59.1 52.1,59.1 56.2,59.1 56.2,55 56.2,55 
				56.2,50.9 52.1,50.9 52.1,46.7 47.9,46.7 47.9,50.9 43.8,50.9 			"/>
			<polygon id="mouth_23_" class="st35" points="52.1,63.3 47.9,63.3 43.8,63.3 39.6,63.3 39.6,67.4 43.8,67.4 47.9,67.4 52.1,67.4 
				56.2,67.4 60.4,67.4 60.4,63.3 56.2,63.3 			"/>
		</g>
	</g>
</g>
</svg>
