<?xml version="1.0" encoding="utf-8"?>
<!-- Generator: Adobe Illustrator 25.0.1, SVG Export Plug-In . SVG Version: 6.00 Build 0)  -->
<svg version="1.1" id="Layer_1" xmlns="http://www.w3.org/2000/svg" xmlns:xlink="http://www.w3.org/1999/xlink" x="0px" y="0px"
	 viewBox="0 0 100 100" style="enable-background:new 0 0 100 100;" xml:space="preserve">
<style type="text/css">
	.st0{opacity:0.13;fill:#F1F7FF;}
	.st1{opacity:0.32;fill:#F1F7FF;}
	.st2{opacity:0.58;fill:#F1F7FF;}
	.st3{fill:#FFFFFF;}
	.st4{fill:none;stroke:#FFFFFF;stroke-width:2;stroke-miterlimit:10;}
	.st5{fill:#BDD4EF;}
	.st6{fill:#060606;}
	.st7{fill:#78D23A;}
	.st8{fill:#EFEC3C;}
	.st9{fill:#D5711C;}
	.st10{fill:#C40B18;}
	.st11{fill:#3D52D2;}
	.st12{fill:#632796;}
	.st13{fill:#B50BEB;}
	.st14{fill:url(#SVGID_1_);}
	.st15{fill:url(#SVGID_2_);}
	.st16{fill:url(#SVGID_3_);}
	.st17{fill:url(#SVGID_4_);}
	.st18{fill:url(#SVGID_5_);}
	.st19{fill:#446EB2;}
	.st20{clip-path:url(#SVGID_7_);}
	.st21{fill:#222221;}
	.st22{fill:#F5D835;}
	.st23{clip-path:url(#SVGID_10_);fill:url(#SVGID_11_);}
	.st24{fill:#232222;stroke:#FFFFFF;stroke-width:0.25;stroke-miterlimit:10;}
	.st25{fill-rule:evenodd;clip-rule:evenodd;fill:#D4B5A8;}
	.st26{fill-rule:evenodd;clip-rule:evenodd;fill:#F0D6C8;}
	.st27{fill-rule:evenodd;clip-rule:evenodd;fill:#4E342E;}
	.st28{fill-rule:evenodd;clip-rule:evenodd;fill:#5D4037;}
	.st29{fill-rule:evenodd;clip-rule:evenodd;fill:#8D6E63;}
	.st30{fill-rule:evenodd;clip-rule:evenodd;fill:#BCAAA4;}
	.st31{fill:#C00E1A;}
	.st32{fill:#C94625;}
	.st33{fill:url(#SVGID_12_);}
	.st34{fill:url(#SVGID_13_);}
	.st35{fill:#181814;}
	.st36{fill:#518E45;}
	.st37{fill:#AED581;}
	.st38{fill:#7CB045;}
	.st39{fill:#477E41;}
	.st40{fill:#232322;}
	.st41{fill:#577A39;}
	.st42{fill:#F3F2F3;}
	.st43{fill:#C0101E;}
	.st44{fill:#D05451;}
	.st45{fill:#D37174;}
	.st46{fill:#C62828;}
	.st47{fill:#B71E1E;}
	.st48{fill:#EDE435;}
	.st49{fill:#CC5428;}
	.st50{fill:#E19F3A;}
	.st51{fill:#D5782C;}
	.st52{fill:#487FC2;}
	.st53{fill:#92C7F0;}
	.st54{fill:#599ED9;}
	.st55{fill:#3965AC;}
	.st56{fill:#70C535;}
	.st57{fill:#4B8325;}
	.st58{fill:#5DA22C;}
	.st59{fill:#7DBAE7;}
	.st60{fill:#75ACCE;}
	.st61{fill:#6F589D;}
	.st62{fill:#8C75AF;}
	.st63{fill:#55428F;}
	.st64{fill:#362F82;}
	.st65{fill:#BBBBBB;}
	.st66{fill:#EDEDED;}
	.st67{fill:#F7EA37;stroke:#F9EB3B;stroke-miterlimit:10;}
	.st68{fill:#575959;}
	.st69{fill:#F9EB3B;}
	.st70{fill:#D50000;}
	.st71{fill:#C00C1A;}
	.st72{fill:#74ADD4;}
	.st73{fill:#99BF6B;}
	.st74{fill:#B4B7B7;}
	.st75{fill:#DD5120;}
	.st76{fill:#EEEEEE;}
	.st77{fill:#5B3918;}
	.st78{fill:#7A481E;}
	.st79{fill:#4E2525;}
	.st80{fill:#9E4545;}
	.st81{fill:#595959;}
	.st82{fill:#740E0E;}
	.st83{fill:#D5806E;}
	.st84{fill:#982931;}
	.st85{fill:#444343;}
	.st86{fill:#31588B;}
	.st87{fill:#6F83AD;}
	.st88{fill:#426498;}
	.st89{fill:#EDC82F;}
	.st90{fill:#E8D5A5;}
	.st91{fill:#F8E9A0;}
	.st92{fill:#898D8F;}
	.st93{fill:#D4C6C6;}
	.st94{fill:#AAAAAA;}
	.st95{opacity:0.5;fill:#212121;}
	.st96{fill:#212121;}
	.st97{opacity:0.5;fill:#7CB045;}
	.st98{opacity:0.5;fill:#4377BD;}
	.st99{fill:#4377BD;}
	.st100{fill:url(#SVGID_14_);}
	.st101{fill:url(#SVGID_15_);}
	.st102{fill:url(#SVGID_16_);}
	.st103{fill:url(#SVGID_17_);}
	.st104{fill:url(#SVGID_18_);}
	.st105{fill:#8C0000;}
	.st106{clip-path:url(#SVGID_20_);}
	.st107{clip-path:url(#SVGID_23_);fill:url(#SVGID_24_);}
	.st108{fill:url(#SVGID_25_);}
	.st109{fill:url(#SVGID_26_);}
</style>
<g>
	<path class="st5" d="M77.7,89.7H22.3c-6.6,0-12-5.4-12-12V22.3c0-6.6,5.4-12,12-12h55.4c6.6,0,12,5.4,12,12v55.4
		C89.7,84.3,84.3,89.7,77.7,89.7z"/>
	<g id="LUCHA_LIBRE_2_5_">
		<path id="stroke_10_" class="st3" d="M70,27.6v4h-4v4h-4h-0.9h-3.2h0h-3.1h-0.9v4v4h-4v-4v-4h-4h-4h-4v-4h-4v-4h-4v4v4v4v0.9v2.4
			v0.7v4v0v2.7v1.3h4h4h4v4v4h-4v4v4v4h4h4h4h4h4h4h4v-4v-4v-4h-4v-8.1h2.9H66h0h2.9H70H73h1.1v-4v0v-3.6v-0.4v-4v-4v-4v-4H70z
			 M49.8,47.8L49.8,47.8L49.8,47.8l4,0v0v3.4v0.7h4v8.1h-4h-4h-4v-4v-4h4L49.8,47.8L49.8,47.8z M37.7,47.8h-4v0v-4v-0.7v-2.4v-0.9h4
			h4h4v3.5h0v4.6h-4H37.7z M62,68h-4h-4h-4h-4h-4v-4h4h4h4h4h4V68z M70,43.8v0.4v3.6v0h-1.1H66h0h-1.1H62h-4v-3h0v-1.1v-4h0h3.2H62
			h4h0.9H70V43.8z"/>
		<g id="face_10_">
			<polygon id="nose_10_" class="st35" points="45.8,55.9 45.8,55.9 45.8,59.9 49.8,59.9 53.9,59.9 57.9,59.9 57.9,55.9 57.9,55.9 
				57.9,51.9 53.9,51.9 53.9,47.8 49.8,47.8 49.8,51.9 45.8,51.9 			"/>
			<polygon id="mouth_9_" class="st35" points="53.9,64 49.8,64 45.8,64 41.8,64 41.8,68 45.8,68 49.8,68 53.9,68 57.9,68 62,68 
				62,64 57.9,64 			"/>
		</g>
		<g id="stich_4_">
			<rect x="49.8" y="15.7" class="st3" width="4" height="4"/>
			<rect x="49.8" y="23.7" class="st3" width="4" height="4"/>
			<rect x="49.8" y="31.7" class="st3" width="4" height="4"/>
			<rect x="49.8" y="39.7" class="st3" width="4" height="4"/>
			<rect x="49.8" y="76.1" class="st3" width="4" height="4"/>
			<rect x="29.7" y="59.9" class="st3" width="4" height="4"/>
			<rect x="33.7" y="55.9" class="st3" width="4" height="4"/>
			<rect x="37.7" y="51.9" class="st3" width="4" height="4"/>
			<rect x="66" y="55.9" class="st3" width="4" height="4"/>
			<rect x="70" y="59.9" class="st3" width="4" height="4"/>
			<rect x="62" y="51.9" class="st3" width="4" height="4"/>
		</g>
	</g>
</g>
</svg>
