<?xml version="1.0" encoding="utf-8"?>
<!-- Generator: Adobe Illustrator 25.0.1, SVG Export Plug-In . SVG Version: 6.00 Build 0)  -->
<svg version="1.1" id="Layer_1" xmlns="http://www.w3.org/2000/svg" xmlns:xlink="http://www.w3.org/1999/xlink" x="0px" y="0px"
	 viewBox="0 0 100 100" style="enable-background:new 0 0 100 100;" xml:space="preserve">
<style type="text/css">
	.st0{opacity:0.13;fill:#F1F7FF;}
	.st1{opacity:0.32;fill:#F1F7FF;}
	.st2{opacity:0.58;fill:#F1F7FF;}
	.st3{fill:#FFFFFF;}
	.st4{fill:none;stroke:#FFFFFF;stroke-width:2;stroke-miterlimit:10;}
	.st5{fill:#BDD4EF;}
	.st6{fill:#060606;}
	.st7{fill:#78D23A;}
	.st8{fill:#EFEC3C;}
	.st9{fill:#D5711C;}
	.st10{fill:#C40B18;}
	.st11{fill:#3D52D2;}
	.st12{fill:#632796;}
	.st13{fill:#B50BEB;}
	.st14{fill:url(#SVGID_1_);}
	.st15{fill:url(#SVGID_2_);}
	.st16{fill:url(#SVGID_3_);}
	.st17{fill:url(#SVGID_4_);}
	.st18{fill:url(#SVGID_5_);}
	.st19{fill:#446EB2;}
	.st20{clip-path:url(#SVGID_7_);}
	.st21{fill:#222221;}
	.st22{fill:#F5D835;}
	.st23{clip-path:url(#SVGID_10_);fill:url(#SVGID_11_);}
	.st24{fill:#232222;stroke:#FFFFFF;stroke-width:0.25;stroke-miterlimit:10;}
	.st25{fill-rule:evenodd;clip-rule:evenodd;fill:#D4B5A8;}
	.st26{fill-rule:evenodd;clip-rule:evenodd;fill:#F0D6C8;}
	.st27{fill-rule:evenodd;clip-rule:evenodd;fill:#4E342E;}
	.st28{fill-rule:evenodd;clip-rule:evenodd;fill:#5D4037;}
	.st29{fill-rule:evenodd;clip-rule:evenodd;fill:#8D6E63;}
	.st30{fill-rule:evenodd;clip-rule:evenodd;fill:#BCAAA4;}
	.st31{fill:#C00E1A;}
	.st32{fill:#C94625;}
	.st33{fill:url(#SVGID_12_);}
	.st34{fill:url(#SVGID_13_);}
	.st35{fill:#181814;}
	.st36{fill:#518E45;}
	.st37{fill:#AED581;}
	.st38{fill:#7CB045;}
	.st39{fill:#477E41;}
	.st40{fill:#232322;}
	.st41{fill:#577A39;}
	.st42{fill:#F3F2F3;}
	.st43{fill:#C0101E;}
	.st44{fill:#D05451;}
	.st45{fill:#D37174;}
	.st46{fill:#C62828;}
	.st47{fill:#B71E1E;}
	.st48{fill:#EDE435;}
	.st49{fill:#CC5428;}
	.st50{fill:#E19F3A;}
	.st51{fill:#D5782C;}
	.st52{fill:#487FC2;}
	.st53{fill:#92C7F0;}
	.st54{fill:#599ED9;}
	.st55{fill:#3965AC;}
	.st56{fill:#70C535;}
	.st57{fill:#4B8325;}
	.st58{fill:#5DA22C;}
	.st59{fill:#7DBAE7;}
	.st60{fill:#75ACCE;}
	.st61{fill:#6F589D;}
	.st62{fill:#8C75AF;}
	.st63{fill:#55428F;}
	.st64{fill:#362F82;}
	.st65{fill:#BBBBBB;}
	.st66{fill:#EDEDED;}
	.st67{fill:#F7EA37;stroke:#F9EB3B;stroke-miterlimit:10;}
	.st68{fill:#575959;}
	.st69{fill:#F9EB3B;}
	.st70{fill:#D50000;}
	.st71{fill:#C00C1A;}
	.st72{fill:#74ADD4;}
	.st73{fill:#99BF6B;}
	.st74{fill:#B4B7B7;}
	.st75{fill:#DD5120;}
	.st76{fill:#EEEEEE;}
	.st77{fill:#5B3918;}
	.st78{fill:#7A481E;}
	.st79{fill:#4E2525;}
	.st80{fill:#9E4545;}
	.st81{fill:#595959;}
	.st82{fill:#740E0E;}
	.st83{fill:#D5806E;}
	.st84{fill:#982931;}
	.st85{fill:#444343;}
	.st86{fill:#31588B;}
	.st87{fill:#6F83AD;}
	.st88{fill:#426498;}
	.st89{fill:#EDC82F;}
	.st90{fill:#E8D5A5;}
	.st91{fill:#F8E9A0;}
	.st92{fill:#898D8F;}
	.st93{fill:#D4C6C6;}
	.st94{fill:#AAAAAA;}
	.st95{opacity:0.5;fill:#212121;}
	.st96{fill:#212121;}
	.st97{opacity:0.5;fill:#7CB045;}
	.st98{opacity:0.5;fill:#4377BD;}
	.st99{fill:#4377BD;}
	.st100{fill:url(#SVGID_14_);}
	.st101{fill:url(#SVGID_15_);}
	.st102{fill:url(#SVGID_16_);}
	.st103{fill:url(#SVGID_17_);}
	.st104{fill:url(#SVGID_18_);}
	.st105{fill:#8C0000;}
	.st106{clip-path:url(#SVGID_20_);}
	.st107{clip-path:url(#SVGID_23_);fill:url(#SVGID_24_);}
	.st108{fill:url(#SVGID_25_);}
	.st109{fill:url(#SVGID_26_);}
</style>
<g>
	<path class="st5" d="M77.7,89.7H22.3c-6.6,0-12-5.4-12-12V22.3c0-6.6,5.4-12,12-12h55.4c6.6,0,12,5.4,12,12v55.4
		C89.7,84.3,84.3,89.7,77.7,89.7z"/>
	<g>
		<g>
			<rect x="82" y="58.1" width="2.7" height="1.9"/>
			<polygon class="st61" points="65.7,52.3 65.7,50.4 65.7,48.4 63,48.4 63,50.4 63,52.3 63,54.3 65.7,54.3 65.7,56.2 68.4,56.2 
				68.4,54.3 68.4,52.3 			"/>
			<g>
				<polygon class="st62" points="79.2,58.1 76.5,58.1 73.8,58.1 71.1,58.1 68.4,58.1 65.7,58.1 63,58.1 60.3,58.1 57.6,58.1 
					54.8,58.1 52.1,58.1 49.4,58.1 46.7,58.1 44,58.1 41.3,58.1 38.6,58.1 35.9,58.1 35.9,60.1 38.6,60.1 41.3,60.1 44,60.1 
					46.7,60.1 49.4,60.1 52.1,60.1 54.8,60.1 57.6,60.1 60.3,60.1 63,60.1 65.7,60.1 68.4,60.1 71.1,60.1 73.8,60.1 76.5,60.1 
					79.2,60.1 82,60.1 82,58.1 				"/>
				<polygon class="st62" points="65.7,50.4 65.7,52.3 68.4,52.3 68.4,50.4 68.4,48.4 68.4,46.5 65.7,46.5 65.7,44.5 65.7,42.6 
					63,42.6 63,44.5 63,46.5 63,48.4 65.7,48.4 				"/>
			</g>
			<g>
				<rect x="35.9" y="42.6" class="st63" width="2.7" height="1.9"/>
				<g>
					<rect x="65.7" y="44.5" class="st63" width="2.7" height="1.9"/>
					<rect x="65.7" y="42.6" class="st63" width="2.7" height="1.9"/>
					<rect x="65.7" y="40.6" class="st63" width="2.7" height="1.9"/>
					<rect x="63" y="54.3" class="st63" width="2.7" height="1.9"/>
					<rect x="63" y="40.6" class="st63" width="2.7" height="1.9"/>
					<rect x="60.3" y="54.3" class="st63" width="2.7" height="1.9"/>
					<rect x="60.3" y="52.3" class="st63" width="2.7" height="1.9"/>
					<rect x="60.3" y="50.4" class="st63" width="2.7" height="1.9"/>
					<rect x="60.3" y="48.4" class="st63" width="2.7" height="1.9"/>
					<rect x="60.3" y="46.5" class="st63" width="2.7" height="1.9"/>
					<rect x="60.3" y="44.5" class="st63" width="2.7" height="1.9"/>
					<rect x="60.3" y="42.6" class="st63" width="2.7" height="1.9"/>
					<rect x="60.3" y="40.6" class="st63" width="2.7" height="1.9"/>
					<rect x="60.3" y="38.7" class="st63" width="2.7" height="1.9"/>
					<rect x="57.6" y="54.3" class="st63" width="2.7" height="1.9"/>
					<rect x="57.6" y="52.3" class="st63" width="2.7" height="1.9"/>
					<rect x="57.6" y="50.4" class="st63" width="2.7" height="1.9"/>
					<rect x="57.6" y="48.4" class="st63" width="2.7" height="1.9"/>
					<rect x="57.6" y="46.5" class="st63" width="2.7" height="1.9"/>
					<rect x="57.6" y="44.5" class="st63" width="2.7" height="1.9"/>
					<rect x="57.6" y="42.6" class="st63" width="2.7" height="1.9"/>
					<rect x="57.6" y="40.6" class="st63" width="2.7" height="1.9"/>
					<rect x="57.6" y="38.7" class="st63" width="2.7" height="1.9"/>
					<rect x="54.8" y="54.3" class="st63" width="2.7" height="1.9"/>
					<rect x="54.8" y="52.3" class="st63" width="2.7" height="1.9"/>
					<rect x="54.8" y="50.4" class="st63" width="2.7" height="1.9"/>
					<rect x="54.8" y="48.4" class="st63" width="2.7" height="1.9"/>
					<rect x="54.8" y="46.5" class="st63" width="2.7" height="1.9"/>
					<rect x="54.8" y="44.5" class="st63" width="2.7" height="1.9"/>
					<rect x="54.8" y="42.6" class="st63" width="2.7" height="1.9"/>
					<rect x="54.8" y="40.6" class="st63" width="2.7" height="1.9"/>
					<rect x="54.8" y="38.7" class="st63" width="2.7" height="1.9"/>
					<rect x="54.8" y="36.8" class="st63" width="2.7" height="1.9"/>
					<rect x="52.1" y="54.3" class="st63" width="2.7" height="1.9"/>
					<rect x="52.1" y="52.3" class="st63" width="2.7" height="1.9"/>
					<rect x="52.1" y="50.4" class="st63" width="2.7" height="1.9"/>
					<rect x="52.1" y="48.4" class="st63" width="2.7" height="1.9"/>
					<rect x="52.1" y="46.5" class="st63" width="2.7" height="1.9"/>
					<rect x="52.1" y="44.5" class="st63" width="2.7" height="1.9"/>
					<rect x="52.1" y="42.6" class="st63" width="2.7" height="1.9"/>
					<rect x="52.1" y="40.6" class="st63" width="2.7" height="1.9"/>
					<rect x="52.1" y="38.7" class="st63" width="2.7" height="1.9"/>
					<rect x="52.1" y="36.8" class="st63" width="2.7" height="1.9"/>
					<rect x="49.4" y="54.3" class="st63" width="2.7" height="1.9"/>
					<rect x="49.4" y="52.3" class="st63" width="2.7" height="1.9"/>
					<rect x="49.4" y="50.4" class="st63" width="2.7" height="1.9"/>
					<rect x="49.4" y="48.4" class="st63" width="2.7" height="1.9"/>
					<rect x="49.4" y="46.5" class="st63" width="2.7" height="1.9"/>
					<rect x="49.4" y="44.5" class="st63" width="2.7" height="1.9"/>
					<rect x="49.4" y="42.6" class="st63" width="2.7" height="1.9"/>
					<rect x="49.4" y="40.6" class="st63" width="2.7" height="1.9"/>
					<rect x="49.4" y="38.7" class="st63" width="2.7" height="1.9"/>
					<rect x="49.4" y="36.8" class="st63" width="2.7" height="1.9"/>
					<rect x="46.7" y="54.3" class="st63" width="2.7" height="1.9"/>
					<rect x="46.7" y="52.3" class="st63" width="2.7" height="1.9"/>
					<rect x="46.7" y="50.4" class="st63" width="2.7" height="1.9"/>
					<rect x="46.7" y="48.4" class="st63" width="2.7" height="1.9"/>
					<rect x="46.7" y="46.5" class="st63" width="2.7" height="1.9"/>
					<rect x="46.7" y="44.5" class="st63" width="2.7" height="1.9"/>
					<rect x="46.7" y="42.6" class="st63" width="2.7" height="1.9"/>
					<rect x="46.7" y="40.6" class="st63" width="2.7" height="1.9"/>
					<rect x="46.7" y="38.7" class="st63" width="2.7" height="1.9"/>
					<rect x="46.7" y="36.8" class="st63" width="2.7" height="1.9"/>
					<rect x="44" y="54.3" class="st63" width="2.7" height="1.9"/>
					<rect x="44" y="52.3" class="st63" width="2.7" height="1.9"/>
					<rect x="44" y="50.4" class="st63" width="2.7" height="1.9"/>
					<rect x="44" y="48.4" class="st63" width="2.7" height="1.9"/>
					<rect x="44" y="46.5" class="st63" width="2.7" height="1.9"/>
					<rect x="44" y="44.5" class="st63" width="2.7" height="1.9"/>
					<rect x="44" y="42.6" class="st63" width="2.7" height="1.9"/>
					<rect x="44" y="40.6" class="st63" width="2.7" height="1.9"/>
					<rect x="44" y="38.7" class="st63" width="2.7" height="1.9"/>
					<rect x="44" y="36.8" class="st63" width="2.7" height="1.9"/>
					<rect x="41.3" y="54.3" class="st63" width="2.7" height="1.9"/>
					<rect x="41.3" y="52.3" class="st63" width="2.7" height="1.9"/>
					<rect x="41.3" y="50.4" class="st63" width="2.7" height="1.9"/>
					<rect x="41.3" y="48.4" class="st63" width="2.7" height="1.9"/>
					<rect x="41.3" y="46.5" class="st63" width="2.7" height="1.9"/>
					<rect x="41.3" y="44.5" class="st63" width="2.7" height="1.9"/>
					<rect x="41.3" y="42.6" class="st63" width="2.7" height="1.9"/>
					<rect x="41.3" y="40.6" class="st63" width="2.7" height="1.9"/>
					<rect x="41.3" y="38.7" class="st63" width="2.7" height="1.9"/>
					<rect x="41.3" y="36.8" class="st63" width="2.7" height="1.9"/>
					<rect x="38.6" y="54.3" class="st63" width="2.7" height="1.9"/>
					<rect x="38.6" y="52.3" class="st63" width="2.7" height="1.9"/>
					<rect x="38.6" y="50.4" class="st63" width="2.7" height="1.9"/>
					<rect x="38.6" y="48.4" class="st63" width="2.7" height="1.9"/>
					<rect x="38.6" y="46.5" class="st63" width="2.7" height="1.9"/>
					<rect x="38.6" y="44.5" class="st63" width="2.7" height="1.9"/>
					<rect x="38.6" y="42.6" class="st63" width="2.7" height="1.9"/>
					<rect x="38.6" y="40.6" class="st63" width="2.7" height="1.9"/>
					<rect x="38.6" y="38.7" class="st63" width="2.7" height="1.9"/>
					<rect x="38.6" y="36.8" class="st63" width="2.7" height="1.9"/>
					<rect x="35.9" y="56.2" class="st63" width="2.7" height="1.9"/>
					<rect x="35.9" y="54.3" class="st63" width="2.7" height="1.9"/>
					<rect x="35.9" y="52.3" class="st63" width="2.7" height="1.9"/>
					<rect x="35.9" y="50.4" class="st63" width="2.7" height="1.9"/>
					<rect x="35.9" y="48.4" class="st63" width="2.7" height="1.9"/>
					<rect x="35.9" y="46.5" class="st63" width="2.7" height="1.9"/>
					<rect x="35.9" y="44.5" class="st63" width="2.7" height="1.9"/>
					<rect x="35.9" y="40.6" class="st63" width="2.7" height="1.9"/>
					<rect x="35.9" y="38.7" class="st63" width="2.7" height="1.9"/>
					<rect x="33.2" y="56.2" class="st63" width="2.7" height="1.9"/>
					<rect x="33.2" y="54.3" class="st63" width="2.7" height="1.9"/>
					<rect x="33.2" y="52.3" class="st63" width="2.7" height="1.9"/>
					<rect x="33.2" y="50.4" class="st63" width="2.7" height="1.9"/>
					<rect x="33.2" y="48.4" class="st63" width="2.7" height="1.9"/>
					<rect x="33.2" y="46.5" class="st63" width="2.7" height="1.9"/>
					<rect x="33.2" y="44.5" class="st63" width="2.7" height="1.9"/>
					<rect x="33.2" y="42.6" class="st63" width="2.7" height="1.9"/>
					<rect x="33.2" y="40.6" class="st63" width="2.7" height="1.9"/>
					<rect x="33.2" y="38.7" class="st63" width="2.7" height="1.9"/>
					<rect x="30.4" y="56.2" class="st63" width="2.7" height="1.9"/>
					<rect x="30.4" y="54.3" class="st63" width="2.7" height="1.9"/>
					<rect x="30.4" y="52.3" class="st63" width="2.7" height="1.9"/>
					<rect x="30.4" y="50.4" class="st63" width="2.7" height="1.9"/>
					<rect x="30.4" y="48.4" class="st63" width="2.7" height="1.9"/>
					<rect x="30.4" y="46.5" class="st63" width="2.7" height="1.9"/>
					<rect x="30.4" y="44.5" class="st63" width="2.7" height="1.9"/>
					<rect x="30.4" y="42.6" class="st63" width="2.7" height="1.9"/>
					<rect x="30.4" y="40.6" class="st63" width="2.7" height="1.9"/>
				</g>
			</g>
			<g>
				<polygon class="st64" points="35.9,36.8 33.2,36.8 33.2,38.7 35.9,38.7 38.6,38.7 38.6,36.8 				"/>
				<polygon class="st64" points="30.4,58.1 27.7,58.1 27.7,60.1 30.4,60.1 33.2,60.1 35.9,60.1 35.9,58.1 33.2,58.1 				"/>
				<polygon class="st64" points="27.7,38.7 27.7,40.6 25,40.6 25,42.6 25,44.5 25,46.5 25,48.4 25,50.4 25,52.3 25,54.3 25,56.2 
					27.7,56.2 30.4,56.2 30.4,54.3 30.4,52.3 30.4,50.4 30.4,48.4 30.4,46.5 30.4,44.5 30.4,42.6 30.4,40.6 33.2,40.6 33.2,38.7 
					30.4,38.7 				"/>
			</g>
			<g>
				<polygon class="st6" points="82,56.2 79.2,56.2 76.5,56.2 73.8,56.2 71.1,56.2 71.1,54.3 71.1,52.3 71.1,50.4 71.1,48.4 
					71.1,46.5 71.1,44.5 71.1,42.6 71.1,40.6 68.4,40.6 68.4,42.6 68.4,44.5 68.4,46.5 68.4,48.4 68.4,50.4 68.4,52.3 68.4,54.3 
					68.4,56.2 65.7,56.2 63,56.2 60.3,56.2 57.6,56.2 54.8,56.2 52.1,56.2 49.4,56.2 46.7,56.2 44,56.2 41.3,56.2 38.6,56.2 
					38.6,58.1 41.3,58.1 44,58.1 46.7,58.1 49.4,58.1 52.1,58.1 54.8,58.1 57.6,58.1 60.3,58.1 63,58.1 65.7,58.1 68.4,58.1 
					71.1,58.1 73.8,58.1 76.5,58.1 79.2,58.1 82,58.1 84.7,58.1 84.7,56.2 				"/>
				<polygon class="st6" points="79.2,60.1 76.5,60.1 73.8,60.1 71.1,60.1 68.4,60.1 65.7,60.1 63,60.1 60.3,60.1 57.6,60.1 
					54.8,60.1 52.1,60.1 49.4,60.1 46.7,60.1 44,60.1 41.3,60.1 38.6,60.1 38.6,62 41.3,62 44,62 46.7,62 49.4,62 52.1,62 54.8,62 
					57.6,62 60.3,62 63,62 65.7,62 68.4,62 71.1,62 73.8,62 76.5,62 79.2,62 82,62 84.7,62 84.7,60.1 82,60.1 				"/>
				<polygon class="st6" points="65.7,38.7 65.7,36.8 63,36.8 60.3,36.8 60.3,34.8 57.6,34.8 54.8,34.8 54.8,32.9 52.1,32.9 
					49.4,32.9 46.7,32.9 44,32.9 41.3,32.9 38.6,32.9 35.9,32.9 35.9,34.8 33.2,34.8 30.4,34.8 30.4,36.8 27.7,36.8 25,36.8 
					25,38.7 25,40.6 27.7,40.6 27.7,38.7 30.4,38.7 33.2,38.7 33.2,36.8 35.9,36.8 38.6,36.8 41.3,36.8 44,36.8 46.7,36.8 
					49.4,36.8 52.1,36.8 54.8,36.8 57.6,36.8 57.6,38.7 60.3,38.7 63,38.7 63,40.6 65.7,40.6 68.4,40.6 68.4,38.7 				"/>
				<polygon class="st6" points="22.3,42.6 22.3,44.5 22.3,46.5 22.3,48.4 22.3,50.4 22.3,52.3 22.3,54.3 22.3,56.2 22.3,58.1 
					22.3,60.1 25,60.1 27.7,60.1 27.7,58.1 30.4,58.1 30.4,56.2 27.7,56.2 25,56.2 25,54.3 25,52.3 25,50.4 25,48.4 25,46.5 
					25,44.5 25,42.6 25,40.6 22.3,40.6 				"/>
			</g>
			<polygon class="st63" points="63,38.7 63,40.6 68.4,40.6 68.4,46.5 65.7,46.5 65.7,42.6 63,42.6 63,54.3 65.7,54.3 65.7,56.2 
				38.6,56.2 38.6,58.1 30.4,58.1 30.4,40.6 33.2,40.6 33.2,38.7 38.6,38.7 38.6,36.8 57.6,36.8 57.6,38.7 			"/>
		</g>
		<g id="XMLID_255_">
			<g id="XMLID_256_">
				<polygon class="st65" points="45.4,49.5 45.4,48.7 44.6,48.7 43.8,48.7 43.8,47.9 42.9,47.9 42.9,47.1 42.9,46.2 43.8,46.2 
					43.8,45.4 42.9,45.4 42.9,44.6 42.9,43.7 42.9,42.9 42.1,42.9 42.1,43.7 42.1,44.6 41.2,44.6 41.2,45.4 41.2,46.2 41.2,47.1 
					41.2,47.9 42.1,47.9 42.1,48.7 42.1,49.5 42.9,49.5 43.8,49.5 43.8,50.4 44.6,50.4 44.6,51.2 44.6,52.1 45.4,52.1 45.4,51.2 
					46.3,51.2 46.3,50.4 46.3,49.5 				"/>
				<g>
					<polygon class="st66" points="51.3,44.5 51.3,43.7 51.3,42.9 50.5,42.9 50.5,42 49.7,42 48.8,42 48,42 47.1,42 46.3,42 
						46.3,42.9 46.3,42.9 46.3,42.1 45.5,42.1 45.5,42 44.6,42 44.6,42.9 45.4,42.9 45.4,42.9 45.5,42.9 45.5,43.7 45.4,43.7 
						45.4,42.9 44.6,42.9 44.6,42.9 44.6,42.9 44.6,42.1 43.8,42.1 42.9,42.1 42.9,42.9 42.9,42.9 42.9,43.7 42.9,44.5 42.9,45.4 
						43.8,45.4 44.6,45.4 45.5,45.4 46.3,45.4 47.1,45.4 48,45.4 48.8,45.4 49.7,45.4 50.5,45.4 51.3,45.4 52.2,45.4 52.2,44.5 
											"/>
					<path class="st66" d="M50.5,45.4h-0.8h-0.8H48h-0.8h-0.8h-0.8h-0.8h-0.8v0.8h0.8h0.8V47v0v0.8v0v0.8v0.8h0.8v-0.8h0.8v0.8v0.8
						h-0.8v0.8v0.8h0.8v-0.8H48v0.8h0.8v-0.8v-0.8h0.8v-0.8h0.8h0.8v-0.8v-0.8h0.8v-0.8v-0.8v-0.8h-0.8H50.5z M49.6,47.9v0.8h-0.8
						H48v-0.8v-0.8v-0.8h0.8h0.8h0.8v0.8v0.8H49.6z"/>
				</g>
				<polygon class="st6" points="49.6,46.2 48.8,46.2 48,46.2 48,47.1 48,47.9 48,48.7 48.8,48.7 49.6,48.7 49.6,47.9 50.5,47.9 
					50.5,47.1 50.5,46.2 				"/>
				<polygon class="st6" points="46.3,48.7 46.3,49.5 46.3,50.4 47.1,50.4 47.1,49.5 47.1,48.7 				"/>
				<polygon class="st6" points="44.6,46.2 43.8,46.2 42.9,46.2 42.9,47.1 42.9,47.9 43.8,47.9 43.8,48.7 44.6,48.7 45.4,48.7 
					45.4,47.9 45.4,47.1 45.4,46.2 				"/>
				<rect id="XMLID_268_" x="42.1" y="42.1" class="st6" width="0.8" height="0.8"/>
				<rect id="XMLID_267_" x="41.2" y="42.9" class="st6" width="0.8" height="0.8"/>
				<rect id="XMLID_266_" x="41.2" y="43.7" class="st6" width="0.8" height="0.8"/>
				<polygon class="st6" points="40.4,44.6 40.4,45.4 40.4,46.2 40.4,47.1 40.4,47.9 41.2,47.9 41.2,47.1 41.2,46.2 41.2,45.4 
					41.2,44.6 				"/>
				<rect id="XMLID_265_" x="41.2" y="47.9" class="st6" width="0.8" height="0.8"/>
				<rect id="XMLID_264_" x="41.2" y="48.7" class="st6" width="0.8" height="0.8"/>
				<g>
					<polygon class="st6" points="42.9,49.5 42.1,49.5 42.1,50.4 42.9,50.4 43.8,50.4 43.8,49.5 					"/>
					<polygon class="st6" points="43.8,50.4 43.8,51.2 43.8,52.1 44.6,52.1 44.6,51.2 44.6,50.4 					"/>
				</g>
				<rect id="XMLID_263_" x="45.4" y="51.2" class="st6" width="0.8" height="0.8"/>
				<rect id="XMLID_262_" x="47.1" y="51.2" class="st6" width="0.8" height="0.8"/>
				<polygon class="st6" points="48,52.1 47.1,52.1 46.3,52.1 45.4,52.1 44.6,52.1 44.6,52.9 45.4,52.9 46.3,52.9 47.1,52.9 
					48,52.9 48.8,52.9 48.8,52.1 				"/>
				<g>
					<polygon class="st6" points="48.8,51.2 48.8,52.1 49.6,52.1 49.6,51.2 49.6,50.4 48.8,50.4 					"/>
					<polygon class="st6" points="50.5,49.5 49.6,49.5 49.6,50.4 50.5,50.4 51.3,50.4 51.3,49.5 					"/>
				</g>
				<rect id="XMLID_261_" x="51.3" y="48.7" class="st6" width="0.8" height="0.8"/>
				<rect id="XMLID_260_" x="51.3" y="47.9" class="st6" width="0.8" height="0.8"/>
				<polygon class="st6" points="49.7,41.2 48.8,41.2 48,41.2 47.1,41.2 46.3,41.2 45.5,41.2 44.6,41.2 43.8,41.2 42.9,41.2 
					42.9,42 43.8,42 44.6,42 45.5,42 46.3,42 47.1,42 48,42 48.8,42 49.7,42 50.5,42 50.5,41.2 				"/>
				<rect id="XMLID_259_" x="50.5" y="42.1" class="st6" width="0.8" height="0.8"/>
				<rect id="XMLID_258_" x="51.3" y="43.7" class="st6" width="0.8" height="0.8"/>
				<rect id="XMLID_257_" x="51.3" y="42.9" class="st6" width="0.8" height="0.8"/>
				<polygon class="st6" points="52.2,44.6 52.2,45.4 52.2,46.2 52.2,47.1 52.2,47.9 53,47.9 53,47.1 53,46.2 53,45.4 53,44.6 				
					"/>
			</g>
		</g>
	</g>
</g>
</svg>
