<?xml version="1.0" encoding="utf-8"?>
<!-- Generator: Adobe Illustrator 25.0.1, SVG Export Plug-In . SVG Version: 6.00 Build 0)  -->
<svg version="1.1" id="Layer_1" xmlns="http://www.w3.org/2000/svg" xmlns:xlink="http://www.w3.org/1999/xlink" x="0px" y="0px"
	 viewBox="0 0 100 100" style="enable-background:new 0 0 100 100;" xml:space="preserve">
<style type="text/css">
	.st0{opacity:0.13;fill:#F1F7FF;}
	.st1{opacity:0.32;fill:#F1F7FF;}
	.st2{opacity:0.58;fill:#F1F7FF;}
	.st3{fill:#FFFFFF;}
	.st4{fill:none;stroke:#FFFFFF;stroke-width:2;stroke-miterlimit:10;}
	.st5{fill:#BDD4EF;}
	.st6{fill:#060606;}
	.st7{fill:#222221;}
	.st8{font-family:'Pixelated';}
	.st9{font-size:8.4959px;}
	.st10{font-size:6.3106px;}
	.st11{font-size:5.6215px;}
	.st12{font-size:5.9559px;}
	.st13{font-size:7.3235px;}
	.st14{font-size:7.6323px;}
	.st15{fill:#78D23A;}
	.st16{fill:#EFEC3C;}
	.st17{fill:#D5711C;}
	.st18{fill:#C40B18;}
	.st19{fill:#3D52D2;}
	.st20{fill:#632796;}
	.st21{fill:#B50BEB;}
	.st22{fill:url(#SVGID_1_);}
	.st23{fill:url(#SVGID_2_);}
	.st24{fill:url(#SVGID_3_);}
	.st25{fill:url(#SVGID_4_);}
	.st26{fill:url(#SVGID_5_);}
	.st27{fill:#446EB2;}
	.st28{clip-path:url(#SVGID_7_);}
	.st29{fill:#F5D835;}
	.st30{clip-path:url(#SVGID_10_);fill:url(#SVGID_11_);}
	.st31{fill:#232222;stroke:#FFFFFF;stroke-width:0.25;stroke-miterlimit:10;}
	.st32{fill-rule:evenodd;clip-rule:evenodd;fill:#D4B5A8;}
	.st33{fill-rule:evenodd;clip-rule:evenodd;fill:#F0D6C8;}
	.st34{fill-rule:evenodd;clip-rule:evenodd;fill:#4E342E;}
	.st35{fill-rule:evenodd;clip-rule:evenodd;fill:#5D4037;}
	.st36{fill-rule:evenodd;clip-rule:evenodd;fill:#8D6E63;}
	.st37{fill-rule:evenodd;clip-rule:evenodd;fill:#BCAAA4;}
	.st38{fill:#C00E1A;}
	.st39{fill:#C94625;}
	.st40{fill:url(#SVGID_12_);}
	.st41{fill:url(#SVGID_13_);}
	.st42{fill:#181814;}
	.st43{fill:#518E45;}
	.st44{fill:#AED581;}
	.st45{fill:#7CB045;}
	.st46{fill:#477E41;}
	.st47{fill:#232322;}
	.st48{fill:#577A39;}
	.st49{fill:#F3F2F3;}
	.st50{fill:#C0101E;}
	.st51{fill:#D05451;}
	.st52{fill:#D37174;}
	.st53{fill:#C62828;}
	.st54{fill:#B71E1E;}
	.st55{fill:#EDE435;}
	.st56{fill:#CC5428;}
	.st57{fill:#E19F3A;}
	.st58{fill:#D5782C;}
	.st59{fill:#487FC2;}
	.st60{fill:#92C7F0;}
	.st61{fill:#599ED9;}
	.st62{fill:#3965AC;}
	.st63{fill:#70C535;}
	.st64{fill:#4B8325;}
	.st65{fill:#5DA22C;}
	.st66{fill:#7DBAE7;}
	.st67{fill:#75ACCE;}
	.st68{fill:#6F589D;}
	.st69{fill:#8C75AF;}
	.st70{fill:#55428F;}
	.st71{fill:#362F82;}
	.st72{fill:#BBBBBB;}
	.st73{fill:#EDEDED;}
	.st74{fill:#F7EA37;stroke:#F9EB3B;stroke-miterlimit:10;}
	.st75{fill:#575959;}
	.st76{fill:#F9EB3B;}
	.st77{fill:#D50000;}
	.st78{fill:#C00C1A;}
	.st79{fill:#74ADD4;}
	.st80{fill:#99BF6B;}
	.st81{fill:#B4B7B7;}
	.st82{fill:#DD5120;}
	.st83{fill:#EEEEEE;}
	.st84{fill:#5B3918;}
	.st85{fill:#7A481E;}
	.st86{fill:#4E2525;}
	.st87{fill:#9E4545;}
	.st88{fill:#595959;}
	.st89{fill:#740E0E;}
	.st90{fill:#D5806E;}
	.st91{fill:#982931;}
	.st92{fill:#444343;}
	.st93{fill:#31588B;}
	.st94{fill:#6F83AD;}
	.st95{fill:#426498;}
	.st96{fill:#EDC82F;}
	.st97{fill:#E8D5A5;}
	.st98{fill:#F8E9A0;}
	.st99{fill:#898D8F;}
	.st100{fill:#D4C6C6;}
	.st101{fill:#AAAAAA;}
	.st102{opacity:0.5;fill:#212121;}
	.st103{fill:#212121;}
	.st104{opacity:0.5;fill:#7CB045;}
	.st105{opacity:0.5;fill:#4377BD;}
	.st106{fill:#4377BD;}
	.st107{fill:url(#SVGID_14_);}
	.st108{fill:url(#SVGID_15_);}
	.st109{fill:url(#SVGID_16_);}
	.st110{fill:url(#SVGID_17_);}
	.st111{fill:url(#SVGID_18_);}
	.st112{fill:#8C0000;}
	.st113{clip-path:url(#SVGID_20_);}
	.st114{clip-path:url(#SVGID_23_);fill:url(#SVGID_24_);}
	.st115{fill:url(#SVGID_25_);}
	.st116{fill:url(#SVGID_26_);}
</style>
<g>
	<path class="st5" d="M78.3,90.3H21.7c-6.6,0-12-5.4-12-12V21.7c0-6.6,5.4-12,12-12h56.6c6.6,0,12,5.4,12,12v56.6
		C90.3,84.9,84.9,90.3,78.3,90.3z"/>
	<g>
		<g>
			<g id="XMLID_288_">
				<path id="XMLID_289_" class="st3" d="M21.9,40.9h16.3v1.5h1.5v10.3h-1.5v1.5h-3v4.4h-1.5v-1.5h-1.5v-1.5h-1.5v-1.5h-8.9v-1.5
					h-1.5V42.3h1.5C21.9,42.3,21.9,40.7,21.9,40.9z"/>
				<g>
					<polygon class="st6" points="39.6,42.3 39.6,43.8 39.6,45.3 39.6,46.8 39.6,48.2 39.6,49.7 39.6,51.2 39.6,52.7 41.1,52.7 
						41.1,51.2 41.1,49.7 41.1,48.2 41.1,46.8 41.1,45.3 41.1,43.8 41.1,42.3 					"/>
					<rect x="38.2" y="52.7" class="st6" width="1.5" height="1.5"/>
					<rect x="38.2" y="40.9" class="st6" width="1.5" height="1.5"/>
					<polygon class="st6" points="35.2,54.2 35.2,55.6 35.2,57.1 35.2,58.6 33.7,58.6 33.7,60.1 35.2,60.1 36.7,60.1 36.7,58.6 
						36.7,57.1 36.7,55.6 38.2,55.6 38.2,54.2 36.7,54.2 					"/>
					<rect x="32.3" y="57.1" class="st6" width="1.5" height="1.5"/>
					<rect x="30.8" y="55.6" class="st6" width="1.5" height="1.5"/>
					<polygon class="st6" points="29.3,54.2 27.8,54.2 26.3,54.2 24.9,54.2 23.4,54.2 21.9,54.2 21.9,55.6 23.4,55.6 24.9,55.6 
						26.3,55.6 27.8,55.6 29.3,55.6 30.8,55.6 30.8,54.2 					"/>
					<polygon class="st6" points="24.9,40.9 26.3,40.9 27.8,40.9 29.3,40.9 30.8,40.9 32.3,40.9 33.7,40.9 35.2,40.9 36.7,40.9 
						38.2,40.9 38.2,39.4 36.7,39.4 35.2,39.4 33.7,39.4 32.3,39.4 30.8,39.4 29.3,39.4 27.8,39.4 26.3,39.4 24.9,39.4 23.4,39.4 
						21.9,39.4 21.9,40.9 23.4,40.9 					"/>
					<rect x="20.4" y="52.7" class="st6" width="1.5" height="1.5"/>
					<rect x="20.4" y="40.9" class="st6" width="1.5" height="1.5"/>
					<polygon class="st6" points="20.4,49.7 20.4,48.2 20.4,46.8 20.4,45.3 20.4,43.8 20.4,42.3 18.9,42.3 18.9,43.8 18.9,45.3 
						18.9,46.8 18.9,48.2 18.9,49.7 18.9,51.2 18.9,52.7 20.4,52.7 20.4,51.2 					"/>
				</g>
			</g>
		</g>
		<text transform="matrix(1 0 0 1 22.0717 50.1501)" class="st7 st8 st9">DEFI</text>
	</g>
	<g>
		<g>
			<g id="XMLID_286_">
				<path id="XMLID_287_" class="st3" d="M21.9,66.1h16.3v1.5h1.5v10.3h-1.5v1.5h-3v4.4h-1.5v-1.5h-1.5v-1.5h-1.5v-1.5h-8.9v-1.5
					h-1.5V67.6h1.5C21.9,67.6,21.9,66,21.9,66.1z"/>
				<g>
					<polygon class="st6" points="39.7,67.6 39.7,69 39.7,70.5 39.7,72 39.7,73.5 39.7,75 39.7,76.4 39.7,77.9 41.1,77.9 41.1,76.4 
						41.1,75 41.1,73.5 41.1,72 41.1,70.5 41.1,69 41.1,67.6 					"/>
					<rect x="38.2" y="77.9" class="st6" width="1.5" height="1.5"/>
					<rect x="38.2" y="66.1" class="st6" width="1.5" height="1.5"/>
					<polygon class="st6" points="35.2,79.4 35.2,80.9 35.2,82.3 35.2,83.8 33.7,83.8 33.7,85.3 35.2,85.3 36.7,85.3 36.7,83.8 
						36.7,82.3 36.7,80.9 38.2,80.9 38.2,79.4 36.7,79.4 					"/>
					<rect x="32.3" y="82.3" class="st6" width="1.5" height="1.5"/>
					<rect x="30.8" y="80.9" class="st6" width="1.5" height="1.5"/>
					<polygon class="st6" points="29.3,79.4 27.8,79.4 26.4,79.4 24.9,79.4 23.4,79.4 21.9,79.4 21.9,80.9 23.4,80.9 24.9,80.9 
						26.4,80.9 27.8,80.9 29.3,80.9 30.8,80.9 30.8,79.4 					"/>
					<polygon class="st6" points="24.9,66.1 26.4,66.1 27.8,66.1 29.3,66.1 30.8,66.1 32.3,66.1 33.7,66.1 35.2,66.1 36.7,66.1 
						38.2,66.1 38.2,64.6 36.7,64.6 35.2,64.6 33.7,64.6 32.3,64.6 30.8,64.6 29.3,64.6 27.8,64.6 26.4,64.6 24.9,64.6 23.4,64.6 
						21.9,64.6 21.9,66.1 23.4,66.1 					"/>
					<rect x="20.4" y="77.9" class="st6" width="1.5" height="1.5"/>
					<rect x="20.4" y="66.1" class="st6" width="1.5" height="1.5"/>
					<polygon class="st6" points="20.4,75 20.4,73.5 20.4,72 20.4,70.5 20.4,69 20.4,67.6 19,67.6 19,69 19,70.5 19,72 19,73.5 
						19,75 19,76.4 19,77.9 20.4,77.9 20.4,76.4 					"/>
				</g>
			</g>
		</g>
		<text transform="matrix(1 0 0 1 21.9154 75.1599)" class="st7 st8 st10">DEGEN</text>
	</g>
	<g>
		<g>
			<g id="XMLID_284_">
				<path id="XMLID_285_" class="st3" d="M60.4,40.9h16.3v1.5h1.5v10.3h-1.5v1.5h-3v4.4h-1.5v-1.5h-1.5v-1.5h-1.5v-1.5h-8.9v-1.5
					h-1.5V42.3h1.5C60.4,42.3,60.4,40.7,60.4,40.9z"/>
				<g>
					<polygon class="st6" points="78.1,42.3 78.1,43.8 78.1,45.3 78.1,46.8 78.1,48.2 78.1,49.7 78.1,51.2 78.1,52.7 79.6,52.7 
						79.6,51.2 79.6,49.7 79.6,48.2 79.6,46.8 79.6,45.3 79.6,43.8 79.6,42.3 					"/>
					<rect x="76.6" y="52.7" class="st6" width="1.5" height="1.5"/>
					<rect x="76.6" y="40.9" class="st6" width="1.5" height="1.5"/>
					<polygon class="st6" points="73.7,54.2 73.7,55.6 73.7,57.1 73.7,58.6 72.2,58.6 72.2,60.1 73.7,60.1 75.1,60.1 75.1,58.6 
						75.1,57.1 75.1,55.6 76.6,55.6 76.6,54.2 75.1,54.2 					"/>
					<rect x="70.7" y="57.1" class="st6" width="1.5" height="1.5"/>
					<rect x="69.2" y="55.6" class="st6" width="1.5" height="1.5"/>
					<polygon class="st6" points="67.8,54.2 66.3,54.2 64.8,54.2 63.3,54.2 61.8,54.2 60.4,54.2 60.4,55.6 61.8,55.6 63.3,55.6 
						64.8,55.6 66.3,55.6 67.8,55.6 69.2,55.6 69.2,54.2 					"/>
					<polygon class="st6" points="63.3,40.9 64.8,40.9 66.3,40.9 67.8,40.9 69.2,40.9 70.7,40.9 72.2,40.9 73.7,40.9 75.1,40.9 
						76.6,40.9 76.6,39.4 75.1,39.4 73.7,39.4 72.2,39.4 70.7,39.4 69.2,39.4 67.8,39.4 66.3,39.4 64.8,39.4 63.3,39.4 61.8,39.4 
						60.4,39.4 60.4,40.9 61.8,40.9 					"/>
					<rect x="58.9" y="52.7" class="st6" width="1.5" height="1.5"/>
					<rect x="58.9" y="40.9" class="st6" width="1.5" height="1.5"/>
					<polygon class="st6" points="58.9,49.7 58.9,48.2 58.9,46.8 58.9,45.3 58.9,43.8 58.9,42.3 57.4,42.3 57.4,43.8 57.4,45.3 
						57.4,46.8 57.4,48.2 57.4,49.7 57.4,51.2 57.4,52.7 58.9,52.7 58.9,51.2 					"/>
				</g>
			</g>
		</g>
		<text transform="matrix(1 0 0 1 60.1683 49.7136)" class="st7 st8 st11">CRYPTO</text>
	</g>
	<g>
		<g>
			<g id="XMLID_282_">
				<path id="XMLID_283_" class="st3" d="M60.3,66.1h16.3v1.5h1.5v10.3h-1.5v1.5h-3v4.4h-1.5v-1.5h-1.5v-1.5h-1.5v-1.5h-8.9v-1.5
					h-1.5V67.6h1.5C60.3,67.6,60.3,66,60.3,66.1z"/>
				<g>
					<polygon class="st6" points="78.1,67.6 78.1,69 78.1,70.5 78.1,72 78.1,73.5 78.1,75 78.1,76.4 78.1,77.9 79.6,77.9 79.6,76.4 
						79.6,75 79.6,73.5 79.6,72 79.6,70.5 79.6,69 79.6,67.6 					"/>
					<rect x="76.6" y="77.9" class="st6" width="1.5" height="1.5"/>
					<rect x="76.6" y="66.1" class="st6" width="1.5" height="1.5"/>
					<polygon class="st6" points="73.6,79.4 73.6,80.9 73.6,82.3 73.6,83.8 72.2,83.8 72.2,85.3 73.6,85.3 75.1,85.3 75.1,83.8 
						75.1,82.3 75.1,80.9 76.6,80.9 76.6,79.4 75.1,79.4 					"/>
					<rect x="70.7" y="82.3" class="st6" width="1.5" height="1.5"/>
					<rect x="69.2" y="80.9" class="st6" width="1.5" height="1.5"/>
					<polygon class="st6" points="67.7,79.4 66.3,79.4 64.8,79.4 63.3,79.4 61.8,79.4 60.3,79.4 60.3,80.9 61.8,80.9 63.3,80.9 
						64.8,80.9 66.3,80.9 67.7,80.9 69.2,80.9 69.2,79.4 					"/>
					<polygon class="st6" points="63.3,66.1 64.8,66.1 66.3,66.1 67.7,66.1 69.2,66.1 70.7,66.1 72.2,66.1 73.6,66.1 75.1,66.1 
						76.6,66.1 76.6,64.6 75.1,64.6 73.6,64.6 72.2,64.6 70.7,64.6 69.2,64.6 67.7,64.6 66.3,64.6 64.8,64.6 63.3,64.6 61.8,64.6 
						60.3,64.6 60.3,66.1 61.8,66.1 					"/>
					<rect x="58.9" y="77.9" class="st6" width="1.5" height="1.5"/>
					<rect x="58.9" y="66.1" class="st6" width="1.5" height="1.5"/>
					<polygon class="st6" points="58.9,75 58.9,73.5 58.9,72 58.9,70.5 58.9,69 58.9,67.6 57.4,67.6 57.4,69 57.4,70.5 57.4,72 
						57.4,73.5 57.4,75 57.4,76.4 57.4,77.9 58.9,77.9 58.9,76.4 					"/>
				</g>
			</g>
		</g>
		<text transform="matrix(1 0 0 1 59.8153 74.0998)" class="st7 st8 st12">MOON?</text>
	</g>
	<g>
		<g>
			<g id="XMLID_280_">
				<path id="XMLID_281_" class="st3" d="M21.9,15.6h16.3v1.5h1.5v10.3h-1.5v1.5h-3v4.4h-1.5v-1.5h-1.5v-1.5h-1.5v-1.5h-8.9v-1.5
					h-1.5V17.1h1.5C21.9,17.1,21.9,15.5,21.9,15.6z"/>
				<g>
					<polygon class="st6" points="39.6,17.1 39.6,18.6 39.6,20.1 39.6,21.5 39.6,23 39.6,24.5 39.6,26 39.6,27.4 41.1,27.4 41.1,26 
						41.1,24.5 41.1,23 41.1,21.5 41.1,20.1 41.1,18.6 41.1,17.1 					"/>
					<rect x="38.2" y="27.4" class="st6" width="1.5" height="1.5"/>
					<rect x="38.2" y="15.6" class="st6" width="1.5" height="1.5"/>
					<polygon class="st6" points="35.2,28.9 35.2,30.4 35.2,31.9 35.2,33.4 33.7,33.4 33.7,34.8 35.2,34.8 36.7,34.8 36.7,33.4 
						36.7,31.9 36.7,30.4 38.2,30.4 38.2,28.9 36.7,28.9 					"/>
					<rect x="32.3" y="31.9" class="st6" width="1.5" height="1.5"/>
					<rect x="30.8" y="30.4" class="st6" width="1.5" height="1.5"/>
					<polygon class="st6" points="29.3,28.9 27.8,28.9 26.3,28.9 24.9,28.9 23.4,28.9 21.9,28.9 21.9,30.4 23.4,30.4 24.9,30.4 
						26.3,30.4 27.8,30.4 29.3,30.4 30.8,30.4 30.8,28.9 					"/>
					<polygon class="st6" points="24.9,15.6 26.3,15.6 27.8,15.6 29.3,15.6 30.8,15.6 32.3,15.6 33.7,15.6 35.2,15.6 36.7,15.6 
						38.2,15.6 38.2,14.1 36.7,14.1 35.2,14.1 33.7,14.1 32.3,14.1 30.8,14.1 29.3,14.1 27.8,14.1 26.3,14.1 24.9,14.1 23.4,14.1 
						21.9,14.1 21.9,15.6 23.4,15.6 					"/>
					<rect x="20.4" y="27.4" class="st6" width="1.5" height="1.5"/>
					<rect x="20.4" y="15.6" class="st6" width="1.5" height="1.5"/>
					<polygon class="st6" points="20.4,24.5 20.4,23 20.4,21.5 20.4,20.1 20.4,18.6 20.4,17.1 18.9,17.1 18.9,18.6 18.9,20.1 
						18.9,21.5 18.9,23 18.9,24.5 18.9,26 18.9,27.4 20.4,27.4 20.4,26 					"/>
				</g>
			</g>
		</g>
		<text transform="matrix(1 0 0 1 22.5922 24.7248)" class="st7 st8 st13">HODL</text>
	</g>
	<g>
		<g id="XMLID_278_">
			<path id="XMLID_279_" class="st3" d="M60.3,16.1h16.3v1.5h1.5v10.3h-1.5v1.5h-3v4.4h-1.5v-1.5h-1.5v-1.5h-1.5v-1.5h-8.9v-1.5
				h-1.5V17.5h1.5C60.3,17.5,60.3,15.9,60.3,16.1z"/>
			<g>
				<polygon class="st6" points="78.1,17.5 78.1,19 78.1,20.5 78.1,22 78.1,23.4 78.1,24.9 78.1,26.4 78.1,27.9 79.6,27.9 
					79.6,26.4 79.6,24.9 79.6,23.4 79.6,22 79.6,20.5 79.6,19 79.6,17.5 				"/>
				<rect x="76.6" y="27.9" class="st6" width="1.5" height="1.5"/>
				<rect x="76.6" y="16.1" class="st6" width="1.5" height="1.5"/>
				<polygon class="st6" points="73.6,29.4 73.6,30.8 73.6,32.3 73.6,33.8 72.2,33.8 72.2,35.3 73.6,35.3 75.1,35.3 75.1,33.8 
					75.1,32.3 75.1,30.8 76.6,30.8 76.6,29.4 75.1,29.4 				"/>
				<rect x="70.7" y="32.3" class="st6" width="1.5" height="1.5"/>
				<rect x="69.2" y="30.8" class="st6" width="1.5" height="1.5"/>
				<polygon class="st6" points="67.7,29.4 66.3,29.4 64.8,29.4 63.3,29.4 61.8,29.4 60.3,29.4 60.3,30.8 61.8,30.8 63.3,30.8 
					64.8,30.8 66.3,30.8 67.7,30.8 69.2,30.8 69.2,29.4 				"/>
				<polygon class="st6" points="63.3,16.1 64.8,16.1 66.3,16.1 67.7,16.1 69.2,16.1 70.7,16.1 72.2,16.1 73.6,16.1 75.1,16.1 
					76.6,16.1 76.6,14.6 75.1,14.6 73.6,14.6 72.2,14.6 70.7,14.6 69.2,14.6 67.7,14.6 66.3,14.6 64.8,14.6 63.3,14.6 61.8,14.6 
					60.3,14.6 60.3,16.1 61.8,16.1 				"/>
				<rect x="58.9" y="27.9" class="st6" width="1.5" height="1.5"/>
				<rect x="58.9" y="16.1" class="st6" width="1.5" height="1.5"/>
				<polygon class="st6" points="58.9,24.9 58.9,23.4 58.9,22 58.9,20.5 58.9,19 58.9,17.5 57.4,17.5 57.4,19 57.4,20.5 57.4,22 
					57.4,23.4 57.4,24.9 57.4,26.4 57.4,27.9 58.9,27.9 58.9,26.4 				"/>
			</g>
		</g>
		<g>
			<text transform="matrix(1 0 0 1 60.8251 24.9885)" class="st7 st8 st14">NFTS</text>
		</g>
	</g>
</g>
</svg>
