<?xml version="1.0" encoding="utf-8"?>
<!-- Generator: Adobe Illustrator 25.0.1, SVG Export Plug-In . SVG Version: 6.00 Build 0)  -->
<svg version="1.1" id="Layer_1" xmlns="http://www.w3.org/2000/svg" xmlns:xlink="http://www.w3.org/1999/xlink" x="0px" y="0px"
	 viewBox="0 0 100 100" style="enable-background:new 0 0 100 100;" xml:space="preserve">
<style type="text/css">
	.st0{opacity:0.13;fill:#F1F7FF;}
	.st1{opacity:0.32;fill:#F1F7FF;}
	.st2{opacity:0.58;fill:#F1F7FF;}
	.st3{fill:#FFFFFF;}
	.st4{fill:none;stroke:#FFFFFF;stroke-width:2;stroke-miterlimit:10;}
	.st5{fill:#BDD4EF;}
	.st6{fill:#060606;}
	.st7{fill:#78D23A;}
	.st8{fill:#EFEC3C;}
	.st9{fill:#D5711C;}
	.st10{fill:#C40B18;}
	.st11{fill:#3D52D2;}
	.st12{fill:#632796;}
	.st13{fill:#B50BEB;}
	.st14{fill:url(#SVGID_1_);}
	.st15{fill:url(#SVGID_2_);}
	.st16{fill:url(#SVGID_3_);}
	.st17{fill:url(#SVGID_4_);}
	.st18{fill:url(#SVGID_5_);}
	.st19{fill:#446EB2;}
	.st20{clip-path:url(#SVGID_7_);}
	.st21{fill:#222221;}
	.st22{fill:#F5D835;}
	.st23{clip-path:url(#SVGID_10_);fill:url(#SVGID_11_);}
	.st24{fill:#232222;stroke:#FFFFFF;stroke-width:0.25;stroke-miterlimit:10;}
	.st25{fill-rule:evenodd;clip-rule:evenodd;fill:#D4B5A8;}
	.st26{fill-rule:evenodd;clip-rule:evenodd;fill:#F0D6C8;}
	.st27{fill-rule:evenodd;clip-rule:evenodd;fill:#4E342E;}
	.st28{fill-rule:evenodd;clip-rule:evenodd;fill:#5D4037;}
	.st29{fill-rule:evenodd;clip-rule:evenodd;fill:#8D6E63;}
	.st30{fill-rule:evenodd;clip-rule:evenodd;fill:#BCAAA4;}
	.st31{fill:#C00E1A;}
	.st32{fill:#C94625;}
	.st33{fill:url(#SVGID_12_);}
	.st34{fill:url(#SVGID_13_);}
	.st35{fill:#181814;}
	.st36{fill:#518E45;}
	.st37{fill:#AED581;}
	.st38{fill:#7CB045;}
	.st39{fill:#477E41;}
	.st40{fill:#232322;}
	.st41{fill:#577A39;}
	.st42{fill:#F3F2F3;}
	.st43{fill:#C0101E;}
	.st44{fill:#D05451;}
	.st45{fill:#D37174;}
	.st46{fill:#C62828;}
	.st47{fill:#B71E1E;}
	.st48{fill:#EDE435;}
	.st49{fill:#CC5428;}
	.st50{fill:#E19F3A;}
	.st51{fill:#D5782C;}
	.st52{fill:#487FC2;}
	.st53{fill:#92C7F0;}
	.st54{fill:#599ED9;}
	.st55{fill:#3965AC;}
	.st56{fill:#70C535;}
	.st57{fill:#4B8325;}
	.st58{fill:#5DA22C;}
	.st59{fill:#7DBAE7;}
	.st60{fill:#75ACCE;}
	.st61{fill:#6F589D;}
	.st62{fill:#8C75AF;}
	.st63{fill:#55428F;}
	.st64{fill:#362F82;}
	.st65{fill:#BBBBBB;}
	.st66{fill:#EDEDED;}
	.st67{fill:#F7EA37;stroke:#F9EB3B;stroke-miterlimit:10;}
	.st68{fill:#575959;}
	.st69{fill:#F9EB3B;}
	.st70{fill:#D50000;}
	.st71{fill:#C00C1A;}
	.st72{fill:#74ADD4;}
	.st73{fill:#99BF6B;}
	.st74{fill:#B4B7B7;}
	.st75{fill:#DD5120;}
	.st76{fill:#EEEEEE;}
	.st77{fill:#5B3918;}
	.st78{fill:#7A481E;}
	.st79{fill:#4E2525;}
	.st80{fill:#9E4545;}
	.st81{fill:#595959;}
	.st82{fill:#740E0E;}
	.st83{fill:#D5806E;}
	.st84{fill:#982931;}
	.st85{fill:#444343;}
	.st86{fill:#31588B;}
	.st87{fill:#6F83AD;}
	.st88{fill:#426498;}
	.st89{fill:#EDC82F;}
	.st90{fill:#E8D5A5;}
	.st91{fill:#F8E9A0;}
	.st92{fill:#898D8F;}
	.st93{fill:#D4C6C6;}
	.st94{fill:#AAAAAA;}
	.st95{opacity:0.5;fill:#212121;}
	.st96{fill:#212121;}
	.st97{opacity:0.5;fill:#7CB045;}
	.st98{opacity:0.5;fill:#4377BD;}
	.st99{fill:#4377BD;}
	.st100{fill:url(#SVGID_14_);}
	.st101{fill:url(#SVGID_15_);}
	.st102{fill:url(#SVGID_16_);}
	.st103{fill:url(#SVGID_17_);}
	.st104{fill:url(#SVGID_18_);}
	.st105{fill:#8C0000;}
	.st106{clip-path:url(#SVGID_20_);}
	.st107{clip-path:url(#SVGID_23_);fill:url(#SVGID_24_);}
	.st108{fill:url(#SVGID_25_);}
	.st109{fill:url(#SVGID_26_);}
</style>
<g>
	<path class="st5" d="M77.7,89.7H22.3c-6.6,0-12-5.4-12-12V22.3c0-6.6,5.4-12,12-12h55.4c6.6,0,12,5.4,12,12v55.4
		C89.7,84.3,84.3,89.7,77.7,89.7z"/>
	<g>
		<g>
			<rect x="81.8" y="58.1" width="2.7" height="1.9"/>
			<polygon class="st36" points="65.5,52.3 65.5,50.4 65.5,48.4 62.8,48.4 62.8,50.4 62.8,52.3 62.8,54.3 65.5,54.3 65.5,56.2 
				68.3,56.2 68.3,54.3 68.3,52.3 			"/>
			<g>
				<polygon class="st37" points="79.1,58.1 76.4,58.1 73.7,58.1 71,58.1 68.3,58.1 65.5,58.1 62.8,58.1 60.1,58.1 57.4,58.1 
					54.7,58.1 52,58.1 49.3,58.1 46.6,58.1 43.9,58.1 41.1,58.1 38.4,58.1 35.7,58.1 35.7,60.1 38.4,60.1 41.1,60.1 43.9,60.1 
					46.6,60.1 49.3,60.1 52,60.1 54.7,60.1 57.4,60.1 60.1,60.1 62.8,60.1 65.5,60.1 68.3,60.1 71,60.1 73.7,60.1 76.4,60.1 
					79.1,60.1 81.8,60.1 81.8,58.1 				"/>
				<polygon class="st37" points="65.5,50.4 65.5,52.3 68.3,52.3 68.3,50.4 68.3,48.4 68.3,46.5 65.5,46.5 65.5,44.5 65.5,42.6 
					62.8,42.6 62.8,44.5 62.8,46.5 62.8,48.4 65.5,48.4 				"/>
			</g>
			<path class="st38" d="M65.5,40.6h-2.7v-1.9h-2.7h-2.7v-1.9h-2.7H52h-2.7h-2.7h-2.7h-2.7h-2.7v1.9h-2.7H33v1.9h-2.7v1.9v1.9v1.9
				v1.9v1.9v1.9H33h2.7h2.7h2.7h2.7h2.7h2.7v0h-2.7h-2.7h-2.7h-2.7h-2.7H33h-2.7v1.9v1.9v1.9H33h2.7h2.7v-1.9h2.7h2.7h2.7h2.7H52
				h2.7h2.7h2.7h2.7h2.7v-1.9h-2.7v-1.9v-1.9h-2.7h-2.7h-2.7H52h-2.7v0H52h2.7h2.7h2.7h2.7v-1.9v-1.9v-1.9v-1.9h2.7v1.9v1.9h2.7
				v-1.9v-1.9v-1.9H65.5z M38.4,42.6h-2.7v0L38.4,42.6L38.4,42.6z"/>
			<g>
				<polygon class="st39" points="35.7,36.8 33,36.8 33,38.7 35.7,38.7 38.4,38.7 38.4,36.8 				"/>
				<polygon class="st39" points="30.3,58.1 27.6,58.1 27.6,60.1 30.3,60.1 33,60.1 35.7,60.1 35.7,58.1 33,58.1 				"/>
				<polygon class="st39" points="27.6,38.7 27.6,40.6 24.9,40.6 24.9,42.6 24.9,44.5 24.9,46.5 24.9,48.4 24.9,50.4 24.9,52.3 
					24.9,54.3 24.9,56.2 27.6,56.2 30.3,56.2 30.3,54.3 30.3,52.3 30.3,50.4 30.3,48.4 30.3,46.5 30.3,44.5 30.3,42.6 30.3,40.6 
					33,40.6 33,38.7 30.3,38.7 				"/>
			</g>
			<g>
				<polygon class="st6" points="81.8,56.2 79.1,56.2 76.4,56.2 73.7,56.2 71,56.2 71,54.3 71,52.3 71,50.4 71,48.4 71,46.5 
					71,44.5 71,42.6 71,40.6 68.3,40.6 68.3,42.6 68.3,44.5 68.3,46.5 68.3,48.4 68.3,50.4 68.3,52.3 68.3,54.3 68.3,56.2 
					65.5,56.2 62.8,56.2 60.1,56.2 57.4,56.2 54.7,56.2 52,56.2 49.3,56.2 46.6,56.2 43.9,56.2 41.1,56.2 38.4,56.2 38.4,58.1 
					41.1,58.1 43.9,58.1 46.6,58.1 49.3,58.1 52,58.1 54.7,58.1 57.4,58.1 60.1,58.1 62.8,58.1 65.5,58.1 68.3,58.1 71,58.1 
					73.7,58.1 76.4,58.1 79.1,58.1 81.8,58.1 84.5,58.1 84.5,56.2 				"/>
				<polygon class="st6" points="79.1,60.1 76.4,60.1 73.7,60.1 71,60.1 68.3,60.1 65.5,60.1 62.8,60.1 60.1,60.1 57.4,60.1 
					54.7,60.1 52,60.1 49.3,60.1 46.6,60.1 43.9,60.1 41.1,60.1 38.4,60.1 38.4,62 41.1,62 43.9,62 46.6,62 49.3,62 52,62 54.7,62 
					57.4,62 60.1,62 62.8,62 65.5,62 68.3,62 71,62 73.7,62 76.4,62 79.1,62 81.8,62 84.5,62 84.5,60.1 81.8,60.1 				"/>
				<polygon class="st6" points="65.5,38.7 65.5,36.8 62.8,36.8 60.1,36.8 60.1,34.8 57.4,34.8 54.7,34.8 54.7,32.9 52,32.9 
					49.3,32.9 46.6,32.9 43.9,32.9 41.1,32.9 38.4,32.9 35.7,32.9 35.7,34.8 33,34.8 30.3,34.8 30.3,36.8 27.6,36.8 24.9,36.8 
					24.9,38.7 24.9,40.6 27.6,40.6 27.6,38.7 30.3,38.7 33,38.7 33,36.8 35.7,36.8 38.4,36.8 41.1,36.8 43.9,36.8 46.6,36.8 
					49.3,36.8 52,36.8 54.7,36.8 57.4,36.8 57.4,38.7 60.1,38.7 62.8,38.7 62.8,40.6 65.5,40.6 68.3,40.6 68.3,38.7 				"/>
				<polygon class="st6" points="22.2,42.6 22.2,44.5 22.2,46.5 22.2,48.4 22.2,50.4 22.2,52.3 22.2,54.3 22.2,56.2 22.2,58.1 
					22.2,60.1 24.9,60.1 27.6,60.1 27.6,58.1 30.3,58.1 30.3,56.2 27.6,56.2 24.9,56.2 24.9,54.3 24.9,52.3 24.9,50.4 24.9,48.4 
					24.9,46.5 24.9,44.5 24.9,42.6 24.9,40.6 22.2,40.6 				"/>
			</g>
		</g>
		<g>
			<polygon class="st40" points="42.5,42.5 42.5,43.4 42.5,44.3 42.5,45.2 43.4,45.2 43.4,44.3 43.4,43.4 43.4,42.5 			"/>
			<rect x="43.4" y="45.2" class="st40" width="0.9" height="0.9"/>
			<rect x="42.5" y="46.1" class="st40" width="0.9" height="0.9"/>
			<polygon class="st40" points="41.6,47 41.6,47.9 41.6,48.8 42.5,48.8 42.5,47.9 42.5,47 			"/>
			<rect x="42.5" y="48.8" class="st40" width="0.9" height="0.9"/>
			<rect x="43.4" y="49.6" class="st40" width="0.9" height="0.9"/>
			<rect x="44.3" y="48.8" class="st40" width="0.9" height="0.9"/>
			<rect x="45.2" y="49.6" class="st40" width="0.9" height="0.9"/>
			<rect x="44.3" y="47.9" class="st41" width="0.9" height="0.9"/>
			<polygon class="st42" points="47.9,51.4 47,51.4 47,52.3 47.9,52.3 48.7,52.3 48.7,51.4 			"/>
			<rect x="50.5" y="49.6" class="st41" width="0.9" height="0.9"/>
			<rect x="50.5" y="48.8" class="st41" width="0.9" height="0.9"/>
			<path class="st41" d="M52.3,47v-0.9h-0.9h-0.9h-0.9v-0.9h-0.9v-0.9h-0.9H47h-0.9v0.9v0.9h-0.9h-0.9h-0.9V47h-0.9v0.9v0.9h0.9v0.9
				h0.9v-0.9h0.9v0.9h0.9H47v-0.9h-0.9v-0.9h-0.9V47h0.9H47h0.9h0.9h0.9v0.9h-0.9v0.9h-0.9v0.9H47v0h-0.9v0.9h-0.9v-0.9h-0.9v0.9
				h-0.9v0.9h-0.9v0.9h0.9h0.9h0.9h0.9H47v-0.9h0.9h0.9v0.9h0.9h0.9h0.9h0.9h0.9v-0.9h-0.9v-0.9h-0.9h-0.9h-0.9v-0.9h0.9v-0.9h0.9
				v0.9h0.9v-0.9h0.9v-0.9V47H52.3z M48.7,50.6h-0.9H47v0h0.9L48.7,50.6L48.7,50.6z"/>
			<rect x="47" y="48.8" class="st40" width="0.9" height="0.9"/>
			<rect x="47" y="47.9" class="st43" width="0.9" height="0.9"/>
			<polygon class="st40" points="48.8,47 47.9,47 47,47 46.1,47 45.2,47 45.2,47.9 46.1,47.9 46.1,48.7 47,48.7 47,47.9 47.9,47.9 
				47.9,48.7 48.8,48.7 48.8,47.9 49.6,47.9 49.6,47 			"/>
			<rect x="50.5" y="48.8" class="st40" width="0.9" height="0.9"/>
			<rect x="49.6" y="49.6" class="st40" width="0.9" height="0.9"/>
			<rect x="42.5" y="50.5" class="st40" width="0.9" height="0.9"/>
			<polygon class="st40" points="41.6,50.5 41.6,51.4 41.6,52.3 42.5,52.3 42.5,51.4 42.5,50.5 			"/>
			<polygon class="st40" points="52.3,43.4 52.3,44.3 52.3,45.2 53.2,45.2 53.2,44.3 53.2,43.4 			"/>
			<rect x="51.4" y="45.2" class="st40" width="0.9" height="0.9"/>
			<rect x="52.3" y="46.1" class="st40" width="0.9" height="0.9"/>
			<polygon class="st40" points="53.2,47 53.2,47.9 53.2,48.8 54.1,48.8 54.1,47.9 54.1,47 			"/>
			<rect x="52.3" y="48.8" class="st40" width="0.9" height="0.9"/>
			<rect x="51.4" y="49.6" class="st40" width="0.9" height="0.9"/>
			<rect x="52.3" y="50.5" class="st40" width="0.9" height="0.9"/>
			<polygon class="st40" points="53.2,50.5 53.2,51.4 53.2,52.3 54.1,52.3 54.1,51.4 54.1,50.5 			"/>
			<polygon class="st40" points="52.3,52.3 51.4,52.3 50.5,52.3 49.6,52.3 48.7,52.3 47.9,52.3 47,52.3 46.1,52.3 45.2,52.3 
				44.3,52.3 43.4,52.3 42.5,52.3 42.5,53.2 43.4,53.2 44.3,53.2 45.2,53.2 46.1,53.2 47,53.2 47.9,53.2 48.7,53.2 49.6,53.2 
				50.5,53.2 51.4,53.2 52.3,53.2 53.2,53.2 53.2,52.3 			"/>
			<rect x="44.3" y="43.4" class="st40" width="0.9" height="0.9"/>
			<polygon class="st42" points="51.4,43.4 51.4,44.3 50.5,44.3 50.5,43.4 51.4,43.4 51.4,42.5 50.5,42.5 49.6,42.5 49.6,43.4 
				48.7,43.4 48.7,44.3 48.7,45.2 49.6,45.2 49.6,46.1 50.5,46.1 51.4,46.1 51.4,45.2 52.3,45.2 52.3,44.3 52.3,43.4 			"/>
			<rect x="43.4" y="44.3" class="st42" width="0.9" height="0.9"/>
			<polygon class="st42" points="46.1,43.4 46.1,42.5 45.2,42.5 44.3,42.5 43.4,42.5 43.4,43.4 43.4,44.3 44.3,44.3 44.3,43.4 
				45.2,43.4 45.2,44.3 44.3,44.3 44.3,45.2 44.3,46.1 45.2,46.1 46.1,46.1 46.1,45.2 46.1,44.3 47,44.3 47,43.4 			"/>
			<rect x="50.5" y="43.4" class="st40" width="0.9" height="0.9"/>
			<polygon class="st40" points="45.2,41.7 44.3,41.7 43.4,41.7 43.4,42.5 44.3,42.5 45.2,42.5 46.1,42.5 46.1,41.7 			"/>
			<rect x="46.1" y="42.5" class="st40" width="0.9" height="0.9"/>
			<rect x="48.7" y="42.5" class="st40" width="0.9" height="0.9"/>
			<rect x="49.6" y="41.7" class="st40" width="0.9" height="0.9"/>
			<rect x="50.5" y="41.7" class="st40" width="0.9" height="0.9"/>
			<rect x="51.4" y="42.5" class="st40" width="0.9" height="0.9"/>
			<rect x="47" y="43.4" class="st40" width="0.9" height="0.9"/>
			<rect x="47.9" y="43.4" class="st40" width="0.9" height="0.9"/>
		</g>
	</g>
</g>
</svg>
