<?xml version="1.0" encoding="utf-8"?>
<!-- Generator: Adobe Illustrator 25.0.1, SVG Export Plug-In . SVG Version: 6.00 Build 0)  -->
<svg version="1.1" id="Layer_1" xmlns="http://www.w3.org/2000/svg" xmlns:xlink="http://www.w3.org/1999/xlink" x="0px" y="0px"
	 viewBox="0 0 100 100" style="enable-background:new 0 0 100 100;" xml:space="preserve">
<style type="text/css">
	.st0{opacity:0.13;fill:#F1F7FF;}
	.st1{opacity:0.32;fill:#F1F7FF;}
	.st2{opacity:0.58;fill:#F1F7FF;}
	.st3{fill:#FFFFFF;}
	.st4{fill:none;stroke:#FFFFFF;stroke-width:2;stroke-miterlimit:10;}
	.st5{fill:#BDD4EF;}
	.st6{fill:#060606;}
	.st7{fill:#78D23A;}
	.st8{fill:#EFEC3C;}
	.st9{fill:#D5711C;}
	.st10{fill:#C40B18;}
	.st11{fill:#3D52D2;}
	.st12{fill:#632796;}
	.st13{fill:#B50BEB;}
	.st14{fill:url(#SVGID_1_);}
	.st15{fill:url(#SVGID_2_);}
	.st16{fill:url(#SVGID_3_);}
	.st17{fill:url(#SVGID_4_);}
	.st18{fill:url(#SVGID_5_);}
	.st19{fill:#446EB2;}
	.st20{clip-path:url(#SVGID_7_);}
	.st21{fill:#222221;}
	.st22{fill:#F5D835;}
	.st23{clip-path:url(#SVGID_10_);fill:url(#SVGID_11_);}
	.st24{fill:#232222;stroke:#FFFFFF;stroke-width:0.25;stroke-miterlimit:10;}
	.st25{fill-rule:evenodd;clip-rule:evenodd;fill:#D4B5A8;}
	.st26{fill-rule:evenodd;clip-rule:evenodd;fill:#F0D6C8;}
	.st27{fill-rule:evenodd;clip-rule:evenodd;fill:#4E342E;}
	.st28{fill-rule:evenodd;clip-rule:evenodd;fill:#5D4037;}
	.st29{fill-rule:evenodd;clip-rule:evenodd;fill:#8D6E63;}
	.st30{fill-rule:evenodd;clip-rule:evenodd;fill:#BCAAA4;}
	.st31{fill:#C00E1A;}
	.st32{fill:#C94625;}
	.st33{fill:url(#SVGID_12_);}
	.st34{fill:url(#SVGID_13_);}
	.st35{fill:#181814;}
	.st36{fill:#518E45;}
	.st37{fill:#AED581;}
	.st38{fill:#7CB045;}
	.st39{fill:#477E41;}
	.st40{fill:#232322;}
	.st41{fill:#577A39;}
	.st42{fill:#F3F2F3;}
	.st43{fill:#C0101E;}
	.st44{fill:#D05451;}
	.st45{fill:#D37174;}
	.st46{fill:#C62828;}
	.st47{fill:#B71E1E;}
	.st48{fill:#EDE435;}
	.st49{fill:#CC5428;}
	.st50{fill:#E19F3A;}
	.st51{fill:#D5782C;}
	.st52{fill:#487FC2;}
	.st53{fill:#92C7F0;}
	.st54{fill:#599ED9;}
	.st55{fill:#3965AC;}
	.st56{fill:#70C535;}
	.st57{fill:#4B8325;}
	.st58{fill:#5DA22C;}
	.st59{fill:#7DBAE7;}
	.st60{fill:#75ACCE;}
	.st61{fill:#6F589D;}
	.st62{fill:#8C75AF;}
	.st63{fill:#55428F;}
	.st64{fill:#362F82;}
	.st65{fill:#BBBBBB;}
	.st66{fill:#EDEDED;}
	.st67{fill:#F7EA37;stroke:#F9EB3B;stroke-miterlimit:10;}
	.st68{fill:#575959;}
	.st69{fill:#F9EB3B;}
	.st70{fill:#D50000;}
	.st71{fill:#C00C1A;}
	.st72{fill:#74ADD4;}
	.st73{fill:#99BF6B;}
	.st74{fill:#B4B7B7;}
	.st75{fill:#DD5120;}
	.st76{fill:#EEEEEE;}
	.st77{fill:#5B3918;}
	.st78{fill:#7A481E;}
	.st79{fill:#4E2525;}
	.st80{fill:#9E4545;}
	.st81{fill:#595959;}
	.st82{fill:#740E0E;}
	.st83{fill:#D5806E;}
	.st84{fill:#982931;}
	.st85{fill:#444343;}
	.st86{fill:#31588B;}
	.st87{fill:#6F83AD;}
	.st88{fill:#426498;}
	.st89{fill:#EDC82F;}
	.st90{fill:#E8D5A5;}
	.st91{fill:#F8E9A0;}
	.st92{fill:#898D8F;}
	.st93{fill:#D4C6C6;}
	.st94{fill:#AAAAAA;}
	.st95{opacity:0.5;fill:#212121;}
	.st96{fill:#212121;}
	.st97{opacity:0.5;fill:#7CB045;}
	.st98{opacity:0.5;fill:#4377BD;}
	.st99{fill:#4377BD;}
	.st100{fill:url(#SVGID_14_);}
	.st101{fill:url(#SVGID_15_);}
	.st102{fill:url(#SVGID_16_);}
	.st103{fill:url(#SVGID_17_);}
	.st104{fill:url(#SVGID_18_);}
	.st105{fill:#8C0000;}
	.st106{clip-path:url(#SVGID_20_);}
	.st107{clip-path:url(#SVGID_23_);fill:url(#SVGID_24_);}
	.st108{fill:url(#SVGID_25_);}
	.st109{fill:url(#SVGID_26_);}
</style>
<g>
	<path class="st5" d="M78.1,90.1H21.9c-6.6,0-12-5.4-12-12V21.9c0-6.6,5.4-12,12-12h56.2c6.6,0,12,5.4,12,12v56.2
		C90.1,84.7,84.7,90.1,78.1,90.1z"/>
	<g>
		<g id="XMLID_254_">
			<g>
				<polygon class="st82" points="44.5,33.2 44.5,32.2 43.4,32.2 43.4,33.2 43.4,34.3 43.4,35.3 43.4,36.3 43.4,37.4 43.4,38.4 
					43.4,39.4 43.4,40.5 43.4,41.5 43.4,42.5 43.4,43.5 43.4,44.6 43.4,45.6 44.5,45.6 44.5,44.6 45.5,44.6 45.5,43.5 45.5,42.5 
					45.5,41.5 45.5,40.5 45.5,39.4 45.5,38.4 45.5,37.4 45.5,36.3 45.5,35.3 45.5,34.3 45.5,33.2 				"/>
				<polygon class="st83" points="42.4,32.2 42.4,33.2 42.4,34.3 42.4,35.3 42.4,36.3 42.4,37.4 42.4,38.4 42.4,39.4 42.4,40.5 
					42.4,41.5 42.4,42.5 42.4,43.5 42.4,44.6 42.4,45.6 43.4,45.6 43.4,44.6 43.4,43.5 43.4,42.5 43.4,41.5 43.4,40.5 43.4,39.4 
					43.4,38.4 43.4,37.4 43.4,36.3 43.4,35.3 43.4,34.3 43.4,33.2 43.4,32.2 				"/>
				<polyline class="st84" points="42.4,32.2 42.4,32.2 42.4,31.2 42.4,30.1 42.4,29.1 42.4,28.1 42.4,27 41.4,27 41.4,26 41.4,25 
					40.4,25 40.4,24 39.3,24 38.3,24 38.3,25 38.3,26 39.3,26 39.3,27 39.3,28.1 40.3,28.1 40.3,32.2 41.4,32.2 42.1,32.2 
					42.1,33.2 42.1,34.3 42.1,35.3 42.1,36.3 42.1,37.4 42.1,38.4 42.1,39.4 42.1,40.5 42.1,41.5 42.1,42.5 42.1,43.5 42.1,44.6 
					42.1,45.6 42.4,45.6 42.4,44.6 42.4,43.5 42.4,42.5 42.4,41.5 42.4,40.5 42.4,39.4 42.4,38.4 42.4,37.4 42.4,36.3 42.4,35.3 
					42.4,34.3 42.4,33.2 42.4,32.2 				"/>
				<polygon class="st85" points="38.3,22.9 37.3,22.9 37.3,21.9 36.2,21.9 35.2,21.9 34.2,21.9 33.1,21.9 32.1,21.9 31.1,21.9 
					30,21.9 29,21.9 28,21.9 26.9,21.9 25.9,21.9 24.9,21.9 23.9,21.9 23.9,22.9 22.8,22.9 21.8,22.9 21.8,24 22.8,24 22.8,25 
					23.9,25 24.9,25 24.9,24 25.9,24 26.9,24 28,24 29,24 30,24 31.1,24 32.1,24 33.1,24 34.2,24 35.2,24 36.2,24 36.2,25 37.3,25 
					38.3,25 38.3,24 39.3,24 39.3,22.9 				"/>
				<polyline class="st84" points="18.7,32.2 18.7,31.2 18.7,30.1 18.7,29.1 18.7,28.1 18.7,27 19.7,27 19.7,26 19.7,25 20.8,25 
					20.8,24 21.8,24 22.8,24 22.8,25 22.8,26 21.8,26 21.8,27 21.8,28.1 20.8,28.1 20.8,32.2 19.7,32.2 19,32.2 19,33.2 19,34.3 
					19,35.3 19,36.3 19,37.4 19,38.4 19,39.4 19,40.5 19,41.5 19,42.5 19,43.5 19,44.6 19,45.6 18.7,45.6 18.7,44.6 18.7,43.5 
					18.7,42.5 18.7,41.5 18.7,40.5 18.7,39.4 18.7,38.4 18.7,37.4 18.7,36.3 18.7,35.3 18.7,34.3 18.7,33.2 18.7,32.2 18.7,32.2 
									"/>
				<polygon class="st83" points="17.7,32.2 17.7,33.2 17.7,34.3 17.7,35.3 17.7,36.3 17.7,37.4 17.7,38.4 17.7,39.4 17.7,40.5 
					17.7,41.5 17.7,42.5 17.7,43.5 17.7,44.6 17.7,45.6 18.7,45.6 18.7,44.6 18.7,43.5 18.7,42.5 18.7,41.5 18.7,40.5 18.7,39.4 
					18.7,38.4 18.7,37.4 18.7,36.3 18.7,35.3 18.7,34.3 18.7,33.2 18.7,32.2 				"/>
				<polygon class="st82" points="16.6,32.2 16.6,33.2 15.6,33.2 15.6,34.3 15.6,35.3 15.6,36.3 15.6,37.4 15.6,38.4 15.6,39.4 
					15.6,40.5 15.6,41.5 15.6,42.5 15.6,43.5 15.6,44.6 16.6,44.6 16.6,45.6 17.7,45.6 17.7,44.6 17.7,43.5 17.7,42.5 17.7,41.5 
					17.7,40.5 17.7,39.4 17.7,38.4 17.7,37.4 17.7,36.3 17.7,35.3 17.7,34.3 17.7,33.2 17.7,32.2 				"/>
			</g>
		</g>
	</g>
	<g>
		<g id="XMLID_253_">
			<g>
				<polygon class="st86" points="83.8,33.2 83.8,32.2 82.7,32.2 82.7,33.2 82.7,34.3 82.7,35.3 82.7,36.3 82.7,37.4 82.7,38.4 
					82.7,39.4 82.7,40.5 82.7,41.5 82.7,42.5 82.7,43.5 82.7,44.6 82.7,45.6 83.8,45.6 83.8,44.6 84.8,44.6 84.8,43.5 84.8,42.5 
					84.8,41.5 84.8,40.5 84.8,39.4 84.8,38.4 84.8,37.4 84.8,36.3 84.8,35.3 84.8,34.3 84.8,33.2 				"/>
				<polygon class="st87" points="81.7,32.2 81.7,33.2 81.7,34.3 81.7,35.3 81.7,36.3 81.7,37.4 81.7,38.4 81.7,39.4 81.7,40.5 
					81.7,41.5 81.7,42.5 81.7,43.5 81.7,44.6 81.7,45.6 82.7,45.6 82.7,44.6 82.7,43.5 82.7,42.5 82.7,41.5 82.7,40.5 82.7,39.4 
					82.7,38.4 82.7,37.4 82.7,36.3 82.7,35.3 82.7,34.3 82.7,33.2 82.7,32.2 				"/>
				<polyline class="st88" points="81.7,32.2 81.7,32.2 81.7,31.2 81.7,30.1 81.7,29.1 81.7,28.1 81.7,27 80.7,27 80.7,26 80.7,25 
					79.6,25 79.6,24 78.6,24 77.6,24 77.6,25 77.6,26 78.6,26 78.6,27 78.6,28.1 79.6,28.1 79.6,32.2 80.7,32.2 81.3,32.2 
					81.3,33.2 81.3,34.3 81.3,35.3 81.3,36.3 81.3,37.4 81.3,38.4 81.3,39.4 81.3,40.5 81.3,41.5 81.3,42.5 81.3,43.5 81.3,44.6 
					81.3,45.6 81.7,45.6 81.7,44.6 81.7,43.5 81.7,42.5 81.7,41.5 81.7,40.5 81.7,39.4 81.7,38.4 81.7,37.4 81.7,36.3 81.7,35.3 
					81.7,34.3 81.7,33.2 81.7,32.2 				"/>
				<polygon class="st85" points="77.6,22.9 76.5,22.9 76.5,21.9 75.5,21.9 74.5,21.9 73.4,21.9 72.4,21.9 71.4,21.9 70.3,21.9 
					69.3,21.9 68.3,21.9 67.3,21.9 66.2,21.9 65.2,21.9 64.2,21.9 63.1,21.9 63.1,22.9 62.1,22.9 61.1,22.9 61.1,24 62.1,24 
					62.1,25 63.1,25 64.2,25 64.2,24 65.2,24 66.2,24 67.3,24 68.3,24 69.3,24 70.3,24 71.4,24 72.4,24 73.4,24 74.5,24 75.5,24 
					75.5,25 76.5,25 77.6,25 77.6,24 78.6,24 78.6,22.9 				"/>
				<polyline class="st88" points="58,32.2 58,31.2 58,30.1 58,29.1 58,28.1 58,27 59,27 59,26 59,25 60,25 60,24 61.1,24 62.1,24 
					62.1,25 62.1,26 61.1,26 61.1,27 61.1,28.1 60.1,28.1 60.1,32.2 59,32.2 58.3,32.2 58.3,33.2 58.3,34.3 58.3,35.3 58.3,36.3 
					58.3,37.4 58.3,38.4 58.3,39.4 58.3,40.5 58.3,41.5 58.3,42.5 58.3,43.5 58.3,44.6 58.3,45.6 58,45.6 58,44.6 58,43.5 58,42.5 
					58,41.5 58,40.5 58,39.4 58,38.4 58,37.4 58,36.3 58,35.3 58,34.3 58,33.2 58,32.2 58,32.2 				"/>
				<polygon class="st87" points="56.9,32.2 56.9,33.2 56.9,34.3 56.9,35.3 56.9,36.3 56.9,37.4 56.9,38.4 56.9,39.4 56.9,40.5 
					56.9,41.5 56.9,42.5 56.9,43.5 56.9,44.6 56.9,45.6 58,45.6 58,44.6 58,43.5 58,42.5 58,41.5 58,40.5 58,39.4 58,38.4 58,37.4 
					58,36.3 58,35.3 58,34.3 58,33.2 58,32.2 				"/>
				<polygon class="st86" points="55.9,32.2 55.9,33.2 54.9,33.2 54.9,34.3 54.9,35.3 54.9,36.3 54.9,37.4 54.9,38.4 54.9,39.4 
					54.9,40.5 54.9,41.5 54.9,42.5 54.9,43.5 54.9,44.6 55.9,44.6 55.9,45.6 56.9,45.6 56.9,44.6 56.9,43.5 56.9,42.5 56.9,41.5 
					56.9,40.5 56.9,39.4 56.9,38.4 56.9,37.4 56.9,36.3 56.9,35.3 56.9,34.3 56.9,33.2 56.9,32.2 				"/>
			</g>
		</g>
	</g>
	<g>
		<g id="XMLID_252_">
			<g>
				<polygon class="st89" points="44.5,63.9 44.5,62.9 43.4,62.9 43.4,63.9 43.4,65 43.4,66 43.4,67 43.4,68.1 43.4,69.1 43.4,70.1 
					43.4,71.1 43.4,72.2 43.4,73.2 43.4,74.2 43.4,75.3 43.4,76.3 44.5,76.3 44.5,75.3 45.5,75.3 45.5,74.2 45.5,73.2 45.5,72.2 
					45.5,71.1 45.5,70.1 45.5,69.1 45.5,68.1 45.5,67 45.5,66 45.5,65 45.5,63.9 				"/>
				<polygon class="st90" points="42.4,62.9 42.4,63.9 42.4,65 42.4,66 42.4,67 42.4,68.1 42.4,69.1 42.4,70.1 42.4,71.1 42.4,72.2 
					42.4,73.2 42.4,74.2 42.4,75.3 42.4,76.3 43.4,76.3 43.4,75.3 43.4,74.2 43.4,73.2 43.4,72.2 43.4,71.1 43.4,70.1 43.4,69.1 
					43.4,68.1 43.4,67 43.4,66 43.4,65 43.4,63.9 43.4,62.9 				"/>
				<polyline class="st91" points="42.4,62.9 42.4,62.9 42.4,61.9 42.4,60.8 42.4,59.8 42.4,58.8 42.4,57.7 41.4,57.7 41.4,56.7 
					41.4,55.7 40.4,55.7 40.4,54.6 39.3,54.6 38.3,54.6 38.3,55.7 38.3,56.7 39.3,56.7 39.3,57.7 39.3,58.8 40.3,58.8 40.3,62.9 
					41.4,62.9 42.1,62.9 42.1,63.9 42.1,65 42.1,66 42.1,67 42.1,68.1 42.1,69.1 42.1,70.1 42.1,71.1 42.1,72.2 42.1,73.2 
					42.1,74.2 42.1,75.3 42.1,76.3 42.4,76.3 42.4,75.3 42.4,74.2 42.4,73.2 42.4,72.2 42.4,71.1 42.4,70.1 42.4,69.1 42.4,68.1 
					42.4,67 42.4,66 42.4,65 42.4,63.9 42.4,62.9 				"/>
				<polygon class="st85" points="38.3,53.6 37.3,53.6 37.3,52.6 36.2,52.6 35.2,52.6 34.2,52.6 33.1,52.6 32.1,52.6 31.1,52.6 
					30,52.6 29,52.6 28,52.6 26.9,52.6 25.9,52.6 24.9,52.6 23.9,52.6 23.9,53.6 22.8,53.6 21.8,53.6 21.8,54.6 22.8,54.6 
					22.8,55.7 23.9,55.7 24.9,55.7 24.9,54.6 25.9,54.6 26.9,54.6 28,54.6 29,54.6 30,54.6 31.1,54.6 32.1,54.6 33.1,54.6 
					34.2,54.6 35.2,54.6 36.2,54.6 36.2,55.7 37.3,55.7 38.3,55.7 38.3,54.6 39.3,54.6 39.3,53.6 				"/>
				<polyline class="st91" points="18.7,62.9 18.7,61.9 18.7,60.8 18.7,59.8 18.7,58.8 18.7,57.7 19.7,57.7 19.7,56.7 19.7,55.7 
					20.8,55.7 20.8,54.6 21.8,54.6 22.8,54.6 22.8,55.7 22.8,56.7 21.8,56.7 21.8,57.7 21.8,58.8 20.8,58.8 20.8,62.9 19.7,62.9 
					19,62.9 19,63.9 19,65 19,66 19,67 19,68.1 19,69.1 19,70.1 19,71.1 19,72.2 19,73.2 19,74.2 19,75.3 19,76.3 18.7,76.3 
					18.7,75.3 18.7,74.2 18.7,73.2 18.7,72.2 18.7,71.1 18.7,70.1 18.7,69.1 18.7,68.1 18.7,67 18.7,66 18.7,65 18.7,63.9 
					18.7,62.9 18.7,62.9 				"/>
				<polygon class="st90" points="17.7,62.9 17.7,63.9 17.7,65 17.7,66 17.7,67 17.7,68.1 17.7,69.1 17.7,70.1 17.7,71.1 17.7,72.2 
					17.7,73.2 17.7,74.2 17.7,75.3 17.7,76.3 18.7,76.3 18.7,75.3 18.7,74.2 18.7,73.2 18.7,72.2 18.7,71.1 18.7,70.1 18.7,69.1 
					18.7,68.1 18.7,67 18.7,66 18.7,65 18.7,63.9 18.7,62.9 				"/>
				<polygon class="st89" points="16.6,62.9 16.6,63.9 15.6,63.9 15.6,65 15.6,66 15.6,67 15.6,68.1 15.6,69.1 15.6,70.1 15.6,71.1 
					15.6,72.2 15.6,73.2 15.6,74.2 15.6,75.3 16.6,75.3 16.6,76.3 17.7,76.3 17.7,75.3 17.7,74.2 17.7,73.2 17.7,72.2 17.7,71.1 
					17.7,70.1 17.7,69.1 17.7,68.1 17.7,67 17.7,66 17.7,65 17.7,63.9 17.7,62.9 				"/>
			</g>
		</g>
	</g>
	<g>
		<g id="XMLID_251_">
			<g>
				<polygon class="st92" points="83.8,65 83.8,63.9 82.7,63.9 82.7,65 82.7,66 82.7,67 82.7,68.1 82.7,69.1 82.7,70.1 82.7,71.1 
					82.7,72.2 82.7,73.2 82.7,74.2 82.7,75.3 82.7,76.3 82.7,77.3 83.8,77.3 83.8,76.3 84.8,76.3 84.8,75.3 84.8,74.2 84.8,73.2 
					84.8,72.2 84.8,71.1 84.8,70.1 84.8,69.1 84.8,68.1 84.8,67 84.8,66 84.8,65 				"/>
				<polygon class="st93" points="81.7,63.9 81.7,65 81.7,66 81.7,67 81.7,68.1 81.7,69.1 81.7,70.1 81.7,71.1 81.7,72.2 81.7,73.2 
					81.7,74.2 81.7,75.3 81.7,76.3 81.7,77.3 82.7,77.3 82.7,76.3 82.7,75.3 82.7,74.2 82.7,73.2 82.7,72.2 82.7,71.1 82.7,70.1 
					82.7,69.1 82.7,68.1 82.7,67 82.7,66 82.7,65 82.7,63.9 				"/>
				<polyline class="st94" points="81.7,63.9 81.7,63.9 81.7,62.9 81.7,61.9 81.7,60.8 81.7,59.8 81.7,58.8 80.7,58.8 80.7,57.7 
					80.7,56.7 79.6,56.7 79.6,55.7 78.6,55.7 77.6,55.7 77.6,56.7 77.6,57.7 78.6,57.7 78.6,58.8 78.6,59.8 79.6,59.8 79.6,63.9 
					80.7,63.9 81.3,63.9 81.3,65 81.3,66 81.3,67 81.3,68.1 81.3,69.1 81.3,70.1 81.3,71.1 81.3,72.2 81.3,73.2 81.3,74.2 
					81.3,75.3 81.3,76.3 81.3,77.3 81.7,77.3 81.7,76.3 81.7,75.3 81.7,74.2 81.7,73.2 81.7,72.2 81.7,71.1 81.7,70.1 81.7,69.1 
					81.7,68.1 81.7,67 81.7,66 81.7,65 81.7,63.9 				"/>
				<polygon class="st85" points="77.6,54.6 76.5,54.6 76.5,53.6 75.5,53.6 74.5,53.6 73.4,53.6 72.4,53.6 71.4,53.6 70.3,53.6 
					69.3,53.6 68.3,53.6 67.3,53.6 66.2,53.6 65.2,53.6 64.2,53.6 63.1,53.6 63.1,54.6 62.1,54.6 61.1,54.6 61.1,55.7 62.1,55.7 
					62.1,56.7 63.1,56.7 64.2,56.7 64.2,55.7 65.2,55.7 66.2,55.7 67.3,55.7 68.3,55.7 69.3,55.7 70.3,55.7 71.4,55.7 72.4,55.7 
					73.4,55.7 74.5,55.7 75.5,55.7 75.5,56.7 76.5,56.7 77.6,56.7 77.6,55.7 78.6,55.7 78.6,54.6 				"/>
				<polyline class="st94" points="58,63.9 58,62.9 58,61.9 58,60.8 58,59.8 58,58.8 59,58.8 59,57.7 59,56.7 60,56.7 60,55.7 
					61.1,55.7 62.1,55.7 62.1,56.7 62.1,57.7 61.1,57.7 61.1,58.8 61.1,59.8 60.1,59.8 60.1,63.9 59,63.9 58.3,63.9 58.3,65 
					58.3,66 58.3,67 58.3,68.1 58.3,69.1 58.3,70.1 58.3,71.1 58.3,72.2 58.3,73.2 58.3,74.2 58.3,75.3 58.3,76.3 58.3,77.3 
					58,77.3 58,76.3 58,75.3 58,74.2 58,73.2 58,72.2 58,71.1 58,70.1 58,69.1 58,68.1 58,67 58,66 58,65 58,63.9 58,63.9 				"/>
				<polygon class="st93" points="56.9,63.9 56.9,65 56.9,66 56.9,67 56.9,68.1 56.9,69.1 56.9,70.1 56.9,71.1 56.9,72.2 56.9,73.2 
					56.9,74.2 56.9,75.3 56.9,76.3 56.9,77.3 58,77.3 58,76.3 58,75.3 58,74.2 58,73.2 58,72.2 58,71.1 58,70.1 58,69.1 58,68.1 
					58,67 58,66 58,65 58,63.9 				"/>
				<polygon class="st92" points="55.9,63.9 55.9,65 54.9,65 54.9,66 54.9,67 54.9,68.1 54.9,69.1 54.9,70.1 54.9,71.1 54.9,72.2 
					54.9,73.2 54.9,74.2 54.9,75.3 54.9,76.3 55.9,76.3 55.9,77.3 56.9,77.3 56.9,76.3 56.9,75.3 56.9,74.2 56.9,73.2 56.9,72.2 
					56.9,71.1 56.9,70.1 56.9,69.1 56.9,68.1 56.9,67 56.9,66 56.9,65 56.9,63.9 				"/>
			</g>
		</g>
	</g>
</g>
</svg>
