<?xml version="1.0" encoding="utf-8"?>
<!-- Generator: Adobe Illustrator 25.0.1, SVG Export Plug-In . SVG Version: 6.00 Build 0)  -->
<svg version="1.1" id="Layer_1" xmlns="http://www.w3.org/2000/svg" xmlns:xlink="http://www.w3.org/1999/xlink" x="0px" y="0px"
	 viewBox="0 0 100 100" style="enable-background:new 0 0 100 100;" xml:space="preserve">
<style type="text/css">
	.st0{opacity:0.13;fill:#F1F7FF;}
	.st1{opacity:0.32;fill:#F1F7FF;}
	.st2{opacity:0.58;fill:#F1F7FF;}
	.st3{fill:#FFFFFF;}
	.st4{fill:none;stroke:#FFFFFF;stroke-width:2;stroke-miterlimit:10;}
	.st5{fill:#BDD4EF;}
	.st6{fill:#060606;}
	.st7{fill:#78D23A;}
	.st8{fill:#EFEC3C;}
	.st9{fill:#D5711C;}
	.st10{fill:#C40B18;}
	.st11{fill:#3D52D2;}
	.st12{fill:#632796;}
	.st13{fill:#B50BEB;}
	.st14{fill:url(#SVGID_1_);}
	.st15{fill:url(#SVGID_2_);}
	.st16{fill:url(#SVGID_3_);}
	.st17{fill:url(#SVGID_4_);}
	.st18{fill:url(#SVGID_5_);}
	.st19{fill:#446EB2;}
	.st20{clip-path:url(#SVGID_7_);}
	.st21{fill:#222221;}
	.st22{fill:#F5D835;}
	.st23{clip-path:url(#SVGID_10_);fill:url(#SVGID_11_);}
	.st24{fill:#232222;stroke:#FFFFFF;stroke-width:0.25;stroke-miterlimit:10;}
	.st25{fill-rule:evenodd;clip-rule:evenodd;fill:#D4B5A8;}
	.st26{fill-rule:evenodd;clip-rule:evenodd;fill:#F0D6C8;}
	.st27{fill-rule:evenodd;clip-rule:evenodd;fill:#4E342E;}
	.st28{fill-rule:evenodd;clip-rule:evenodd;fill:#5D4037;}
	.st29{fill-rule:evenodd;clip-rule:evenodd;fill:#8D6E63;}
	.st30{fill-rule:evenodd;clip-rule:evenodd;fill:#BCAAA4;}
	.st31{fill:#C00E1A;}
	.st32{fill:#C94625;}
	.st33{fill:url(#SVGID_12_);}
	.st34{fill:url(#SVGID_13_);}
	.st35{fill:#181814;}
	.st36{fill:#518E45;}
	.st37{fill:#AED581;}
	.st38{fill:#7CB045;}
	.st39{fill:#477E41;}
	.st40{fill:#232322;}
	.st41{fill:#577A39;}
	.st42{fill:#F3F2F3;}
	.st43{fill:#C0101E;}
	.st44{fill:#D05451;}
	.st45{fill:#D37174;}
	.st46{fill:#C62828;}
	.st47{fill:#B71E1E;}
	.st48{fill:#EDE435;}
	.st49{fill:#CC5428;}
	.st50{fill:#E19F3A;}
	.st51{fill:#D5782C;}
	.st52{fill:#487FC2;}
	.st53{fill:#92C7F0;}
	.st54{fill:#599ED9;}
	.st55{fill:#3965AC;}
	.st56{fill:#70C535;}
	.st57{fill:#4B8325;}
	.st58{fill:#5DA22C;}
	.st59{fill:#7DBAE7;}
	.st60{fill:#75ACCE;}
	.st61{fill:#6F589D;}
	.st62{fill:#8C75AF;}
	.st63{fill:#55428F;}
	.st64{fill:#362F82;}
	.st65{fill:#BBBBBB;}
	.st66{fill:#EDEDED;}
	.st67{fill:#F7EA37;stroke:#F9EB3B;stroke-miterlimit:10;}
	.st68{fill:#575959;}
	.st69{fill:#F9EB3B;}
	.st70{fill:#D50000;}
	.st71{fill:#C00C1A;}
	.st72{fill:#74ADD4;}
	.st73{fill:#99BF6B;}
	.st74{fill:#B4B7B7;}
	.st75{fill:#DD5120;}
	.st76{fill:#EEEEEE;}
	.st77{fill:#5B3918;}
	.st78{fill:#7A481E;}
	.st79{fill:#4E2525;}
	.st80{fill:#9E4545;}
	.st81{fill:#595959;}
	.st82{fill:#740E0E;}
	.st83{fill:#D5806E;}
	.st84{fill:#982931;}
	.st85{fill:#444343;}
	.st86{fill:#31588B;}
	.st87{fill:#6F83AD;}
	.st88{fill:#426498;}
	.st89{fill:#EDC82F;}
	.st90{fill:#E8D5A5;}
	.st91{fill:#F8E9A0;}
	.st92{fill:#898D8F;}
	.st93{fill:#D4C6C6;}
	.st94{fill:#AAAAAA;}
	.st95{opacity:0.5;fill:#212121;}
	.st96{fill:#212121;}
	.st97{opacity:0.5;fill:#7CB045;}
	.st98{opacity:0.5;fill:#4377BD;}
	.st99{fill:#4377BD;}
	.st100{fill:url(#SVGID_14_);}
	.st101{fill:url(#SVGID_15_);}
	.st102{fill:url(#SVGID_16_);}
	.st103{fill:url(#SVGID_17_);}
	.st104{fill:url(#SVGID_18_);}
	.st105{fill:#8C0000;}
	.st106{clip-path:url(#SVGID_20_);}
	.st107{clip-path:url(#SVGID_23_);fill:url(#SVGID_24_);}
	.st108{fill:url(#SVGID_25_);}
	.st109{fill:url(#SVGID_26_);}
</style>
<g>
	<path class="st5" d="M77.7,89.7H22.3c-6.6,0-12-5.4-12-12V22.3c0-6.6,5.4-12,12-12h55.4c6.6,0,12,5.4,12,12v55.4
		C89.7,84.3,84.3,89.7,77.7,89.7z"/>
	<g>
		<g id="hat_8_">
			<rect x="81.5" y="58.1" width="2.7" height="1.9"/>
			<polygon class="st44" points="65.2,52.3 65.2,50.4 65.2,48.4 62.5,48.4 62.5,50.4 62.5,52.3 62.5,54.3 65.2,54.3 65.2,56.2 
				68,56.2 68,54.3 68,52.3 			"/>
			<g>
				<polygon class="st45" points="78.8,58.1 76.1,58.1 73.4,58.1 70.7,58.1 68,58.1 65.2,58.1 62.5,58.1 59.8,58.1 57.1,58.1 
					54.4,58.1 51.7,58.1 49,58.1 46.3,58.1 43.6,58.1 40.9,58.1 38.2,58.1 35.5,58.1 35.5,60.1 38.2,60.1 40.9,60.1 43.6,60.1 
					46.3,60.1 49,60.1 51.7,60.1 54.4,60.1 57.1,60.1 59.8,60.1 62.5,60.1 65.2,60.1 68,60.1 70.7,60.1 73.4,60.1 76.1,60.1 
					78.8,60.1 81.5,60.1 81.5,58.1 				"/>
				<polygon class="st45" points="65.2,50.4 65.2,52.3 68,52.3 68,50.4 68,48.4 68,46.5 65.2,46.5 65.2,44.5 65.2,42.6 62.5,42.6 
					62.5,44.5 62.5,46.5 62.5,48.4 65.2,48.4 				"/>
			</g>
			<path class="st46" d="M65.2,40.6h-2.7v-1.9h-2.7h-2.7v-1.9h-2.7h-2.7H49h-2.7h-2.7h-2.7h-2.7v1.9h-2.7h-2.7v1.9H30v1.9v1.9v1.9
				v1.9v1.9v1.9h2.7h2.7h2.7h2.7h2.7h2.7H49v0h-2.7h-2.7h-2.7h-2.7h-2.7h-2.7H30v1.9v1.9v1.9h2.7h2.7h2.7v-1.9h2.7h2.7h2.7H49h2.7
				h2.7h2.7h2.7h2.7h2.7v-1.9h-2.7v-1.9v-1.9h-2.7h-2.7h-2.7h-2.7H49v0h2.7h2.7h2.7h2.7h2.7v-1.9v-1.9v-1.9v-1.9h2.7v1.9v1.9H68
				v-1.9v-1.9v-1.9H65.2z M38.2,42.6h-2.7v0L38.2,42.6L38.2,42.6z"/>
			<g>
				<polygon class="st47" points="35.5,36.8 32.7,36.8 32.7,38.7 35.5,38.7 38.2,38.7 38.2,36.8 				"/>
				<polygon class="st47" points="30,58.1 27.3,58.1 27.3,60.1 30,60.1 32.7,60.1 35.5,60.1 35.5,58.1 32.7,58.1 				"/>
				<polygon class="st47" points="27.3,38.7 27.3,40.6 24.6,40.6 24.6,42.6 24.6,44.5 24.6,46.5 24.6,48.4 24.6,50.4 24.6,52.3 
					24.6,54.3 24.6,56.2 27.3,56.2 30,56.2 30,54.3 30,52.3 30,50.4 30,48.4 30,46.5 30,44.5 30,42.6 30,40.6 32.7,40.6 32.7,38.7 
					30,38.7 				"/>
			</g>
			<g>
				<polygon class="st6" points="81.5,56.2 78.8,56.2 76.1,56.2 73.4,56.2 70.7,56.2 70.7,54.3 70.7,52.3 70.7,50.4 70.7,48.4 
					70.7,46.5 70.7,44.5 70.7,42.6 70.7,40.6 68,40.6 68,42.6 68,44.5 68,46.5 68,48.4 68,50.4 68,52.3 68,54.3 68,56.2 65.2,56.2 
					62.5,56.2 59.8,56.2 57.1,56.2 54.4,56.2 51.7,56.2 49,56.2 46.3,56.2 43.6,56.2 40.9,56.2 38.2,56.2 38.2,58.1 40.9,58.1 
					43.6,58.1 46.3,58.1 49,58.1 51.7,58.1 54.4,58.1 57.1,58.1 59.8,58.1 62.5,58.1 65.2,58.1 68,58.1 70.7,58.1 73.4,58.1 
					76.1,58.1 78.8,58.1 81.5,58.1 84.2,58.1 84.2,56.2 				"/>
				<polygon class="st6" points="78.8,60.1 76.1,60.1 73.4,60.1 70.7,60.1 68,60.1 65.2,60.1 62.5,60.1 59.8,60.1 57.1,60.1 
					54.4,60.1 51.7,60.1 49,60.1 46.3,60.1 43.6,60.1 40.9,60.1 38.2,60.1 38.2,62 40.9,62 43.6,62 46.3,62 49,62 51.7,62 54.4,62 
					57.1,62 59.8,62 62.5,62 65.2,62 68,62 70.7,62 73.4,62 76.1,62 78.8,62 81.5,62 84.2,62 84.2,60.1 81.5,60.1 				"/>
				<polygon class="st6" points="65.2,38.7 65.2,36.8 62.5,36.8 59.8,36.8 59.8,34.8 57.1,34.8 54.4,34.8 54.4,32.9 51.7,32.9 
					49,32.9 46.3,32.9 43.6,32.9 40.9,32.9 38.2,32.9 35.5,32.9 35.5,34.8 32.7,34.8 30,34.8 30,36.8 27.3,36.8 24.6,36.8 
					24.6,38.7 24.6,40.6 27.3,40.6 27.3,38.7 30,38.7 32.7,38.7 32.7,36.8 35.5,36.8 38.2,36.8 40.9,36.8 43.6,36.8 46.3,36.8 
					49,36.8 51.7,36.8 54.4,36.8 57.1,36.8 57.1,38.7 59.8,38.7 62.5,38.7 62.5,40.6 65.2,40.6 68,40.6 68,38.7 				"/>
				<polygon class="st6" points="21.9,42.6 21.9,44.5 21.9,46.5 21.9,48.4 21.9,50.4 21.9,52.3 21.9,54.3 21.9,56.2 21.9,58.1 
					21.9,60.1 24.6,60.1 27.3,60.1 27.3,58.1 30,58.1 30,56.2 27.3,56.2 24.6,56.2 24.6,54.3 24.6,52.3 24.6,50.4 24.6,48.4 
					24.6,46.5 24.6,44.5 24.6,42.6 24.6,40.6 21.9,40.6 				"/>
			</g>
		</g>
		<g>
			<rect id="XMLID_277_" x="38.8" y="44.6" class="st48" width="2.9" height="6"/>
			<rect id="XMLID_276_" x="38.8" y="44.7" class="st48" width="2.9" height="2.7"/>
			<rect id="XMLID_275_" x="44.9" y="44.6" class="st48" width="2.9" height="5.6"/>
			<rect id="XMLID_274_" x="44.9" y="44.7" class="st48" width="2.9" height="2.7"/>
			<rect id="XMLID_273_" x="50.8" y="44.6" class="st48" width="2.9" height="5.6"/>
			<rect id="XMLID_272_" x="50.8" y="44.7" class="st48" width="2.9" height="2.7"/>
			<rect id="XMLID_271_" x="41.9" y="41.8" class="st48" width="2.9" height="2.7"/>
			<rect id="XMLID_270_" x="48" y="41.8" class="st48" width="2.9" height="2.7"/>
		</g>
	</g>
</g>
</svg>
