<?xml version="1.0" encoding="utf-8"?>
<!-- Generator: Adobe Illustrator 25.0.1, SVG Export Plug-In . SVG Version: 6.00 Build 0)  -->
<svg version="1.1" id="Layer_1" xmlns="http://www.w3.org/2000/svg" xmlns:xlink="http://www.w3.org/1999/xlink" x="0px" y="0px"
	 viewBox="0 0 41 46" style="enable-background:new 0 0 41 46;" xml:space="preserve">
<style type="text/css">
	.st0{opacity:0.13;fill:#F1F7FF;}
	.st1{opacity:0.32;fill:#F1F7FF;}
	.st2{opacity:0.58;fill:#F1F7FF;}
	.st3{fill:#FFFFFF;}
	.st4{fill:none;stroke:#FFFFFF;stroke-width:2;stroke-miterlimit:10;}
</style>
<g>
	<path class="st3" d="M32.2,12.3c-2.2-1-4.5-1.7-6.9-2.1c-0.3,0.5-0.6,1.2-0.9,1.8c-2.6-0.4-5.1-0.4-7.7,0c-0.3-0.6-0.6-1.2-0.9-1.8
		c-2.4,0.4-4.7,1.1-6.9,2.2c-4.4,6.5-5.6,12.9-5,19.2c2.6,1.9,5.4,3.4,8.5,4.3c0.7-0.9,1.3-1.9,1.8-2.9c-1-0.4-1.9-0.8-2.9-1.4
		c0.2-0.2,0.5-0.4,0.7-0.5c5.4,2.6,11.6,2.6,17,0c0.2,0.2,0.5,0.4,0.7,0.5c-0.9,0.5-1.9,1-2.9,1.4c0.5,1,1.1,2,1.8,2.9
		c3.1-0.9,6-2.4,8.5-4.3C37.8,24.2,36,17.9,32.2,12.3z M14.9,27.6c-1.7,0-3-1.5-3-3.4s1.3-3.4,3-3.4c1.7,0,3,1.5,3,3.4
		C17.9,26.1,16.6,27.6,14.9,27.6z M26.1,27.6c-1.7,0-3-1.5-3-3.4s1.3-3.4,3-3.4c1.7,0,3,1.5,3,3.4S27.8,27.6,26.1,27.6z"/>
</g>
</svg>
