<?xml version="1.0" encoding="utf-8"?>
<!-- Generator: Adobe Illustrator 25.0.1, SVG Export Plug-In . SVG Version: 6.00 Build 0)  -->
<svg version="1.1" id="Layer_1" xmlns="http://www.w3.org/2000/svg" xmlns:xlink="http://www.w3.org/1999/xlink" x="0px" y="0px"
	 viewBox="0 0 41 46" style="enable-background:new 0 0 41 46;" xml:space="preserve">
<style type="text/css">
	.st0{opacity:0.13;fill:#F1F7FF;}
	.st1{opacity:0.32;fill:#F1F7FF;}
	.st2{opacity:0.58;fill:#F1F7FF;}
	.st3{fill:#FFFFFF;}
	.st4{fill:none;stroke:#FFFFFF;stroke-width:2;stroke-miterlimit:10;}
</style>
<g>
	<path class="st3" d="M7.9,24.8L8,24.7l6-9.4c0.1-0.1,0.3-0.1,0.4,0c1,2.3,1.9,5.1,1.5,6.8c-0.2,0.7-0.7,1.7-1.2,2.6
		c0,0.1-0.1,0.3-0.2,0.4c0,0-0.1,0.1-0.2,0.1H8.1C7.9,25.2,7.8,25,7.9,24.8z"/>
	<path class="st3" d="M34.8,26.6v1.5c0,0.1,0,0.1-0.1,0.2c-0.5,0.2-2.1,0.9-2.7,1.9c-1.7,2.4-3,5.8-5.9,5.8H13.9
		c-4.3,0-7.8-3.5-7.8-7.8v-0.1c0-0.1,0.1-0.2,0.2-0.2h6.8c0.1,0,0.2,0.1,0.2,0.2c0,0.4,0,0.9,0.2,1.3c0.4,0.8,1.3,1.3,2.1,1.3h3.3
		V28h-3.3c-0.2,0-0.3-0.2-0.2-0.3c0,0,0.1-0.1,0.1-0.2c0.3-0.5,0.7-1.1,1.2-1.9c0.3-0.5,0.6-1.1,0.8-1.7c0-0.1,0.1-0.2,0.1-0.3
		c0-0.2,0.1-0.4,0.2-0.5c0-0.1,0.1-0.3,0.1-0.4c0.1-0.5,0.1-1,0.1-1.5c0-0.2,0-0.4,0-0.7c0-0.2,0-0.5,0-0.7c0-0.2,0-0.4-0.1-0.6
		c0-0.3-0.1-0.6-0.2-0.9l0-0.1c0-0.2-0.1-0.4-0.2-0.6c-0.2-0.7-0.4-1.3-0.7-1.9c-0.1-0.2-0.2-0.5-0.3-0.7c-0.1-0.3-0.3-0.7-0.4-0.9
		c0-0.1-0.1-0.2-0.2-0.4c0-0.1-0.1-0.3-0.2-0.4c0-0.1-0.1-0.2-0.1-0.3l-0.4-0.7c0-0.1,0-0.2,0.1-0.2l2.6,0.7l0,0l0,0l0.3,0.1
		l0.4,0.1l0.1,0v-1.5c0-0.7,0.6-1.3,1.3-1.3c0.4,0,0.7,0.1,0.9,0.4c0.2,0.2,0.4,0.6,0.4,0.9v2.2l0.3,0.1c0,0,0,0,0,0
		c0,0,0.1,0.1,0.3,0.2c0.1,0.1,0.2,0.2,0.3,0.3c0.2,0.2,0.6,0.5,0.9,0.7c0.1,0.1,0.2,0.1,0.2,0.2c0.4,0.4,0.9,0.8,1.3,1.3
		c0.1,0.1,0.2,0.3,0.4,0.4c0.1,0.1,0.2,0.3,0.4,0.5c0.1,0.2,0.3,0.4,0.5,0.6c0,0.1,0.1,0.2,0.2,0.3c0.2,0.3,0.3,0.6,0.5,0.8
		c0,0.1,0.1,0.3,0.2,0.4c0.2,0.4,0.3,0.7,0.4,1.2c0,0.1,0,0.2,0,0.2l0,0c0,0.1,0,0.2,0,0.4c0,0.4,0,0.8,0,1.2c0,0.2-0.1,0.3-0.1,0.5
		c0,0.1-0.1,0.3-0.2,0.5c-0.1,0.3-0.3,0.7-0.5,1c0,0.1-0.1,0.2-0.2,0.4c-0.1,0.1-0.2,0.2-0.2,0.4c-0.1,0.1-0.2,0.3-0.3,0.4
		c-0.1,0.1-0.2,0.3-0.3,0.4c-0.1,0.2-0.3,0.4-0.5,0.6c-0.1,0.1-0.2,0.2-0.3,0.3c-0.1,0.1-0.2,0.2-0.3,0.3c-0.1,0.1-0.3,0.3-0.4,0.4
		L23.8,28c0,0-0.1,0-0.1,0h-2v2.6h2.6c0.6,0,1.1-0.2,1.5-0.6c0.1-0.1,0.8-0.7,1.6-1.5c0,0,0,0,0.1,0l7.1-2
		C34.7,26.4,34.8,26.5,34.8,26.6z"/>
</g>
</svg>
