<?xml version="1.0" encoding="utf-8"?>
<!-- Generator: Adobe Illustrator 25.0.1, SVG Export Plug-In . SVG Version: 6.00 Build 0)  -->
<svg version="1.1" id="Layer_1" xmlns="http://www.w3.org/2000/svg" xmlns:xlink="http://www.w3.org/1999/xlink" x="0px" y="0px"
	 viewBox="0 0 100 100" style="enable-background:new 0 0 100 100;" xml:space="preserve">
<style type="text/css">
	.st0{opacity:0.13;fill:#F1F7FF;}
	.st1{opacity:0.32;fill:#F1F7FF;}
	.st2{opacity:0.58;fill:#F1F7FF;}
	.st3{fill:#FFFFFF;}
	.st4{fill:none;stroke:#FFFFFF;stroke-width:2;stroke-miterlimit:10;}
	.st5{fill:#BDD4EF;}
	.st6{fill:#060606;}
	.st7{fill:#78D23A;}
	.st8{fill:#EFEC3C;}
	.st9{fill:#D5711C;}
	.st10{fill:#C40B18;}
	.st11{fill:#3D52D2;}
	.st12{fill:#632796;}
	.st13{fill:#B50BEB;}
	.st14{fill:url(#SVGID_1_);}
	.st15{fill:url(#SVGID_2_);}
	.st16{fill:url(#SVGID_3_);}
	.st17{fill:url(#SVGID_4_);}
	.st18{fill:url(#SVGID_5_);}
	.st19{fill:#446EB2;}
	.st20{clip-path:url(#SVGID_7_);}
	.st21{fill:#222221;}
	.st22{fill:#F5D835;}
	.st23{clip-path:url(#SVGID_10_);fill:url(#SVGID_11_);}
	.st24{fill:#232222;stroke:#FFFFFF;stroke-width:0.25;stroke-miterlimit:10;}
	.st25{fill-rule:evenodd;clip-rule:evenodd;fill:#D4B5A8;}
	.st26{fill-rule:evenodd;clip-rule:evenodd;fill:#F0D6C8;}
	.st27{fill-rule:evenodd;clip-rule:evenodd;fill:#4E342E;}
	.st28{fill-rule:evenodd;clip-rule:evenodd;fill:#5D4037;}
	.st29{fill-rule:evenodd;clip-rule:evenodd;fill:#8D6E63;}
	.st30{fill-rule:evenodd;clip-rule:evenodd;fill:#BCAAA4;}
	.st31{fill:#C00E1A;}
	.st32{fill:#C94625;}
	.st33{fill:url(#SVGID_12_);}
	.st34{fill:url(#SVGID_13_);}
	.st35{fill:#181814;}
	.st36{fill:#518E45;}
	.st37{fill:#AED581;}
	.st38{fill:#7CB045;}
	.st39{fill:#477E41;}
	.st40{fill:#232322;}
	.st41{fill:#577A39;}
	.st42{fill:#F3F2F3;}
	.st43{fill:#C0101E;}
	.st44{fill:#D05451;}
	.st45{fill:#D37174;}
	.st46{fill:#C62828;}
	.st47{fill:#B71E1E;}
	.st48{fill:#EDE435;}
	.st49{fill:#CC5428;}
	.st50{fill:#E19F3A;}
	.st51{fill:#D5782C;}
	.st52{fill:#487FC2;}
	.st53{fill:#92C7F0;}
	.st54{fill:#599ED9;}
	.st55{fill:#3965AC;}
	.st56{fill:#70C535;}
	.st57{fill:#4B8325;}
	.st58{fill:#5DA22C;}
	.st59{fill:#7DBAE7;}
	.st60{fill:#75ACCE;}
	.st61{fill:#6F589D;}
	.st62{fill:#8C75AF;}
	.st63{fill:#55428F;}
	.st64{fill:#362F82;}
	.st65{fill:#BBBBBB;}
	.st66{fill:#EDEDED;}
	.st67{fill:#F7EA37;stroke:#F9EB3B;stroke-miterlimit:10;}
	.st68{fill:#575959;}
	.st69{fill:#F9EB3B;}
	.st70{fill:#D50000;}
	.st71{fill:#C00C1A;}
	.st72{fill:#74ADD4;}
	.st73{fill:#99BF6B;}
	.st74{fill:#B4B7B7;}
	.st75{fill:#DD5120;}
	.st76{fill:#EEEEEE;}
	.st77{fill:#5B3918;}
	.st78{fill:#7A481E;}
	.st79{fill:#4E2525;}
	.st80{fill:#9E4545;}
	.st81{fill:#595959;}
	.st82{fill:#740E0E;}
	.st83{fill:#D5806E;}
	.st84{fill:#982931;}
	.st85{fill:#444343;}
	.st86{fill:#31588B;}
	.st87{fill:#6F83AD;}
	.st88{fill:#426498;}
	.st89{fill:#EDC82F;}
	.st90{fill:#E8D5A5;}
	.st91{fill:#F8E9A0;}
	.st92{fill:#898D8F;}
	.st93{fill:#D4C6C6;}
	.st94{fill:#AAAAAA;}
	.st95{opacity:0.5;fill:#212121;}
	.st96{fill:#212121;}
	.st97{opacity:0.5;fill:#7CB045;}
	.st98{opacity:0.5;fill:#4377BD;}
	.st99{fill:#4377BD;}
	.st100{fill:url(#SVGID_14_);}
	.st101{fill:url(#SVGID_15_);}
	.st102{fill:url(#SVGID_16_);}
	.st103{fill:url(#SVGID_17_);}
	.st104{fill:url(#SVGID_18_);}
	.st105{fill:#8C0000;}
	.st106{clip-path:url(#SVGID_20_);}
	.st107{clip-path:url(#SVGID_23_);fill:url(#SVGID_24_);}
	.st108{fill:url(#SVGID_25_);}
	.st109{fill:url(#SVGID_26_);}
</style>
<g>
	<path class="st5" d="M77.7,89.7H22.3c-6.6,0-12-5.4-12-12V22.3c0-6.6,5.4-12,12-12h55.4c6.6,0,12,5.4,12,12v55.4
		C89.7,84.3,84.3,89.7,77.7,89.7z"/>
	<g id="XMLID_250_">
		<g>
			<polygon class="st95" points="68.9,45.6 67.1,45.6 65.2,45.6 63.4,45.6 61.5,45.6 59.7,45.6 57.8,45.6 56,45.6 54.1,45.6 
				52.3,45.6 52.3,47.5 54.1,47.5 56,47.5 57.8,47.5 59.7,47.5 61.5,47.5 63.4,47.5 65.2,47.5 67.1,47.5 68.9,47.5 70.8,47.5 
				70.8,45.6 			"/>
			<polygon class="st95" points="67.1,53 65.2,53 63.4,53 61.5,53 59.7,53 57.8,53 56,53 54.1,53 54.1,54.8 56,54.8 57.8,54.8 
				59.7,54.8 61.5,54.8 63.4,54.8 65.2,54.8 67.1,54.8 68.9,54.8 70.8,54.8 70.8,53 68.9,53 			"/>
			<polygon class="st95" points="67.1,49.3 65.2,49.3 63.4,49.3 61.5,49.3 59.7,49.3 57.8,49.3 56,49.3 54.1,49.3 52.3,49.3 
				52.3,51.2 54.1,51.2 56,51.2 57.8,51.2 59.7,51.2 61.5,51.2 63.4,51.2 65.2,51.2 67.1,51.2 68.9,51.2 70.8,51.2 70.8,49.3 
				68.9,49.3 			"/>
			<polygon class="st95" points="61.5,56.7 59.7,56.7 57.8,56.7 57.8,58.5 59.7,58.5 61.5,58.5 63.4,58.5 65.2,58.5 65.2,56.7 
				63.4,56.7 			"/>
			<polygon class="st95" points="56,43.8 57.8,43.8 59.7,43.8 61.5,43.8 63.4,43.8 65.2,43.8 67.1,43.8 68.9,43.8 68.9,42 67.1,42 
				65.2,42 63.4,42 61.5,42 59.7,42 57.8,42 56,42 54.1,42 52.3,42 52.3,43.8 54.1,43.8 			"/>
			<polygon class="st95" points="43,49.3 41.2,49.3 39.3,49.3 37.5,49.3 35.6,49.3 33.8,49.3 31.9,49.3 30.1,49.3 28.2,49.3 
				28.2,51.2 30.1,51.2 31.9,51.2 33.8,51.2 35.6,51.2 37.5,51.2 39.3,51.2 41.2,51.2 43,51.2 44.9,51.2 46.7,51.2 46.7,49.3 
				44.9,49.3 			"/>
			<polygon class="st95" points="43,45.6 41.2,45.6 39.3,45.6 37.5,45.6 35.6,45.6 33.8,45.6 31.9,45.6 30.1,45.6 28.2,45.6 
				28.2,47.5 30.1,47.5 31.9,47.5 33.8,47.5 35.6,47.5 37.5,47.5 39.3,47.5 41.2,47.5 43,47.5 44.9,47.5 46.7,47.5 46.7,45.6 
				44.9,45.6 			"/>
			<polygon class="st95" points="43,42 41.2,42 39.3,42 37.5,42 35.6,42 33.8,42 31.9,42 30.1,42 30.1,43.8 31.9,43.8 33.8,43.8 
				35.6,43.8 37.5,43.8 39.3,43.8 41.2,43.8 43,43.8 44.9,43.8 46.7,43.8 46.7,42 44.9,42 			"/>
			<polygon class="st95" points="41.2,53 39.3,53 37.5,53 35.6,53 33.8,53 31.9,53 30.1,53 28.2,53 28.2,54.8 30.1,54.8 31.9,54.8 
				33.8,54.8 35.6,54.8 37.5,54.8 39.3,54.8 41.2,54.8 43,54.8 44.9,54.8 44.9,53 43,53 			"/>
			<polygon class="st95" points="37.5,56.7 35.6,56.7 33.8,56.7 33.8,58.5 35.6,58.5 37.5,58.5 39.3,58.5 41.2,58.5 41.2,56.7 
				39.3,56.7 			"/>
		</g>
		<path class="st96" d="M72.6,43.8V42h-1.9v-1.8h-1.9h-1.9h-1.9h-1.9h-1.9h-1.9h-1.9H56h-1.9h-1.9h-1.9h-1.9h-1.9h-1.9H43h-1.9h-1.9
			h-1.9h-1.9h-1.9h-1.9h-1.9h-1.9V42h-1.9v1.8h-1.9v1.8v1.8v1.8v1.8V53h1.9v1.8v1.8h1.9v1.8h1.9h1.9v1.8h1.9h1.9h1.9h1.9h1.9H43
			v-1.8h1.9v-1.8h1.9v-1.8h1.9V53v-1.8h1.9V53v1.8h1.9v1.8h1.9v1.8H56v1.8h1.9h1.9h1.9h1.9h1.9h1.9v-1.8h1.9h1.9v-1.8h1.9v-1.8V53
			h1.9v-1.8v-1.8v-1.8v-1.8v-1.8H72.6z M41.2,58.5h-1.9h-1.9h-1.9h-1.9v-1.8h1.9h1.9h1.9h1.9V58.5z M44.9,54.8H43h-1.9h-1.9h-1.9
			h-1.9h-1.9h-1.9h-1.9h-1.9V53h1.9h1.9h1.9h1.9h1.9h1.9h1.9H43h1.9V54.8z M46.7,51.2h-1.9H43h-1.9h-1.9h-1.9h-1.9h-1.9h-1.9h-1.9
			h-1.9v-1.8h1.9h1.9h1.9h1.9h1.9h1.9h1.9H43h1.9h1.9V51.2z M46.7,47.5h-1.9H43h-1.9h-1.9h-1.9h-1.9h-1.9h-1.9h-1.9h-1.9v-1.8h1.9
			h1.9h1.9h1.9h1.9h1.9h1.9H43h1.9h1.9V47.5z M46.7,43.8h-1.9H43h-1.9h-1.9h-1.9h-1.9h-1.9h-1.9h-1.9V42h1.9h1.9h1.9h1.9h1.9h1.9H43
			h1.9h1.9V43.8z M65.2,58.5h-1.9h-1.9h-1.9h-1.9v-1.8h1.9h1.9h1.9h1.9V58.5z M70.8,54.8h-1.9h-1.9h-1.9h-1.9h-1.9h-1.9h-1.9H56
			h-1.9V53H56h1.9h1.9h1.9h1.9h1.9h1.9h1.9h1.9V54.8z M70.8,51.2h-1.9h-1.9h-1.9h-1.9h-1.9h-1.9h-1.9H56h-1.9h-1.9v-1.8h1.9H56h1.9
			h1.9h1.9h1.9h1.9h1.9h1.9h1.9V51.2z M70.8,47.5h-1.9h-1.9h-1.9h-1.9h-1.9h-1.9h-1.9H56h-1.9h-1.9v-1.8h1.9H56h1.9h1.9h1.9h1.9h1.9
			v-1.8h-1.9h-1.9h-1.9h-1.9H56h-1.9h-1.9V42h1.9H56h1.9h1.9h1.9h1.9h1.9h1.9h1.9v1.8h-1.9h-1.9v1.8h1.9h1.9h1.9V47.5z"/>
	</g>
	<g id="XMLID_249_">
		<g>
			<polygon class="st97" points="69.3,70.2 67.5,70.2 65.6,70.2 63.7,70.2 61.8,70.2 59.9,70.2 58,70.2 56.1,70.2 54.2,70.2 
				52.3,70.2 52.3,72.1 54.2,72.1 56.1,72.1 58,72.1 59.9,72.1 61.8,72.1 63.7,72.1 65.6,72.1 67.5,72.1 69.3,72.1 71.2,72.1 
				71.2,70.2 			"/>
			<polygon class="st97" points="67.5,77.7 65.6,77.7 63.7,77.7 61.8,77.7 59.9,77.7 58,77.7 56.1,77.7 54.2,77.7 54.2,79.6 
				56.1,79.6 58,79.6 59.9,79.6 61.8,79.6 63.7,79.6 65.6,79.6 67.5,79.6 69.3,79.6 71.2,79.6 71.2,77.7 69.3,77.7 			"/>
			<polygon class="st97" points="67.5,74 65.6,74 63.7,74 61.8,74 59.9,74 58,74 56.1,74 54.2,74 52.3,74 52.3,75.9 54.2,75.9 
				56.1,75.9 58,75.9 59.9,75.9 61.8,75.9 63.7,75.9 65.6,75.9 67.5,75.9 69.3,75.9 71.2,75.9 71.2,74 69.3,74 			"/>
			<polygon class="st97" points="61.8,81.5 59.9,81.5 58,81.5 58,83.4 59.9,83.4 61.8,83.4 63.7,83.4 65.6,83.4 65.6,81.5 
				63.7,81.5 			"/>
			<polygon class="st97" points="56.1,68.3 58,68.3 59.9,68.3 61.8,68.3 63.7,68.3 65.6,68.3 67.5,68.3 69.3,68.3 69.3,66.4 
				67.5,66.4 65.6,66.4 63.7,66.4 61.8,66.4 59.9,66.4 58,66.4 56.1,66.4 54.2,66.4 52.3,66.4 52.3,68.3 54.2,68.3 			"/>
			<polygon class="st97" points="42.9,74 41,74 39.1,74 37.2,74 35.3,74 33.4,74 31.6,74 29.7,74 27.8,74 27.8,75.9 29.7,75.9 
				31.6,75.9 33.4,75.9 35.3,75.9 37.2,75.9 39.1,75.9 41,75.9 42.9,75.9 44.8,75.9 46.7,75.9 46.7,74 44.8,74 			"/>
			<polygon class="st97" points="42.9,70.2 41,70.2 39.1,70.2 37.2,70.2 35.3,70.2 33.4,70.2 31.6,70.2 29.7,70.2 27.8,70.2 
				27.8,72.1 29.7,72.1 31.6,72.1 33.4,72.1 35.3,72.1 37.2,72.1 39.1,72.1 41,72.1 42.9,72.1 44.8,72.1 46.7,72.1 46.7,70.2 
				44.8,70.2 			"/>
			<polygon class="st97" points="42.9,66.4 41,66.4 39.1,66.4 37.2,66.4 35.3,66.4 33.4,66.4 31.6,66.4 29.7,66.4 29.7,68.3 
				31.6,68.3 33.4,68.3 35.3,68.3 37.2,68.3 39.1,68.3 41,68.3 42.9,68.3 44.8,68.3 46.7,68.3 46.7,66.4 44.8,66.4 			"/>
			<polygon class="st97" points="41,77.7 39.1,77.7 37.2,77.7 35.3,77.7 33.4,77.7 31.6,77.7 29.7,77.7 27.8,77.7 27.8,79.6 
				29.7,79.6 31.6,79.6 33.4,79.6 35.3,79.6 37.2,79.6 39.1,79.6 41,79.6 42.9,79.6 44.8,79.6 44.8,77.7 42.9,77.7 			"/>
			<polygon class="st97" points="37.2,81.5 35.3,81.5 33.4,81.5 33.4,83.4 35.3,83.4 37.2,83.4 39.1,83.4 41,83.4 41,81.5 
				39.1,81.5 			"/>
		</g>
		<path class="st38" d="M73.1,68.3v-1.9h-1.9v-1.9h-1.9h-1.9h-1.9h-1.9h-1.9h-1.9H58h-1.9h-1.9h-1.9h-1.9h-1.9h-1.9h-1.9h-1.9H41
			h-1.9h-1.9h-1.9h-1.9h-1.9h-1.9h-1.9v1.9h-1.9v1.9H24v1.9v1.9V74v1.9v1.9h1.9v1.9v1.9h1.9v1.9h1.9h1.9v1.9h1.9h1.9h1.9h1.9H41h1.9
			v-1.9h1.9v-1.9h1.9v-1.9h1.9v-1.9v-1.9h1.9v1.9v1.9h1.9v1.9h1.9v1.9h1.9v1.9H58h1.9h1.9h1.9h1.9h1.9v-1.9h1.9h1.9v-1.9h1.9v-1.9
			v-1.9H75v-1.9V74v-1.9v-1.9v-1.9H73.1z M41,83.4h-1.9h-1.9h-1.9h-1.9v-1.9h1.9h1.9h1.9H41V83.4z M44.8,79.6h-1.9H41h-1.9h-1.9
			h-1.9h-1.9h-1.9h-1.9h-1.9v-1.9h1.9h1.9h1.9h1.9h1.9h1.9H41h1.9h1.9V79.6z M46.7,75.9h-1.9h-1.9H41h-1.9h-1.9h-1.9h-1.9h-1.9h-1.9
			h-1.9V74h1.9h1.9h1.9h1.9h1.9h1.9H41h1.9h1.9h1.9V75.9z M46.7,72.1h-1.9h-1.9H41h-1.9h-1.9h-1.9h-1.9h-1.9h-1.9h-1.9v-1.9h1.9h1.9
			h1.9h1.9h1.9h1.9H41h1.9h1.9h1.9V72.1z M46.7,68.3h-1.9h-1.9H41h-1.9h-1.9h-1.9h-1.9h-1.9h-1.9v-1.9h1.9h1.9h1.9h1.9h1.9H41h1.9
			h1.9h1.9V68.3z M65.6,83.4h-1.9h-1.9h-1.9H58v-1.9h1.9h1.9h1.9h1.9V83.4z M71.2,79.6h-1.9h-1.9h-1.9h-1.9h-1.9h-1.9H58h-1.9h-1.9
			v-1.9h1.9H58h1.9h1.9h1.9h1.9h1.9h1.9h1.9V79.6z M71.2,75.9h-1.9h-1.9h-1.9h-1.9h-1.9h-1.9H58h-1.9h-1.9h-1.9V74h1.9h1.9H58h1.9
			h1.9h1.9h1.9h1.9h1.9h1.9V75.9z M71.2,72.1h-1.9h-1.9h-1.9h-1.9h-1.9h-1.9H58h-1.9h-1.9h-1.9v-1.9h1.9h1.9H58h1.9h1.9h1.9h1.9
			v-1.9h-1.9h-1.9h-1.9H58h-1.9h-1.9h-1.9v-1.9h1.9h1.9H58h1.9h1.9h1.9h1.9h1.9h1.9v1.9h-1.9h-1.9v1.9h1.9h1.9h1.9V72.1z"/>
	</g>
	<g id="XMLID_248_">
		<g>
			<polygon class="st98" points="69.6,20.6 67.7,20.6 65.9,20.6 64,20.6 62.1,20.6 60.3,20.6 58.4,20.6 56.5,20.6 54.7,20.6 
				52.8,20.6 52.8,22.4 54.7,22.4 56.5,22.4 58.4,22.4 60.3,22.4 62.1,22.4 64,22.4 65.9,22.4 67.7,22.4 69.6,22.4 71.5,22.4 
				71.5,20.6 			"/>
			<polygon class="st98" points="67.7,28 65.9,28 64,28 62.1,28 60.3,28 58.4,28 56.5,28 54.7,28 54.7,29.9 56.5,29.9 58.4,29.9 
				60.3,29.9 62.1,29.9 64,29.9 65.9,29.9 67.7,29.9 69.6,29.9 71.5,29.9 71.5,28 69.6,28 			"/>
			<polygon class="st98" points="67.7,24.3 65.9,24.3 64,24.3 62.1,24.3 60.3,24.3 58.4,24.3 56.5,24.3 54.7,24.3 52.8,24.3 
				52.8,26.2 54.7,26.2 56.5,26.2 58.4,26.2 60.3,26.2 62.1,26.2 64,26.2 65.9,26.2 67.7,26.2 69.6,26.2 71.5,26.2 71.5,24.3 
				69.6,24.3 			"/>
			<polygon class="st98" points="62.1,31.8 60.3,31.8 58.4,31.8 58.4,33.6 60.3,33.6 62.1,33.6 64,33.6 65.9,33.6 65.9,31.8 
				64,31.8 			"/>
			<polygon class="st98" points="56.5,18.7 58.4,18.7 60.3,18.7 62.1,18.7 64,18.7 65.9,18.7 67.7,18.7 69.6,18.7 69.6,16.9 
				67.7,16.9 65.9,16.9 64,16.9 62.1,16.9 60.3,16.9 58.4,16.9 56.5,16.9 54.7,16.9 52.8,16.9 52.8,18.7 54.7,18.7 			"/>
			<polygon class="st98" points="43.5,24.3 41.6,24.3 39.7,24.3 37.9,24.3 36,24.3 34.1,24.3 32.3,24.3 30.4,24.3 28.5,24.3 
				28.5,26.2 30.4,26.2 32.3,26.2 34.1,26.2 36,26.2 37.9,26.2 39.7,26.2 41.6,26.2 43.5,26.2 45.3,26.2 47.2,26.2 47.2,24.3 
				45.3,24.3 			"/>
			<polygon class="st98" points="43.5,20.6 41.6,20.6 39.7,20.6 37.9,20.6 36,20.6 34.1,20.6 32.3,20.6 30.4,20.6 28.5,20.6 
				28.5,22.4 30.4,22.4 32.3,22.4 34.1,22.4 36,22.4 37.9,22.4 39.7,22.4 41.6,22.4 43.5,22.4 45.3,22.4 47.2,22.4 47.2,20.6 
				45.3,20.6 			"/>
			<polygon class="st98" points="43.5,16.9 41.6,16.9 39.7,16.9 37.9,16.9 36,16.9 34.1,16.9 32.3,16.9 30.4,16.9 30.4,18.7 
				32.3,18.7 34.1,18.7 36,18.7 37.9,18.7 39.7,18.7 41.6,18.7 43.5,18.7 45.3,18.7 47.2,18.7 47.2,16.9 45.3,16.9 			"/>
			<polygon class="st98" points="41.6,28 39.7,28 37.9,28 36,28 34.1,28 32.3,28 30.4,28 28.5,28 28.5,29.9 30.4,29.9 32.3,29.9 
				34.1,29.9 36,29.9 37.9,29.9 39.7,29.9 41.6,29.9 43.5,29.9 45.3,29.9 45.3,28 43.5,28 			"/>
			<polygon class="st98" points="37.9,31.8 36,31.8 34.1,31.8 34.1,33.6 36,33.6 37.9,33.6 39.7,33.6 41.6,33.6 41.6,31.8 
				39.7,31.8 			"/>
		</g>
		<path class="st99" d="M73.3,18.7v-1.9h-1.9V15h-1.9h-1.9h-1.9H64h-1.9h-1.9h-1.9h-1.9h-1.9h-1.9h-1.9h-1.9h-1.9h-1.9h-1.9h-1.9
			h-1.9h-1.9H36h-1.9h-1.9h-1.9h-1.9v1.9h-1.9v1.9h-1.9v1.9v1.9v1.9v1.9V28h1.9v1.9v1.9h1.9v1.9h1.9h1.9v1.9h1.9H36h1.9h1.9h1.9h1.9
			v-1.9h1.9v-1.9h1.9v-1.9h1.9V28v-1.9h1.9V28v1.9h1.9v1.9h1.9v1.9h1.9v1.9h1.9h1.9h1.9H64h1.9h1.9v-1.9h1.9h1.9v-1.9h1.9v-1.9V28
			h1.9v-1.9v-1.9v-1.9v-1.9v-1.9H73.3z M41.6,33.6h-1.9h-1.9H36h-1.9v-1.9H36h1.9h1.9h1.9V33.6z M45.3,29.9h-1.9h-1.9h-1.9h-1.9H36
			h-1.9h-1.9h-1.9h-1.9V28h1.9h1.9h1.9H36h1.9h1.9h1.9h1.9h1.9V29.9z M47.2,26.2h-1.9h-1.9h-1.9h-1.9h-1.9H36h-1.9h-1.9h-1.9h-1.9
			v-1.9h1.9h1.9h1.9H36h1.9h1.9h1.9h1.9h1.9h1.9V26.2z M47.2,22.4h-1.9h-1.9h-1.9h-1.9h-1.9H36h-1.9h-1.9h-1.9h-1.9v-1.9h1.9h1.9
			h1.9H36h1.9h1.9h1.9h1.9h1.9h1.9V22.4z M47.2,18.7h-1.9h-1.9h-1.9h-1.9h-1.9H36h-1.9h-1.9h-1.9v-1.9h1.9h1.9H36h1.9h1.9h1.9h1.9
			h1.9h1.9V18.7z M65.9,33.6H64h-1.9h-1.9h-1.9v-1.9h1.9h1.9H64h1.9V33.6z M71.5,29.9h-1.9h-1.9h-1.9H64h-1.9h-1.9h-1.9h-1.9h-1.9
			V28h1.9h1.9h1.9h1.9H64h1.9h1.9h1.9h1.9V29.9z M71.5,26.2h-1.9h-1.9h-1.9H64h-1.9h-1.9h-1.9h-1.9h-1.9h-1.9v-1.9h1.9h1.9h1.9h1.9
			h1.9H64h1.9h1.9h1.9h1.9V26.2z M71.5,22.4h-1.9h-1.9h-1.9H64h-1.9h-1.9h-1.9h-1.9h-1.9h-1.9v-1.9h1.9h1.9h1.9h1.9h1.9H64h1.9v-1.9
			H64h-1.9h-1.9h-1.9h-1.9h-1.9h-1.9v-1.9h1.9h1.9h1.9h1.9h1.9H64h1.9h1.9h1.9v1.9h-1.9h-1.9v1.9h1.9h1.9h1.9V22.4z"/>
	</g>
</g>
</svg>
