<?xml version="1.0" encoding="utf-8"?>
<!-- Generator: Adobe Illustrator 25.0.1, SVG Export Plug-In . SVG Version: 6.00 Build 0)  -->
<svg version="1.1" id="Layer_1" xmlns="http://www.w3.org/2000/svg" xmlns:xlink="http://www.w3.org/1999/xlink" x="0px" y="0px"
	 viewBox="0 0 100 100" style="enable-background:new 0 0 100 100;" xml:space="preserve">
<style type="text/css">
	.st0{opacity:0.13;fill:#F1F7FF;}
	.st1{opacity:0.32;fill:#F1F7FF;}
	.st2{opacity:0.58;fill:#F1F7FF;}
	.st3{fill:#FFFFFF;}
	.st4{fill:none;stroke:#FFFFFF;stroke-width:2;stroke-miterlimit:10;}
	.st5{fill:#BDD4EF;}
	.st6{fill:#060606;}
	.st7{fill:#78D23A;}
	.st8{fill:#EFEC3C;}
	.st9{fill:#D5711C;}
	.st10{fill:#C40B18;}
	.st11{fill:#3D52D2;}
	.st12{fill:#632796;}
	.st13{fill:#B50BEB;}
	.st14{fill:url(#SVGID_1_);}
	.st15{fill:url(#SVGID_2_);}
	.st16{fill:url(#SVGID_3_);}
	.st17{fill:url(#SVGID_4_);}
	.st18{fill:url(#SVGID_5_);}
	.st19{fill:#446EB2;}
	.st20{clip-path:url(#SVGID_7_);}
	.st21{fill:#222221;}
	.st22{fill:#F5D835;}
	.st23{clip-path:url(#SVGID_10_);fill:url(#SVGID_11_);}
	.st24{fill:#232222;stroke:#FFFFFF;stroke-width:0.25;stroke-miterlimit:10;}
	.st25{fill-rule:evenodd;clip-rule:evenodd;fill:#D4B5A8;}
	.st26{fill-rule:evenodd;clip-rule:evenodd;fill:#F0D6C8;}
	.st27{fill-rule:evenodd;clip-rule:evenodd;fill:#4E342E;}
	.st28{fill-rule:evenodd;clip-rule:evenodd;fill:#5D4037;}
	.st29{fill-rule:evenodd;clip-rule:evenodd;fill:#8D6E63;}
	.st30{fill-rule:evenodd;clip-rule:evenodd;fill:#BCAAA4;}
	.st31{fill:#C00E1A;}
	.st32{fill:#C94625;}
	.st33{fill:url(#SVGID_12_);}
	.st34{fill:url(#SVGID_13_);}
	.st35{fill:#181814;}
	.st36{fill:#518E45;}
	.st37{fill:#AED581;}
	.st38{fill:#7CB045;}
	.st39{fill:#477E41;}
	.st40{fill:#232322;}
	.st41{fill:#577A39;}
	.st42{fill:#F3F2F3;}
	.st43{fill:#C0101E;}
	.st44{fill:#D05451;}
	.st45{fill:#D37174;}
	.st46{fill:#C62828;}
	.st47{fill:#B71E1E;}
	.st48{fill:#EDE435;}
	.st49{fill:#CC5428;}
	.st50{fill:#E19F3A;}
	.st51{fill:#D5782C;}
	.st52{fill:#487FC2;}
	.st53{fill:#92C7F0;}
	.st54{fill:#599ED9;}
	.st55{fill:#3965AC;}
	.st56{fill:#70C535;}
	.st57{fill:#4B8325;}
	.st58{fill:#5DA22C;}
	.st59{fill:#7DBAE7;}
	.st60{fill:#75ACCE;}
	.st61{fill:#6F589D;}
	.st62{fill:#8C75AF;}
	.st63{fill:#55428F;}
	.st64{fill:#362F82;}
	.st65{fill:#BBBBBB;}
	.st66{fill:#EDEDED;}
	.st67{fill:#F7EA37;stroke:#F9EB3B;stroke-miterlimit:10;}
	.st68{fill:#575959;}
	.st69{fill:#F9EB3B;}
	.st70{fill:#D50000;}
	.st71{fill:#C00C1A;}
	.st72{fill:#74ADD4;}
	.st73{fill:#99BF6B;}
	.st74{fill:#B4B7B7;}
	.st75{fill:#DD5120;}
	.st76{fill:#EEEEEE;}
	.st77{fill:#5B3918;}
	.st78{fill:#7A481E;}
	.st79{fill:#4E2525;}
	.st80{fill:#9E4545;}
	.st81{fill:#595959;}
	.st82{fill:#740E0E;}
	.st83{fill:#D5806E;}
	.st84{fill:#982931;}
	.st85{fill:#444343;}
	.st86{fill:#31588B;}
	.st87{fill:#6F83AD;}
	.st88{fill:#426498;}
	.st89{fill:#EDC82F;}
	.st90{fill:#E8D5A5;}
	.st91{fill:#F8E9A0;}
	.st92{fill:#898D8F;}
	.st93{fill:#D4C6C6;}
	.st94{fill:#AAAAAA;}
	.st95{opacity:0.5;fill:#212121;}
	.st96{fill:#212121;}
	.st97{opacity:0.5;fill:#7CB045;}
	.st98{opacity:0.5;fill:#4377BD;}
	.st99{fill:#4377BD;}
	.st100{fill:url(#SVGID_14_);}
	.st101{fill:url(#SVGID_15_);}
	.st102{fill:url(#SVGID_16_);}
	.st103{fill:url(#SVGID_17_);}
	.st104{fill:url(#SVGID_18_);}
	.st105{fill:#8C0000;}
	.st106{clip-path:url(#SVGID_20_);}
	.st107{clip-path:url(#SVGID_23_);fill:url(#SVGID_24_);}
	.st108{fill:url(#SVGID_25_);}
	.st109{fill:url(#SVGID_26_);}
</style>
<g>
	<path class="st5" d="M77.7,89.7H22.3c-6.6,0-12-5.4-12-12V22.3c0-6.6,5.4-12,12-12h55.4c6.6,0,12,5.4,12,12v55.4
		C89.7,84.3,84.3,89.7,77.7,89.7z"/>
	<g>
		<g>
			<rect x="81.8" y="58.1" width="2.7" height="1.9"/>
			<polygon class="st52" points="65.4,52.3 65.4,50.4 65.4,48.4 62.7,48.4 62.7,50.4 62.7,52.3 62.7,54.3 65.4,54.3 65.4,56.2 
				68.2,56.2 68.2,54.3 68.2,52.3 			"/>
			<g>
				<polygon class="st53" points="79.1,58.1 76.3,58.1 73.6,58.1 70.9,58.1 68.2,58.1 65.4,58.1 62.7,58.1 60,58.1 57.3,58.1 
					54.6,58.1 51.8,58.1 49.1,58.1 46.4,58.1 43.7,58.1 41,58.1 38.2,58.1 35.5,58.1 35.5,60.1 38.2,60.1 41,60.1 43.7,60.1 
					46.4,60.1 49.1,60.1 51.8,60.1 54.6,60.1 57.3,60.1 60,60.1 62.7,60.1 65.4,60.1 68.2,60.1 70.9,60.1 73.6,60.1 76.3,60.1 
					79.1,60.1 81.8,60.1 81.8,58.1 				"/>
				<polygon class="st53" points="65.4,50.4 65.4,52.3 68.2,52.3 68.2,50.4 68.2,48.4 68.2,46.5 65.4,46.5 65.4,44.5 65.4,42.6 
					62.7,42.6 62.7,44.5 62.7,46.5 62.7,48.4 65.4,48.4 				"/>
			</g>
			<path class="st54" d="M65.4,40.6h-2.7v-1.9H60h-2.7v-1.9h-2.7h-2.7h-2.7h-2.7h-2.7H41h-2.7v1.9h-2.7h-2.7v1.9h-2.7v1.9v1.9v1.9
				v1.9v1.9v1.9h2.7h2.7h2.7H41h2.7h2.7h2.7v0h-2.7h-2.7H41h-2.7h-2.7h-2.7h-2.7v1.9v1.9v1.9h2.7h2.7h2.7v-1.9H41h2.7h2.7h2.7h2.7
				h2.7h2.7H60h2.7h2.7v-1.9h-2.7v-1.9v-1.9H60h-2.7h-2.7h-2.7h-2.7v0h2.7h2.7h2.7H60h2.7v-1.9v-1.9v-1.9v-1.9h2.7v1.9v1.9h2.7v-1.9
				v-1.9v-1.9H65.4z M38.2,42.6h-2.7v0L38.2,42.6L38.2,42.6z"/>
			<g>
				<polygon class="st55" points="35.5,36.8 32.8,36.8 32.8,38.7 35.5,38.7 38.2,38.7 38.2,36.8 				"/>
				<polygon class="st55" points="30.1,58.1 27.3,58.1 27.3,60.1 30.1,60.1 32.8,60.1 35.5,60.1 35.5,58.1 32.8,58.1 				"/>
				<polygon class="st55" points="27.3,38.7 27.3,40.6 24.6,40.6 24.6,42.6 24.6,44.5 24.6,46.5 24.6,48.4 24.6,50.4 24.6,52.3 
					24.6,54.3 24.6,56.2 27.3,56.2 30.1,56.2 30.1,54.3 30.1,52.3 30.1,50.4 30.1,48.4 30.1,46.5 30.1,44.5 30.1,42.6 30.1,40.6 
					32.8,40.6 32.8,38.7 30.1,38.7 				"/>
			</g>
			<g>
				<polygon class="st6" points="81.8,56.2 79.1,56.2 76.3,56.2 73.6,56.2 70.9,56.2 70.9,54.3 70.9,52.3 70.9,50.4 70.9,48.4 
					70.9,46.5 70.9,44.5 70.9,42.6 70.9,40.6 68.2,40.6 68.2,42.6 68.2,44.5 68.2,46.5 68.2,48.4 68.2,50.4 68.2,52.3 68.2,54.3 
					68.2,56.2 65.4,56.2 62.7,56.2 60,56.2 57.3,56.2 54.6,56.2 51.8,56.2 49.1,56.2 46.4,56.2 43.7,56.2 41,56.2 38.2,56.2 
					38.2,58.1 41,58.1 43.7,58.1 46.4,58.1 49.1,58.1 51.8,58.1 54.6,58.1 57.3,58.1 60,58.1 62.7,58.1 65.4,58.1 68.2,58.1 
					70.9,58.1 73.6,58.1 76.3,58.1 79.1,58.1 81.8,58.1 84.5,58.1 84.5,56.2 				"/>
				<polygon class="st6" points="79.1,60.1 76.3,60.1 73.6,60.1 70.9,60.1 68.2,60.1 65.4,60.1 62.7,60.1 60,60.1 57.3,60.1 
					54.6,60.1 51.8,60.1 49.1,60.1 46.4,60.1 43.7,60.1 41,60.1 38.2,60.1 38.2,62 41,62 43.7,62 46.4,62 49.1,62 51.8,62 54.6,62 
					57.3,62 60,62 62.7,62 65.4,62 68.2,62 70.9,62 73.6,62 76.3,62 79.1,62 81.8,62 84.5,62 84.5,60.1 81.8,60.1 				"/>
				<polygon class="st6" points="65.4,38.7 65.4,36.8 62.7,36.8 60,36.8 60,34.8 57.3,34.8 54.6,34.8 54.6,32.9 51.8,32.9 
					49.1,32.9 46.4,32.9 43.7,32.9 41,32.9 38.2,32.9 35.5,32.9 35.5,34.8 32.8,34.8 30.1,34.8 30.1,36.8 27.3,36.8 24.6,36.8 
					24.6,38.7 24.6,40.6 27.3,40.6 27.3,38.7 30.1,38.7 32.8,38.7 32.8,36.8 35.5,36.8 38.2,36.8 41,36.8 43.7,36.8 46.4,36.8 
					49.1,36.8 51.8,36.8 54.6,36.8 57.3,36.8 57.3,38.7 60,38.7 62.7,38.7 62.7,40.6 65.4,40.6 68.2,40.6 68.2,38.7 				"/>
				<polygon class="st6" points="21.9,42.6 21.9,44.5 21.9,46.5 21.9,48.4 21.9,50.4 21.9,52.3 21.9,54.3 21.9,56.2 21.9,58.1 
					21.9,60.1 24.6,60.1 27.3,60.1 27.3,58.1 30.1,58.1 30.1,56.2 27.3,56.2 24.6,56.2 24.6,54.3 24.6,52.3 24.6,50.4 24.6,48.4 
					24.6,46.5 24.6,44.5 24.6,42.6 24.6,40.6 21.9,40.6 				"/>
			</g>
		</g>
		<g id="XMLID_269_">
			<rect x="52" y="48.1" width="0.6" height="0.6"/>
			<rect x="51.4" y="48.7" width="0.6" height="0.6"/>
			<rect x="51.4" y="48.1" class="st56" width="0.6" height="0.6"/>
			<rect x="51.4" y="47.6" width="0.6" height="0.6"/>
			<rect x="50.9" y="49.3" width="0.6" height="0.6"/>
			<rect x="50.9" y="47.6" class="st56" width="0.6" height="0.6"/>
			<rect x="50.3" y="49.3" class="st57" width="0.6" height="0.6"/>
			<rect x="50.3" y="47.6" class="st56" width="0.6" height="0.6"/>
			<rect x="50.3" y="45.8" class="st57" width="0.6" height="0.6"/>
			<rect x="50.3" y="45.2" class="st57" width="0.6" height="0.6"/>
			<rect x="50.3" y="44.7" class="st56" width="0.6" height="0.6"/>
			<rect x="49.7" y="49.3" class="st57" width="0.6" height="0.6"/>
			<rect x="49.7" y="47.6" class="st56" width="0.6" height="0.6"/>
			<polygon points="50.9,47 50.9,46.4 50.3,46.4 50.3,47 49.7,47 49.7,47.6 50.3,47.6 50.9,47.6 51.4,47.6 51.4,47 			"/>
			<rect x="49.7" y="46.4" class="st57" width="0.6" height="0.6"/>
			<rect x="49.7" y="44.7" class="st56" width="0.6" height="0.6"/>
			<rect x="49.1" y="49.3" class="st57" width="0.6" height="0.6"/>
			<rect x="49.1" y="47" class="st57" width="0.6" height="0.6"/>
			<rect x="49.1" y="46.4" class="st57" width="0.6" height="0.6"/>
			<rect x="49.1" y="44.7" class="st56" width="0.6" height="0.6"/>
			<polygon points="50.9,44.1 50.3,44.1 49.7,44.1 49.1,44.1 49.1,44.7 49.7,44.7 50.3,44.7 50.9,44.7 50.9,45.2 50.9,45.8 
				50.9,46.4 51.4,46.4 51.4,45.8 51.4,45.2 51.4,44.7 51.4,44.1 			"/>
			<rect x="48.5" y="49.3" class="st57" width="0.6" height="0.6"/>
			<rect x="48.5" y="48.7" class="st57" width="0.6" height="0.6"/>
			<rect x="48.5" y="47" class="st57" width="0.6" height="0.6"/>
			<rect x="48.5" y="45.2" class="st56" width="0.6" height="0.6"/>
			<rect x="48" y="49.3" width="0.6" height="0.6"/>
			<rect x="48" y="48.7" class="st57" width="0.6" height="0.6"/>
			<rect x="47.4" y="50.4" class="st57" width="0.6" height="0.6"/>
			<polygon points="48.5,44.7 48.5,44.1 48.5,43.5 48,43.5 48,44.1 48,44.7 48,45.2 47.4,45.2 47.4,45.8 48,45.8 48.5,45.8 
				48.5,45.2 49.1,45.2 49.1,44.7 			"/>
			<rect x="47.4" y="44.7" class="st56" width="0.6" height="0.6"/>
			<rect x="47.4" y="44.1" class="st56" width="0.6" height="0.6"/>
			<rect x="47.4" y="43.5" class="st56" width="0.6" height="0.6"/>
			<polygon points="47.4,41.8 47.4,42.3 47.4,42.9 47.4,43.5 48,43.5 48,42.9 48,42.3 48,41.8 			"/>
			<polygon points="50.3,49.9 49.7,49.9 49.1,49.9 48.5,49.9 48.5,50.4 48.5,51 48,51 47.4,51 47.4,50.4 46.8,50.4 46.8,51 
				46.8,51.6 46.8,52.2 46.8,52.8 47.4,52.8 47.4,52.2 47.4,51.6 48,51.6 48.5,51.6 49.1,51.6 49.1,51 49.1,50.4 49.7,50.4 
				50.3,50.4 50.9,50.4 50.9,49.9 			"/>
			<rect x="46.8" y="49.9" class="st57" width="0.6" height="0.6"/>
			<rect x="46.8" y="42.3" class="st56" width="0.6" height="0.6"/>
			<rect x="46.8" y="41.8" class="st56" width="0.6" height="0.6"/>
			<rect x="46.8" y="41.2" width="0.6" height="0.6"/>
			<rect x="46.8" y="40.6" width="0.6" height="0.6"/>
			<rect x="46.2" y="52.8" width="0.6" height="0.6"/>
			<rect x="46.2" y="40.6" class="st56" width="0.6" height="0.6"/>
			<rect x="46.2" y="40" width="0.6" height="0.6"/>
			<rect x="45.7" y="49.9" class="st57" width="0.6" height="0.6"/>
			<rect x="45.7" y="45.8" class="st57" width="0.6" height="0.6"/>
			<rect x="45.7" y="45.2" class="st57" width="0.6" height="0.6"/>
			<rect x="45.7" y="42.9" class="st57" width="0.6" height="0.6"/>
			<rect x="45.7" y="42.3" class="st57" width="0.6" height="0.6"/>
			<rect x="45.7" y="41.8" class="st57" width="0.6" height="0.6"/>
			<rect x="45.7" y="41.2" width="0.6" height="0.6"/>
			<rect x="45.7" y="40.6" width="0.6" height="0.6"/>
			<rect x="45.1" y="50.4" class="st57" width="0.6" height="0.6"/>
			<rect x="45.1" y="44.7" class="st57" width="0.6" height="0.6"/>
			<rect x="45.1" y="44.1" class="st57" width="0.6" height="0.6"/>
			<rect x="45.1" y="43.5" class="st57" width="0.6" height="0.6"/>
			<rect x="45.1" y="42.9" width="0.6" height="0.6"/>
			<rect x="45.1" y="42.3" width="0.6" height="0.6"/>
			<rect x="45.1" y="41.8" width="0.6" height="0.6"/>
			<rect x="44.5" y="49.3" width="0.6" height="0.6"/>
			<rect x="44.5" y="48.7" class="st57" width="0.6" height="0.6"/>
			<rect x="43.9" y="49.3" class="st57" width="0.6" height="0.6"/>
			<rect x="43.9" y="48.7" class="st57" width="0.6" height="0.6"/>
			<rect x="43.9" y="47" class="st57" width="0.6" height="0.6"/>
			<rect x="43.9" y="45.2" class="st56" width="0.6" height="0.6"/>
			<polygon points="45.1,45.2 45.1,44.7 45.1,44.1 45.1,43.5 44.5,43.5 44.5,44.1 44.5,44.7 43.9,44.7 43.9,45.2 44.5,45.2 
				44.5,45.8 45.1,45.8 45.7,45.8 45.7,45.2 			"/>
			<rect x="43.3" y="49.3" class="st57" width="0.6" height="0.6"/>
			<rect x="43.3" y="47" class="st57" width="0.6" height="0.6"/>
			<rect x="43.3" y="46.4" class="st57" width="0.6" height="0.6"/>
			<rect x="43.3" y="44.7" class="st56" width="0.6" height="0.6"/>
			<rect x="42.8" y="49.3" class="st57" width="0.6" height="0.6"/>
			<rect x="42.8" y="47.6" class="st56" width="0.6" height="0.6"/>
			<rect x="42.8" y="46.4" class="st57" width="0.6" height="0.6"/>
			<rect x="42.8" y="44.7" class="st56" width="0.6" height="0.6"/>
			<polygon points="45.7,50.4 45.7,51 45.1,51 44.5,51 44.5,50.4 44.5,49.9 43.9,49.9 43.3,49.9 42.8,49.9 42.2,49.9 42.2,50.4 
				42.8,50.4 43.3,50.4 43.9,50.4 43.9,51 43.9,51.6 44.5,51.6 45.1,51.6 45.7,51.6 45.7,52.2 45.7,52.8 46.2,52.8 46.2,52.2 
				46.2,51.6 46.2,51 46.2,50.4 			"/>
			<rect x="42.2" y="49.3" class="st57" width="0.6" height="0.6"/>
			<rect x="42.2" y="47.6" class="st56" width="0.6" height="0.6"/>
			<rect x="42.2" y="45.8" class="st57" width="0.6" height="0.6"/>
			<rect x="42.2" y="45.2" class="st57" width="0.6" height="0.6"/>
			<rect x="42.2" y="44.7" class="st56" width="0.6" height="0.6"/>
			<rect x="41.6" y="49.3" width="0.6" height="0.6"/>
			<polygon class="st58" points="50.9,48.1 50.3,48.1 49.7,48.1 49.7,47.6 49.1,47.6 48.5,47.6 48.5,47 49.1,47 49.1,46.4 
				49.7,46.4 50.3,46.4 50.3,45.8 50.3,45.2 49.7,45.2 49.1,45.2 49.1,45.8 48.5,45.8 48,45.8 47.4,45.8 47.4,45.2 47.4,44.7 
				47.4,44.1 47.4,43.5 47.4,42.9 46.8,42.9 46.8,42.3 46.8,41.8 46.8,41.2 46.2,41.2 46.2,41.8 46.2,42.3 46.2,42.9 46.2,43.5 
				45.7,43.5 45.7,44.1 45.7,44.7 45.7,45.2 46.2,45.2 46.2,45.8 46.2,46.4 45.7,46.4 45.7,45.8 45.1,45.8 44.5,45.8 43.9,45.8 
				43.9,45.2 43.3,45.2 42.8,45.2 42.8,45.8 42.8,46.4 43.3,46.4 43.9,46.4 43.9,47 44.5,47 44.5,47.6 43.9,47.6 43.3,47.6 
				43.3,48.1 42.8,48.1 42.2,48.1 41.6,48.1 41.6,48.7 41.6,49.3 42.2,49.3 42.8,49.3 43.3,49.3 43.9,49.3 43.9,48.7 44.5,48.7 
				45.1,48.7 45.1,49.3 45.1,49.9 44.5,49.9 44.5,50.4 44.5,51 45.1,51 45.1,50.4 45.7,50.4 45.7,49.9 46.2,49.9 46.2,50.4 46.2,51 
				46.2,51.6 46.2,52.2 46.2,52.8 46.8,52.8 46.8,52.2 46.8,51.6 46.8,51 46.8,50.4 46.8,49.9 47.4,49.9 47.4,50.4 48,50.4 48,51 
				48.5,51 48.5,50.4 48.5,49.9 48,49.9 48,49.3 48,48.7 48.5,48.7 49.1,48.7 49.1,49.3 49.7,49.3 50.3,49.3 50.9,49.3 51.4,49.3 
				51.4,48.7 51.4,48.1 			"/>
			<rect x="41.6" y="47.6" class="st56" width="0.6" height="0.6"/>
			<polygon points="42.8,47 42.8,46.4 42.2,46.4 42.2,47 41.6,47 41.6,47.6 42.2,47.6 42.8,47.6 43.3,47.6 43.3,47 			"/>
			<polygon points="43.3,44.1 42.8,44.1 42.2,44.1 41.6,44.1 41.6,44.7 41.6,45.2 41.6,45.8 41.6,46.4 42.2,46.4 42.2,45.8 
				42.2,45.2 42.2,44.7 42.8,44.7 43.3,44.7 43.9,44.7 43.9,44.1 			"/>
			<rect x="41" y="48.7" width="0.6" height="0.6"/>
			<rect x="41" y="48.1" class="st56" width="0.6" height="0.6"/>
			<rect x="41" y="47.6" width="0.6" height="0.6"/>
			<rect x="40.4" y="48.1" width="0.6" height="0.6"/>
		</g>
	</g>
</g>
</svg>
