<?xml version="1.0" encoding="utf-8"?>
<!-- Generator: Adobe Illustrator 25.0.1, SVG Export Plug-In . SVG Version: 6.00 Build 0)  -->
<svg version="1.1" id="Layer_1" xmlns="http://www.w3.org/2000/svg" xmlns:xlink="http://www.w3.org/1999/xlink" x="0px" y="0px"
	 viewBox="0 0 100 100" style="enable-background:new 0 0 100 100;" xml:space="preserve">
<style type="text/css">
	.st0{opacity:0.13;fill:#F1F7FF;}
	.st1{opacity:0.32;fill:#F1F7FF;}
	.st2{opacity:0.58;fill:#F1F7FF;}
	.st3{fill:#FFFFFF;}
	.st4{fill:none;stroke:#FFFFFF;stroke-width:2;stroke-miterlimit:10;}
	.st5{fill:#BDD4EF;}
	.st6{fill:#060606;}
	.st7{fill:#78D23A;}
	.st8{fill:#EFEC3C;}
	.st9{fill:#D5711C;}
	.st10{fill:#C40B18;}
	.st11{fill:#3D52D2;}
	.st12{fill:#632796;}
	.st13{fill:#B50BEB;}
	.st14{fill:url(#SVGID_1_);}
	.st15{fill:url(#SVGID_2_);}
	.st16{fill:url(#SVGID_3_);}
	.st17{fill:url(#SVGID_4_);}
	.st18{fill:url(#SVGID_5_);}
	.st19{fill:#446EB2;}
	.st20{clip-path:url(#SVGID_7_);}
	.st21{fill:#222221;}
	.st22{fill:#F5D835;}
	.st23{clip-path:url(#SVGID_10_);fill:url(#SVGID_11_);}
	.st24{fill:#232222;stroke:#FFFFFF;stroke-width:0.25;stroke-miterlimit:10;}
	.st25{fill-rule:evenodd;clip-rule:evenodd;fill:#D4B5A8;}
	.st26{fill-rule:evenodd;clip-rule:evenodd;fill:#F0D6C8;}
	.st27{fill-rule:evenodd;clip-rule:evenodd;fill:#4E342E;}
	.st28{fill-rule:evenodd;clip-rule:evenodd;fill:#5D4037;}
	.st29{fill-rule:evenodd;clip-rule:evenodd;fill:#8D6E63;}
	.st30{fill-rule:evenodd;clip-rule:evenodd;fill:#BCAAA4;}
	.st31{fill:#C00E1A;}
	.st32{fill:#C94625;}
	.st33{fill:url(#SVGID_12_);}
	.st34{fill:url(#SVGID_13_);}
	.st35{fill:#181814;}
	.st36{fill:#518E45;}
	.st37{fill:#AED581;}
	.st38{fill:#7CB045;}
	.st39{fill:#477E41;}
	.st40{fill:#232322;}
	.st41{fill:#577A39;}
	.st42{fill:#F3F2F3;}
	.st43{fill:#C0101E;}
	.st44{fill:#D05451;}
	.st45{fill:#D37174;}
	.st46{fill:#C62828;}
	.st47{fill:#B71E1E;}
	.st48{fill:#EDE435;}
	.st49{fill:#CC5428;}
	.st50{fill:#E19F3A;}
	.st51{fill:#D5782C;}
	.st52{fill:#487FC2;}
	.st53{fill:#92C7F0;}
	.st54{fill:#599ED9;}
	.st55{fill:#3965AC;}
	.st56{fill:#70C535;}
	.st57{fill:#4B8325;}
	.st58{fill:#5DA22C;}
	.st59{fill:#7DBAE7;}
	.st60{fill:#75ACCE;}
	.st61{fill:#6F589D;}
	.st62{fill:#8C75AF;}
	.st63{fill:#55428F;}
	.st64{fill:#362F82;}
	.st65{fill:#BBBBBB;}
	.st66{fill:#EDEDED;}
	.st67{fill:#F7EA37;stroke:#F9EB3B;stroke-miterlimit:10;}
	.st68{fill:#575959;}
	.st69{fill:#F9EB3B;}
	.st70{fill:#D50000;}
	.st71{fill:#C00C1A;}
	.st72{fill:#74ADD4;}
	.st73{fill:#99BF6B;}
	.st74{fill:#B4B7B7;}
	.st75{fill:#DD5120;}
	.st76{fill:#EEEEEE;}
	.st77{fill:#5B3918;}
	.st78{fill:#7A481E;}
	.st79{fill:#4E2525;}
	.st80{fill:#9E4545;}
	.st81{fill:#595959;}
	.st82{fill:#740E0E;}
	.st83{fill:#D5806E;}
	.st84{fill:#982931;}
	.st85{fill:#444343;}
	.st86{fill:#31588B;}
	.st87{fill:#6F83AD;}
	.st88{fill:#426498;}
	.st89{fill:#EDC82F;}
	.st90{fill:#E8D5A5;}
	.st91{fill:#F8E9A0;}
	.st92{fill:#898D8F;}
	.st93{fill:#D4C6C6;}
	.st94{fill:#AAAAAA;}
	.st95{opacity:0.5;fill:#212121;}
	.st96{fill:#212121;}
	.st97{opacity:0.5;fill:#7CB045;}
	.st98{opacity:0.5;fill:#4377BD;}
	.st99{fill:#4377BD;}
	.st100{fill:url(#SVGID_14_);}
	.st101{fill:url(#SVGID_15_);}
	.st102{fill:url(#SVGID_16_);}
	.st103{fill:url(#SVGID_17_);}
	.st104{fill:url(#SVGID_18_);}
	.st105{fill:#8C0000;}
	.st106{clip-path:url(#SVGID_20_);}
	.st107{clip-path:url(#SVGID_23_);fill:url(#SVGID_24_);}
	.st108{fill:url(#SVGID_25_);}
	.st109{fill:url(#SVGID_26_);}
</style>
<g>
	<path class="st5" d="M77.7,89.7H22.3c-6.6,0-12-5.4-12-12V22.3c0-6.6,5.4-12,12-12h55.4c6.6,0,12,5.4,12,12v55.4
		C89.7,84.3,84.3,89.7,77.7,89.7z"/>
	<g>
		<g>
			<rect x="82.4" y="58.1" width="2.7" height="1.9"/>
			<polygon class="st61" points="66.1,52.3 66.1,50.4 66.1,48.4 63.4,48.4 63.4,50.4 63.4,52.3 63.4,54.3 66.1,54.3 66.1,56.2 
				68.8,56.2 68.8,54.3 68.8,52.3 			"/>
			<g>
				<polygon class="st62" points="79.7,58.1 77,58.1 74.2,58.1 71.5,58.1 68.8,58.1 66.1,58.1 63.4,58.1 60.7,58.1 58,58.1 
					55.3,58.1 52.6,58.1 49.9,58.1 47.1,58.1 44.4,58.1 41.7,58.1 39,58.1 36.3,58.1 36.3,60.1 39,60.1 41.7,60.1 44.4,60.1 
					47.1,60.1 49.9,60.1 52.6,60.1 55.3,60.1 58,60.1 60.7,60.1 63.4,60.1 66.1,60.1 68.8,60.1 71.5,60.1 74.2,60.1 77,60.1 
					79.7,60.1 82.4,60.1 82.4,58.1 				"/>
				<polygon class="st62" points="66.1,50.4 66.1,52.3 68.8,52.3 68.8,50.4 68.8,48.4 68.8,46.5 66.1,46.5 66.1,44.5 66.1,42.6 
					63.4,42.6 63.4,44.5 63.4,46.5 63.4,48.4 66.1,48.4 				"/>
			</g>
			<g>
				<rect x="36.3" y="42.6" class="st63" width="2.7" height="1.9"/>
				<g>
					<rect x="66.1" y="44.5" class="st63" width="2.7" height="1.9"/>
					<rect x="66.1" y="42.6" class="st63" width="2.7" height="1.9"/>
					<rect x="66.1" y="40.6" class="st63" width="2.7" height="1.9"/>
					<rect x="63.4" y="54.3" class="st63" width="2.7" height="1.9"/>
					<rect x="63.4" y="40.6" class="st63" width="2.7" height="1.9"/>
					<rect x="60.7" y="54.3" class="st63" width="2.7" height="1.9"/>
					<rect x="60.7" y="52.3" class="st63" width="2.7" height="1.9"/>
					<rect x="60.7" y="50.4" class="st63" width="2.7" height="1.9"/>
					<rect x="60.7" y="48.4" class="st63" width="2.7" height="1.9"/>
					<rect x="60.7" y="46.5" class="st63" width="2.7" height="1.9"/>
					<rect x="60.7" y="44.5" class="st63" width="2.7" height="1.9"/>
					<rect x="60.7" y="42.6" class="st63" width="2.7" height="1.9"/>
					<rect x="60.7" y="40.6" class="st63" width="2.7" height="1.9"/>
					<rect x="60.7" y="38.7" class="st63" width="2.7" height="1.9"/>
					<rect x="58" y="54.3" class="st63" width="2.7" height="1.9"/>
					<rect x="58" y="52.3" class="st63" width="2.7" height="1.9"/>
					<rect x="58" y="50.4" class="st63" width="2.7" height="1.9"/>
					<rect x="58" y="48.4" class="st63" width="2.7" height="1.9"/>
					<rect x="58" y="46.5" class="st63" width="2.7" height="1.9"/>
					<rect x="58" y="44.5" class="st63" width="2.7" height="1.9"/>
					<rect x="58" y="42.6" class="st63" width="2.7" height="1.9"/>
					<rect x="58" y="40.6" class="st63" width="2.7" height="1.9"/>
					<rect x="58" y="38.7" class="st63" width="2.7" height="1.9"/>
					<rect x="55.3" y="54.3" class="st63" width="2.7" height="1.9"/>
					<rect x="55.3" y="52.3" class="st63" width="2.7" height="1.9"/>
					<rect x="55.3" y="50.4" class="st63" width="2.7" height="1.9"/>
					<rect x="55.3" y="48.4" class="st63" width="2.7" height="1.9"/>
					<rect x="55.3" y="46.5" class="st63" width="2.7" height="1.9"/>
					<rect x="55.3" y="44.5" class="st63" width="2.7" height="1.9"/>
					<rect x="55.3" y="42.6" class="st63" width="2.7" height="1.9"/>
					<rect x="55.3" y="40.6" class="st63" width="2.7" height="1.9"/>
					<rect x="55.3" y="38.7" class="st63" width="2.7" height="1.9"/>
					<rect x="55.3" y="36.8" class="st63" width="2.7" height="1.9"/>
					<rect x="52.6" y="54.3" class="st63" width="2.7" height="1.9"/>
					<rect x="52.6" y="52.3" class="st63" width="2.7" height="1.9"/>
					<rect x="52.6" y="50.4" class="st63" width="2.7" height="1.9"/>
					<rect x="52.6" y="48.4" class="st63" width="2.7" height="1.9"/>
					<rect x="52.6" y="46.5" class="st63" width="2.7" height="1.9"/>
					<rect x="52.6" y="44.5" class="st63" width="2.7" height="1.9"/>
					<rect x="52.6" y="42.6" class="st63" width="2.7" height="1.9"/>
					<rect x="52.6" y="40.6" class="st63" width="2.7" height="1.9"/>
					<rect x="52.6" y="38.7" class="st63" width="2.7" height="1.9"/>
					<rect x="52.6" y="36.8" class="st63" width="2.7" height="1.9"/>
					<rect x="49.9" y="54.3" class="st63" width="2.7" height="1.9"/>
					<rect x="49.9" y="52.3" class="st63" width="2.7" height="1.9"/>
					<rect x="49.9" y="50.4" class="st63" width="2.7" height="1.9"/>
					<rect x="49.9" y="48.4" class="st63" width="2.7" height="1.9"/>
					<rect x="49.9" y="46.5" class="st63" width="2.7" height="1.9"/>
					<rect x="49.9" y="44.5" class="st63" width="2.7" height="1.9"/>
					<rect x="49.9" y="42.6" class="st63" width="2.7" height="1.9"/>
					<rect x="49.9" y="40.6" class="st63" width="2.7" height="1.9"/>
					<rect x="49.9" y="38.7" class="st63" width="2.7" height="1.9"/>
					<rect x="49.9" y="36.8" class="st63" width="2.7" height="1.9"/>
					<rect x="47.1" y="54.3" class="st63" width="2.7" height="1.9"/>
					<rect x="47.1" y="52.3" class="st63" width="2.7" height="1.9"/>
					<rect x="47.1" y="50.4" class="st63" width="2.7" height="1.9"/>
					<rect x="47.1" y="48.4" class="st63" width="2.7" height="1.9"/>
					<rect x="47.1" y="46.5" class="st63" width="2.7" height="1.9"/>
					<rect x="47.1" y="44.5" class="st63" width="2.7" height="1.9"/>
					<rect x="47.1" y="42.6" class="st63" width="2.7" height="1.9"/>
					<rect x="47.1" y="40.6" class="st63" width="2.7" height="1.9"/>
					<rect x="47.1" y="38.7" class="st63" width="2.7" height="1.9"/>
					<rect x="47.1" y="36.8" class="st63" width="2.7" height="1.9"/>
					<rect x="44.4" y="54.3" class="st63" width="2.7" height="1.9"/>
					<rect x="44.4" y="52.3" class="st63" width="2.7" height="1.9"/>
					<rect x="44.4" y="50.4" class="st63" width="2.7" height="1.9"/>
					<rect x="44.4" y="48.4" class="st63" width="2.7" height="1.9"/>
					<rect x="44.4" y="46.5" class="st63" width="2.7" height="1.9"/>
					<rect x="44.4" y="44.5" class="st63" width="2.7" height="1.9"/>
					<rect x="44.4" y="42.6" class="st63" width="2.7" height="1.9"/>
					<rect x="44.4" y="40.6" class="st63" width="2.7" height="1.9"/>
					<rect x="44.4" y="38.7" class="st63" width="2.7" height="1.9"/>
					<rect x="44.4" y="36.8" class="st63" width="2.7" height="1.9"/>
					<rect x="41.7" y="54.3" class="st63" width="2.7" height="1.9"/>
					<rect x="41.7" y="52.3" class="st63" width="2.7" height="1.9"/>
					<rect x="41.7" y="50.4" class="st63" width="2.7" height="1.9"/>
					<rect x="41.7" y="48.4" class="st63" width="2.7" height="1.9"/>
					<rect x="41.7" y="46.5" class="st63" width="2.7" height="1.9"/>
					<rect x="41.7" y="44.5" class="st63" width="2.7" height="1.9"/>
					<rect x="41.7" y="42.6" class="st63" width="2.7" height="1.9"/>
					<rect x="41.7" y="40.6" class="st63" width="2.7" height="1.9"/>
					<rect x="41.7" y="38.7" class="st63" width="2.7" height="1.9"/>
					<rect x="41.7" y="36.8" class="st63" width="2.7" height="1.9"/>
					<rect x="39" y="54.3" class="st63" width="2.7" height="1.9"/>
					<rect x="39" y="52.3" class="st63" width="2.7" height="1.9"/>
					<rect x="39" y="50.4" class="st63" width="2.7" height="1.9"/>
					<rect x="39" y="48.4" class="st63" width="2.7" height="1.9"/>
					<rect x="39" y="46.5" class="st63" width="2.7" height="1.9"/>
					<rect x="39" y="44.5" class="st63" width="2.7" height="1.9"/>
					<rect x="39" y="42.6" class="st63" width="2.7" height="1.9"/>
					<rect x="39" y="40.6" class="st63" width="2.7" height="1.9"/>
					<rect x="39" y="38.7" class="st63" width="2.7" height="1.9"/>
					<rect x="39" y="36.8" class="st63" width="2.7" height="1.9"/>
					<rect x="36.3" y="56.2" class="st63" width="2.7" height="1.9"/>
					<rect x="36.3" y="54.3" class="st63" width="2.7" height="1.9"/>
					<rect x="36.3" y="52.3" class="st63" width="2.7" height="1.9"/>
					<rect x="36.3" y="50.4" class="st63" width="2.7" height="1.9"/>
					<rect x="36.3" y="48.4" class="st63" width="2.7" height="1.9"/>
					<rect x="36.3" y="46.5" class="st63" width="2.7" height="1.9"/>
					<rect x="36.3" y="44.5" class="st63" width="2.7" height="1.9"/>
					<rect x="36.3" y="40.6" class="st63" width="2.7" height="1.9"/>
					<rect x="36.3" y="38.7" class="st63" width="2.7" height="1.9"/>
					<rect x="33.6" y="56.2" class="st63" width="2.7" height="1.9"/>
					<rect x="33.6" y="54.3" class="st63" width="2.7" height="1.9"/>
					<rect x="33.6" y="52.3" class="st63" width="2.7" height="1.9"/>
					<rect x="33.6" y="50.4" class="st63" width="2.7" height="1.9"/>
					<rect x="33.6" y="48.4" class="st63" width="2.7" height="1.9"/>
					<rect x="33.6" y="46.5" class="st63" width="2.7" height="1.9"/>
					<rect x="33.6" y="44.5" class="st63" width="2.7" height="1.9"/>
					<rect x="33.6" y="42.6" class="st63" width="2.7" height="1.9"/>
					<rect x="33.6" y="40.6" class="st63" width="2.7" height="1.9"/>
					<rect x="33.6" y="38.7" class="st63" width="2.7" height="1.9"/>
					<rect x="30.9" y="56.2" class="st63" width="2.7" height="1.9"/>
					<rect x="30.9" y="54.3" class="st63" width="2.7" height="1.9"/>
					<rect x="30.9" y="52.3" class="st63" width="2.7" height="1.9"/>
					<rect x="30.9" y="50.4" class="st63" width="2.7" height="1.9"/>
					<rect x="30.9" y="48.4" class="st63" width="2.7" height="1.9"/>
					<rect x="30.9" y="46.5" class="st63" width="2.7" height="1.9"/>
					<rect x="30.9" y="44.5" class="st63" width="2.7" height="1.9"/>
					<rect x="30.9" y="42.6" class="st63" width="2.7" height="1.9"/>
					<rect x="30.9" y="40.6" class="st63" width="2.7" height="1.9"/>
				</g>
			</g>
			<g>
				<polygon class="st64" points="36.3,36.8 33.6,36.8 33.6,38.7 36.3,38.7 39,38.7 39,36.8 				"/>
				<polygon class="st64" points="30.9,58.1 28.2,58.1 28.2,60.1 30.9,60.1 33.6,60.1 36.3,60.1 36.3,58.1 33.6,58.1 				"/>
				<polygon class="st64" points="28.2,38.7 28.2,40.6 25.5,40.6 25.5,42.6 25.5,44.5 25.5,46.5 25.5,48.4 25.5,50.4 25.5,52.3 
					25.5,54.3 25.5,56.2 28.2,56.2 30.9,56.2 30.9,54.3 30.9,52.3 30.9,50.4 30.9,48.4 30.9,46.5 30.9,44.5 30.9,42.6 30.9,40.6 
					33.6,40.6 33.6,38.7 30.9,38.7 				"/>
			</g>
			<g>
				<polygon class="st6" points="82.4,56.2 79.7,56.2 77,56.2 74.2,56.2 71.5,56.2 71.5,54.3 71.5,52.3 71.5,50.4 71.5,48.4 
					71.5,46.5 71.5,44.5 71.5,42.6 71.5,40.6 68.8,40.6 68.8,42.6 68.8,44.5 68.8,46.5 68.8,48.4 68.8,50.4 68.8,52.3 68.8,54.3 
					68.8,56.2 66.1,56.2 63.4,56.2 60.7,56.2 58,56.2 55.3,56.2 52.6,56.2 49.9,56.2 47.1,56.2 44.4,56.2 41.7,56.2 39,56.2 
					39,58.1 41.7,58.1 44.4,58.1 47.1,58.1 49.9,58.1 52.6,58.1 55.3,58.1 58,58.1 60.7,58.1 63.4,58.1 66.1,58.1 68.8,58.1 
					71.5,58.1 74.2,58.1 77,58.1 79.7,58.1 82.4,58.1 85.1,58.1 85.1,56.2 				"/>
				<polygon class="st6" points="79.7,60.1 77,60.1 74.2,60.1 71.5,60.1 68.8,60.1 66.1,60.1 63.4,60.1 60.7,60.1 58,60.1 
					55.3,60.1 52.6,60.1 49.9,60.1 47.1,60.1 44.4,60.1 41.7,60.1 39,60.1 39,62 41.7,62 44.4,62 47.1,62 49.9,62 52.6,62 55.3,62 
					58,62 60.7,62 63.4,62 66.1,62 68.8,62 71.5,62 74.2,62 77,62 79.7,62 82.4,62 85.1,62 85.1,60.1 82.4,60.1 				"/>
				<polygon class="st6" points="66.1,38.7 66.1,36.8 63.4,36.8 60.7,36.8 60.7,34.8 58,34.8 55.3,34.8 55.3,32.9 52.6,32.9 
					49.9,32.9 47.1,32.9 44.4,32.9 41.7,32.9 39,32.9 36.3,32.9 36.3,34.8 33.6,34.8 30.9,34.8 30.9,36.8 28.2,36.8 25.5,36.8 
					25.5,38.7 25.5,40.6 28.2,40.6 28.2,38.7 30.9,38.7 33.6,38.7 33.6,36.8 36.3,36.8 39,36.8 41.7,36.8 44.4,36.8 47.1,36.8 
					49.9,36.8 52.6,36.8 55.3,36.8 58,36.8 58,38.7 60.7,38.7 63.4,38.7 63.4,40.6 66.1,40.6 68.8,40.6 68.8,38.7 				"/>
				<polygon class="st6" points="22.7,42.6 22.7,44.5 22.7,46.5 22.7,48.4 22.7,50.4 22.7,52.3 22.7,54.3 22.7,56.2 22.7,58.1 
					22.7,60.1 25.5,60.1 28.2,60.1 28.2,58.1 30.9,58.1 30.9,56.2 28.2,56.2 25.5,56.2 25.5,54.3 25.5,52.3 25.5,50.4 25.5,48.4 
					25.5,46.5 25.5,44.5 25.5,42.6 25.5,40.6 22.7,40.6 				"/>
			</g>
			<polygon class="st63" points="63.4,38.7 63.4,40.6 68.8,40.6 68.8,46.5 66.1,46.5 66.1,42.6 63.4,42.6 63.4,54.3 66.1,54.3 
				66.1,56.2 39,56.2 39,58.1 30.9,58.1 30.9,40.6 33.6,40.6 33.6,38.7 39,38.7 39,36.8 58,36.8 58,38.7 			"/>
		</g>
		<g>
			<polygon class="st48" points="52.6,42.2 51.7,42.2 51.7,43.1 52.6,43.1 53.5,43.1 53.5,42.2 			"/>
			<polygon class="st48" points="51.7,51.1 51.7,52 52.6,52 53.5,52 53.5,51.1 52.6,51.1 			"/>
			<polygon class="st48" points="51.7,49.3 51.7,50.2 52.6,50.2 53.5,50.2 53.5,49.3 52.6,49.3 			"/>
			<polygon class="st48" points="51.7,47.6 51.7,48.5 52.6,48.5 53.5,48.5 53.5,47.6 52.6,47.6 			"/>
			<polygon class="st48" points="51.7,45.8 51.7,46.7 52.6,46.7 53.5,46.7 53.5,45.8 52.6,45.8 			"/>
			<polygon class="st48" points="51.7,44 51.7,44.9 52.6,44.9 53.5,44.9 53.5,44 52.6,44 			"/>
			<polygon class="st48" points="49,51.1 49,52 49.9,52 50.8,52 50.8,51.1 49.9,51.1 			"/>
			<polygon class="st48" points="49,49.3 49,50.2 49.9,50.2 50.8,50.2 50.8,49.3 49.9,49.3 			"/>
			<polygon class="st48" points="49,47.6 49,48.5 49.9,48.5 50.8,48.5 50.8,47.6 49.9,47.6 			"/>
			<polygon class="st48" points="49,45.8 49,46.7 49.9,46.7 50.8,46.7 50.8,45.8 49.9,45.8 			"/>
			<polygon class="st48" points="46.3,51.1 46.3,52 47.2,52 48.1,52 48.1,51.1 47.2,51.1 			"/>
			<polygon class="st48" points="46.3,49.3 46.3,50.2 47.2,50.2 48.1,50.2 48.1,49.3 47.2,49.3 			"/>
			<polygon class="st48" points="46.3,47.6 46.3,48.5 47.2,48.5 48.1,48.5 48.1,47.6 47.2,47.6 			"/>
			<polygon class="st48" points="46.3,45.8 46.3,46.7 47.2,46.7 48.1,46.7 48.1,45.8 47.2,45.8 			"/>
			<polygon class="st48" points="46.3,44 46.3,44.9 47.2,44.9 48.1,44.9 48.1,44 47.2,44 			"/>
			<polygon class="st48" points="43.6,51.1 43.6,52 44.5,52 45.4,52 45.4,51.1 44.5,51.1 			"/>
			<polygon class="st48" points="43.6,49.3 43.6,50.2 44.5,50.2 45.4,50.2 45.4,49.3 44.5,49.3 			"/>
			<polygon class="st48" points="43.6,47.6 43.6,48.5 44.5,48.5 45.4,48.5 45.4,47.6 44.5,47.6 			"/>
			<polygon class="st48" points="43.6,45.8 43.6,46.7 44.5,46.7 45.4,46.7 45.4,45.8 44.5,45.8 			"/>
			<polygon class="st48" points="43.6,44 43.6,44.9 44.5,44.9 45.4,44.9 45.4,44 44.5,44 			"/>
			<polygon class="st48" points="43.6,42.2 43.6,43.1 44.5,43.1 45.4,43.1 45.4,42.2 44.5,42.2 			"/>
			<polygon class="st48" points="43.6,40.4 43.6,41.3 44.5,41.3 45.4,41.3 45.4,40.4 44.5,40.4 			"/>
			<polygon class="st48" points="40.8,51.1 40.8,52 41.7,52 42.6,52 42.6,51.1 41.7,51.1 			"/>
			<polygon class="st48" points="40.8,49.3 40.8,50.2 41.7,50.2 42.6,50.2 42.6,49.3 41.7,49.3 			"/>
			<polygon class="st48" points="40.8,47.6 40.8,48.5 41.7,48.5 42.6,48.5 42.6,47.6 41.7,47.6 			"/>
		</g>
	</g>
</g>
</svg>
