<?xml version="1.0" encoding="utf-8"?>
<!-- Generator: Adobe Illustrator 25.0.1, SVG Export Plug-In . SVG Version: 6.00 Build 0)  -->
<svg version="1.1" id="Layer_1" xmlns="http://www.w3.org/2000/svg" xmlns:xlink="http://www.w3.org/1999/xlink" x="0px" y="0px"
	 viewBox="0 0 100 100" style="enable-background:new 0 0 100 100;" xml:space="preserve">
<style type="text/css">
	.st0{opacity:0.13;fill:#F1F7FF;}
	.st1{opacity:0.32;fill:#F1F7FF;}
	.st2{opacity:0.58;fill:#F1F7FF;}
	.st3{fill:#FFFFFF;}
	.st4{fill:none;stroke:#FFFFFF;stroke-width:2;stroke-miterlimit:10;}
	.st5{fill:#BDD4EF;}
	.st6{fill:#060606;}
	.st7{fill:#78D23A;}
	.st8{fill:#EFEC3C;}
	.st9{fill:#D5711C;}
	.st10{fill:#C40B18;}
	.st11{fill:#3D52D2;}
	.st12{fill:#632796;}
	.st13{fill:#B50BEB;}
	.st14{fill:url(#SVGID_1_);}
	.st15{fill:url(#SVGID_2_);}
	.st16{fill:url(#SVGID_3_);}
	.st17{fill:url(#SVGID_4_);}
	.st18{fill:url(#SVGID_5_);}
	.st19{fill:#446EB2;}
	.st20{clip-path:url(#SVGID_7_);}
	.st21{fill:#222221;}
	.st22{fill:#F5D835;}
	.st23{clip-path:url(#SVGID_10_);fill:url(#SVGID_11_);}
	.st24{fill:#232222;stroke:#FFFFFF;stroke-width:0.25;stroke-miterlimit:10;}
	.st25{fill-rule:evenodd;clip-rule:evenodd;fill:#D4B5A8;}
	.st26{fill-rule:evenodd;clip-rule:evenodd;fill:#F0D6C8;}
	.st27{fill-rule:evenodd;clip-rule:evenodd;fill:#4E342E;}
	.st28{fill-rule:evenodd;clip-rule:evenodd;fill:#5D4037;}
	.st29{fill-rule:evenodd;clip-rule:evenodd;fill:#8D6E63;}
	.st30{fill-rule:evenodd;clip-rule:evenodd;fill:#BCAAA4;}
	.st31{fill:#C00E1A;}
	.st32{fill:#C94625;}
	.st33{fill:url(#SVGID_12_);}
	.st34{fill:url(#SVGID_13_);}
	.st35{fill:#181814;}
	.st36{fill:#518E45;}
	.st37{fill:#AED581;}
	.st38{fill:#7CB045;}
	.st39{fill:#477E41;}
	.st40{fill:#232322;}
	.st41{fill:#577A39;}
	.st42{fill:#F3F2F3;}
	.st43{fill:#C0101E;}
	.st44{fill:#D05451;}
	.st45{fill:#D37174;}
	.st46{fill:#C62828;}
	.st47{fill:#B71E1E;}
	.st48{fill:#EDE435;}
	.st49{fill:#CC5428;}
	.st50{fill:#E19F3A;}
	.st51{fill:#D5782C;}
	.st52{fill:#487FC2;}
	.st53{fill:#92C7F0;}
	.st54{fill:#599ED9;}
	.st55{fill:#3965AC;}
	.st56{fill:#70C535;}
	.st57{fill:#4B8325;}
	.st58{fill:#5DA22C;}
	.st59{fill:#7DBAE7;}
	.st60{fill:#75ACCE;}
	.st61{fill:#6F589D;}
	.st62{fill:#8C75AF;}
	.st63{fill:#55428F;}
	.st64{fill:#362F82;}
	.st65{fill:#BBBBBB;}
	.st66{fill:#EDEDED;}
	.st67{fill:#F7EA37;stroke:#F9EB3B;stroke-miterlimit:10;}
	.st68{fill:#575959;}
	.st69{fill:#F9EB3B;}
	.st70{fill:#D50000;}
	.st71{fill:#C00C1A;}
	.st72{fill:#74ADD4;}
	.st73{fill:#99BF6B;}
	.st74{fill:#B4B7B7;}
	.st75{fill:#DD5120;}
	.st76{fill:#EEEEEE;}
	.st77{fill:#5B3918;}
	.st78{fill:#7A481E;}
	.st79{fill:#4E2525;}
	.st80{fill:#9E4545;}
	.st81{fill:#595959;}
	.st82{fill:#740E0E;}
	.st83{fill:#D5806E;}
	.st84{fill:#982931;}
	.st85{fill:#444343;}
	.st86{fill:#31588B;}
	.st87{fill:#6F83AD;}
	.st88{fill:#426498;}
	.st89{fill:#EDC82F;}
	.st90{fill:#E8D5A5;}
	.st91{fill:#F8E9A0;}
	.st92{fill:#898D8F;}
	.st93{fill:#D4C6C6;}
	.st94{fill:#AAAAAA;}
	.st95{opacity:0.5;fill:#212121;}
	.st96{fill:#212121;}
	.st97{opacity:0.5;fill:#7CB045;}
	.st98{opacity:0.5;fill:#4377BD;}
	.st99{fill:#4377BD;}
	.st100{fill:url(#SVGID_14_);}
	.st101{fill:url(#SVGID_15_);}
	.st102{fill:url(#SVGID_16_);}
	.st103{fill:url(#SVGID_17_);}
	.st104{fill:url(#SVGID_18_);}
	.st105{fill:#8C0000;}
	.st106{clip-path:url(#SVGID_20_);}
	.st107{clip-path:url(#SVGID_23_);fill:url(#SVGID_24_);}
	.st108{fill:url(#SVGID_25_);}
	.st109{fill:url(#SVGID_26_);}
</style>
<g>
	<path class="st5" d="M77.7,89.7H22.3c-6.6,0-12-5.4-12-12V22.3c0-6.6,5.4-12,12-12h55.4c6.6,0,12,5.4,12,12v55.4
		C89.7,84.3,84.3,89.7,77.7,89.7z"/>
	<g>
		<defs>
			<path id="SVGID_6_" d="M77.7,89.7H22.3c-6.6,0-12-5.4-12-12V22.3c0-6.6,5.4-12,12-12h55.4c6.6,0,12,5.4,12,12v55.4
				C89.7,84.3,84.3,89.7,77.7,89.7z"/>
		</defs>
		<clipPath id="SVGID_1_">
			<use xlink:href="#SVGID_6_"  style="overflow:visible;"/>
		</clipPath>
		<g style="clip-path:url(#SVGID_1_);">
			<rect x="8.3" y="8.5" class="st21" width="83.2" height="83.2"/>
			<path class="st22" d="M49.9,50.1C31,44.7,17.2,30.8,8.3,8.5h6.9C20.3,28.4,31.9,42.3,49.9,50.1z"/>
			<path class="st22" d="M49.9,50.1C33.1,40,23.8,26.1,22.2,8.5h6.9C27.6,24,34.5,37.9,49.9,50.1z"/>
			<path class="st22" d="M49.9,50.1C36.3,36,31.6,22.1,36,8.5H43C35.9,20.4,38.2,34.3,49.9,50.1z"/>
			<path class="st22" d="M49.9,50.1c-9.5-17.2-9.5-31,0-41.6h6.9C45,18,42.7,31.8,49.9,50.1z"/>
			<path class="st22" d="M49.9,50.1C45.1,31,49.8,17.2,63.8,8.5h6.9C54.6,16.7,47.7,30.6,49.9,50.1z"/>
			<path class="st22" d="M49.9,50.1c0.3-19.6,9.6-33.5,27.7-41.6h6.9C64.4,16.8,52.8,30.7,49.9,50.1z"/>
			<path class="st22" d="M49.9,50.1c5.4-18.9,19.3-32.7,41.6-41.6v6.9C71.6,20.5,57.7,32.1,49.9,50.1z"/>
			<path class="st22" d="M49.9,50.1C60,33.3,73.9,24,91.5,22.4v6.9C76,27.8,62.1,34.7,49.9,50.1z"/>
			<path class="st22" d="M49.9,50.1c14.1-13.6,28-18.3,41.6-13.9v6.9C79.6,36.1,65.7,38.4,49.9,50.1z"/>
			<path class="st22" d="M49.9,50.1c17.2-9.5,31-9.5,41.6,0V57C82,45.2,68.2,42.9,49.9,50.1z"/>
			<path class="st22" d="M49.9,50.1C69,45.4,82.8,50,91.5,64v6.9C83.3,54.8,69.4,47.9,49.9,50.1z"/>
			<path class="st22" d="M49.9,50.1c19.6,0.3,33.5,9.6,41.6,27.7v6.9C83.2,64.6,69.3,53,49.9,50.1z"/>
			<path class="st22" d="M49.9,50.1c18.9,5.4,32.7,19.3,41.6,41.6h-6.9C79.5,71.8,67.9,57.9,49.9,50.1z"/>
			<path class="st22" d="M49.9,50.1c16.8,10.1,26.1,24,27.7,41.6h-6.9C72.2,76.2,65.3,62.3,49.9,50.1z"/>
			<path class="st22" d="M49.9,50.1c13.6,14.1,18.3,28,13.9,41.6h-6.9C63.9,79.8,61.6,65.9,49.9,50.1z"/>
			<path class="st22" d="M49.9,50.1c9.5,17.2,9.5,31,0,41.6H43C54.8,82.2,57.1,68.4,49.9,50.1z"/>
			<path class="st22" d="M49.9,50.1C54.6,69.2,50,83,36,91.7h-6.9C45.2,83.5,52.1,69.6,49.9,50.1z"/>
			<path class="st22" d="M49.9,50.1c-0.3,19.6-9.6,33.5-27.7,41.6h-6.9C35.4,83.4,47,69.5,49.9,50.1z"/>
			<path class="st22" d="M49.9,50.1C44.5,69,30.6,82.8,8.3,91.7v-6.9C28.2,79.7,42.1,68.1,49.9,50.1z"/>
			<path class="st22" d="M49.9,50.1c-10.1,16.8-24,26.1-41.6,27.7v-6.9C23.8,72.4,37.7,65.5,49.9,50.1z"/>
			<path class="st22" d="M49.9,50.1C35.8,63.7,21.9,68.4,8.3,64V57C20.2,64.1,34.1,61.8,49.9,50.1z"/>
			<path class="st22" d="M49.9,50.1c-17.2,9.5-31,9.5-41.6,0v-6.9C17.8,55,31.6,57.3,49.9,50.1z"/>
			<path class="st22" d="M49.9,50.1C30.8,54.9,17,50.2,8.3,36.2v-6.9C16.5,45.4,30.4,52.3,49.9,50.1z"/>
			<path class="st22" d="M49.9,50.1c-19.6-0.3-33.5-9.6-41.6-27.7v-6.9C16.6,35.6,30.5,47.2,49.9,50.1z"/>
		</g>
	</g>
</g>
</svg>
