<?xml version="1.0" encoding="utf-8"?>
<!-- Generator: Adobe Illustrator 25.0.1, SVG Export Plug-In . SVG Version: 6.00 Build 0)  -->
<svg version="1.1" id="Layer_1" xmlns="http://www.w3.org/2000/svg" xmlns:xlink="http://www.w3.org/1999/xlink" x="0px" y="0px"
	 viewBox="0 0 100 100" style="enable-background:new 0 0 100 100;" xml:space="preserve">
<style type="text/css">
	.st0{opacity:0.13;fill:#F1F7FF;}
	.st1{opacity:0.32;fill:#F1F7FF;}
	.st2{opacity:0.58;fill:#F1F7FF;}
	.st3{fill:#FFFFFF;}
	.st4{fill:none;stroke:#FFFFFF;stroke-width:2;stroke-miterlimit:10;}
	.st5{fill:#BDD4EF;}
	.st6{fill:#060606;}
	.st7{fill:#78D23A;}
	.st8{fill:#EFEC3C;}
	.st9{fill:#D5711C;}
	.st10{fill:#C40B18;}
	.st11{fill:#3D52D2;}
	.st12{fill:#632796;}
	.st13{fill:#B50BEB;}
	.st14{fill:url(#SVGID_1_);}
	.st15{fill:url(#SVGID_2_);}
	.st16{fill:url(#SVGID_3_);}
	.st17{fill:url(#SVGID_4_);}
	.st18{fill:url(#SVGID_5_);}
	.st19{fill:#446EB2;}
	.st20{clip-path:url(#SVGID_7_);}
	.st21{fill:#222221;}
	.st22{fill:#F5D835;}
	.st23{clip-path:url(#SVGID_10_);fill:url(#SVGID_11_);}
	.st24{fill:#232222;stroke:#FFFFFF;stroke-width:0.25;stroke-miterlimit:10;}
	.st25{fill-rule:evenodd;clip-rule:evenodd;fill:#D4B5A8;}
	.st26{fill-rule:evenodd;clip-rule:evenodd;fill:#F0D6C8;}
	.st27{fill-rule:evenodd;clip-rule:evenodd;fill:#4E342E;}
	.st28{fill-rule:evenodd;clip-rule:evenodd;fill:#5D4037;}
	.st29{fill-rule:evenodd;clip-rule:evenodd;fill:#8D6E63;}
	.st30{fill-rule:evenodd;clip-rule:evenodd;fill:#BCAAA4;}
	.st31{fill:#C00E1A;}
	.st32{fill:#C94625;}
	.st33{fill:url(#SVGID_12_);}
	.st34{fill:url(#SVGID_13_);}
	.st35{fill:#181814;}
	.st36{fill:#518E45;}
	.st37{fill:#AED581;}
	.st38{fill:#7CB045;}
	.st39{fill:#477E41;}
	.st40{fill:#232322;}
	.st41{fill:#577A39;}
	.st42{fill:#F3F2F3;}
	.st43{fill:#C0101E;}
	.st44{fill:#D05451;}
	.st45{fill:#D37174;}
	.st46{fill:#C62828;}
	.st47{fill:#B71E1E;}
	.st48{fill:#EDE435;}
	.st49{fill:#CC5428;}
	.st50{fill:#E19F3A;}
	.st51{fill:#D5782C;}
	.st52{fill:#487FC2;}
	.st53{fill:#92C7F0;}
	.st54{fill:#599ED9;}
	.st55{fill:#3965AC;}
	.st56{fill:#70C535;}
	.st57{fill:#4B8325;}
	.st58{fill:#5DA22C;}
	.st59{fill:#7DBAE7;}
	.st60{fill:#75ACCE;}
	.st61{fill:#6F589D;}
	.st62{fill:#8C75AF;}
	.st63{fill:#55428F;}
	.st64{fill:#362F82;}
	.st65{fill:#BBBBBB;}
	.st66{fill:#EDEDED;}
	.st67{fill:#F7EA37;stroke:#F9EB3B;stroke-miterlimit:10;}
	.st68{fill:#575959;}
	.st69{fill:#F9EB3B;}
	.st70{fill:#D50000;}
	.st71{fill:#C00C1A;}
	.st72{fill:#74ADD4;}
	.st73{fill:#99BF6B;}
	.st74{fill:#B4B7B7;}
	.st75{fill:#DD5120;}
	.st76{fill:#EEEEEE;}
	.st77{fill:#5B3918;}
	.st78{fill:#7A481E;}
	.st79{fill:#4E2525;}
	.st80{fill:#9E4545;}
	.st81{fill:#595959;}
	.st82{fill:#740E0E;}
	.st83{fill:#D5806E;}
	.st84{fill:#982931;}
	.st85{fill:#444343;}
	.st86{fill:#31588B;}
	.st87{fill:#6F83AD;}
	.st88{fill:#426498;}
	.st89{fill:#EDC82F;}
	.st90{fill:#E8D5A5;}
	.st91{fill:#F8E9A0;}
	.st92{fill:#898D8F;}
	.st93{fill:#D4C6C6;}
	.st94{fill:#AAAAAA;}
	.st95{opacity:0.5;fill:#212121;}
	.st96{fill:#212121;}
	.st97{opacity:0.5;fill:#7CB045;}
	.st98{opacity:0.5;fill:#4377BD;}
	.st99{fill:#4377BD;}
	.st100{fill:url(#SVGID_14_);}
	.st101{fill:url(#SVGID_15_);}
	.st102{fill:url(#SVGID_16_);}
	.st103{fill:url(#SVGID_17_);}
	.st104{fill:url(#SVGID_18_);}
	.st105{fill:#8C0000;}
	.st106{clip-path:url(#SVGID_20_);}
	.st107{clip-path:url(#SVGID_23_);fill:url(#SVGID_24_);}
	.st108{fill:url(#SVGID_25_);}
	.st109{fill:url(#SVGID_26_);}
</style>
<g>
	<path class="st5" d="M77.7,89.7H22.3c-6.6,0-12-5.4-12-12V22.3c0-6.6,5.4-12,12-12h55.4c6.6,0,12,5.4,12,12v55.4
		C89.7,84.3,84.3,89.7,77.7,89.7z"/>
	<g>
		<g id="hat_7_">
			<rect x="82.2" y="58.1" width="2.7" height="1.9"/>
			<polygon class="st44" points="66,52.3 66,50.4 66,48.4 63.3,48.4 63.3,50.4 63.3,52.3 63.3,54.3 66,54.3 66,56.2 68.7,56.2 
				68.7,54.3 68.7,52.3 			"/>
			<g>
				<polygon class="st45" points="79.5,58.1 76.8,58.1 74.1,58.1 71.4,58.1 68.7,58.1 66,58.1 63.3,58.1 60.5,58.1 57.8,58.1 
					55.1,58.1 52.4,58.1 49.7,58.1 47,58.1 44.3,58.1 41.6,58.1 38.9,58.1 36.2,58.1 36.2,60.1 38.9,60.1 41.6,60.1 44.3,60.1 
					47,60.1 49.7,60.1 52.4,60.1 55.1,60.1 57.8,60.1 60.5,60.1 63.3,60.1 66,60.1 68.7,60.1 71.4,60.1 74.1,60.1 76.8,60.1 
					79.5,60.1 82.2,60.1 82.2,58.1 				"/>
				<polygon class="st45" points="66,50.4 66,52.3 68.7,52.3 68.7,50.4 68.7,48.4 68.7,46.5 66,46.5 66,44.5 66,42.6 63.3,42.6 
					63.3,44.5 63.3,46.5 63.3,48.4 66,48.4 				"/>
			</g>
			<path class="st46" d="M66,40.6h-2.7v-1.9h-2.7h-2.7v-1.9h-2.7h-2.7h-2.7H47h-2.7h-2.7h-2.7v1.9h-2.7h-2.7v1.9h-2.7v1.9v1.9v1.9
				v1.9v1.9v1.9h2.7h2.7h2.7h2.7h2.7H47h2.7v0H47h-2.7h-2.7h-2.7h-2.7h-2.7h-2.7v1.9v1.9v1.9h2.7h2.7h2.7v-1.9h2.7h2.7H47h2.7h2.7
				h2.7h2.7h2.7h2.7H66v-1.9h-2.7v-1.9v-1.9h-2.7h-2.7h-2.7h-2.7h-2.7v0h2.7h2.7h2.7h2.7h2.7v-1.9v-1.9v-1.9v-1.9H66v1.9v1.9h2.7
				v-1.9v-1.9v-1.9H66z M38.9,42.6h-2.7v0L38.9,42.6L38.9,42.6z"/>
			<g>
				<polygon class="st47" points="36.2,36.8 33.5,36.8 33.5,38.7 36.2,38.7 38.9,38.7 38.9,36.8 				"/>
				<polygon class="st47" points="30.8,58.1 28,58.1 28,60.1 30.8,60.1 33.5,60.1 36.2,60.1 36.2,58.1 33.5,58.1 				"/>
				<polygon class="st47" points="28,38.7 28,40.6 25.3,40.6 25.3,42.6 25.3,44.5 25.3,46.5 25.3,48.4 25.3,50.4 25.3,52.3 
					25.3,54.3 25.3,56.2 28,56.2 30.8,56.2 30.8,54.3 30.8,52.3 30.8,50.4 30.8,48.4 30.8,46.5 30.8,44.5 30.8,42.6 30.8,40.6 
					33.5,40.6 33.5,38.7 30.8,38.7 				"/>
			</g>
			<g>
				<polygon class="st6" points="82.2,56.2 79.5,56.2 76.8,56.2 74.1,56.2 71.4,56.2 71.4,54.3 71.4,52.3 71.4,50.4 71.4,48.4 
					71.4,46.5 71.4,44.5 71.4,42.6 71.4,40.6 68.7,40.6 68.7,42.6 68.7,44.5 68.7,46.5 68.7,48.4 68.7,50.4 68.7,52.3 68.7,54.3 
					68.7,56.2 66,56.2 63.3,56.2 60.5,56.2 57.8,56.2 55.1,56.2 52.4,56.2 49.7,56.2 47,56.2 44.3,56.2 41.6,56.2 38.9,56.2 
					38.9,58.1 41.6,58.1 44.3,58.1 47,58.1 49.7,58.1 52.4,58.1 55.1,58.1 57.8,58.1 60.5,58.1 63.3,58.1 66,58.1 68.7,58.1 
					71.4,58.1 74.1,58.1 76.8,58.1 79.5,58.1 82.2,58.1 84.9,58.1 84.9,56.2 				"/>
				<polygon class="st6" points="79.5,60.1 76.8,60.1 74.1,60.1 71.4,60.1 68.7,60.1 66,60.1 63.3,60.1 60.5,60.1 57.8,60.1 
					55.1,60.1 52.4,60.1 49.7,60.1 47,60.1 44.3,60.1 41.6,60.1 38.9,60.1 38.9,62 41.6,62 44.3,62 47,62 49.7,62 52.4,62 55.1,62 
					57.8,62 60.5,62 63.3,62 66,62 68.7,62 71.4,62 74.1,62 76.8,62 79.5,62 82.2,62 84.9,62 84.9,60.1 82.2,60.1 				"/>
				<polygon class="st6" points="66,38.7 66,36.8 63.3,36.8 60.5,36.8 60.5,34.8 57.8,34.8 55.1,34.8 55.1,32.9 52.4,32.9 
					49.7,32.9 47,32.9 44.3,32.9 41.6,32.9 38.9,32.9 36.2,32.9 36.2,34.8 33.5,34.8 30.8,34.8 30.8,36.8 28,36.8 25.3,36.8 
					25.3,38.7 25.3,40.6 28,40.6 28,38.7 30.8,38.7 33.5,38.7 33.5,36.8 36.2,36.8 38.9,36.8 41.6,36.8 44.3,36.8 47,36.8 
					49.7,36.8 52.4,36.8 55.1,36.8 57.8,36.8 57.8,38.7 60.5,38.7 63.3,38.7 63.3,40.6 66,40.6 68.7,40.6 68.7,38.7 				"/>
				<polygon class="st6" points="22.6,42.6 22.6,44.5 22.6,46.5 22.6,48.4 22.6,50.4 22.6,52.3 22.6,54.3 22.6,56.2 22.6,58.1 
					22.6,60.1 25.3,60.1 28,60.1 28,58.1 30.8,58.1 30.8,56.2 28,56.2 25.3,56.2 25.3,54.3 25.3,52.3 25.3,50.4 25.3,48.4 
					25.3,46.5 25.3,44.5 25.3,42.6 25.3,40.6 22.6,40.6 				"/>
			</g>
		</g>
		<g>
			<polygon class="st59" points="46.9,43.4 45.7,43.4 44.4,43.4 43.2,43.4 42,43.4 42,44.7 43.2,44.7 44.4,44.7 45.7,44.7 
				46.9,44.7 48.1,44.7 48.1,43.4 			"/>
			<rect x="48.1" y="43.4" class="st3" width="1.2" height="1.2"/>
			<rect x="49.4" y="43.4" class="st59" width="1.2" height="1.2"/>
			<rect x="49.4" y="44.7" class="st3" width="1.2" height="1.2"/>
			<polygon class="st59" points="49.4,45.9 48.1,45.9 46.9,45.9 45.7,45.9 44.4,45.9 43.2,45.9 42,45.9 42,47.1 43.2,47.1 
				43.2,48.3 44.4,48.3 44.4,49.6 45.7,49.6 45.7,50.8 46.9,50.8 46.9,49.6 48.1,49.6 48.1,48.3 49.4,48.3 49.4,47.1 50.6,47.1 
				50.6,45.9 			"/>
			<g>
				<polygon class="st60" points="44.4,43.4 45.7,43.4 46.9,43.4 48.1,43.4 49.4,43.4 50.6,43.4 50.6,42.2 49.4,42.2 48.1,42.2 
					46.9,42.2 45.7,42.2 44.4,42.2 43.2,42.2 42,42.2 42,43.4 43.2,43.4 				"/>
				<polygon class="st60" points="43.2,45.9 44.4,45.9 45.7,45.9 46.9,45.9 48.1,45.9 49.4,45.9 49.4,44.7 48.1,44.7 46.9,44.7 
					45.7,44.7 44.4,44.7 43.2,44.7 42,44.7 42,43.4 40.8,43.4 40.8,44.7 39.5,44.7 39.5,45.9 40.8,45.9 40.8,47.1 42,47.1 42,45.9 
									"/>
				<polygon class="st60" points="51.8,44.7 51.8,43.4 50.6,43.4 50.6,44.7 50.6,45.9 50.6,47.1 51.8,47.1 51.8,45.9 53,45.9 
					53,44.7 				"/>
				<rect x="42" y="47.1" class="st60" width="1.2" height="1.2"/>
				<rect x="49.4" y="47.1" class="st60" width="1.2" height="1.2"/>
				<rect x="43.2" y="48.3" class="st60" width="1.2" height="1.2"/>
				<rect x="48.1" y="48.3" class="st60" width="1.2" height="1.2"/>
				<rect x="44.4" y="49.6" class="st60" width="1.2" height="1.2"/>
				<rect x="46.9" y="49.6" class="st60" width="1.2" height="1.2"/>
				<rect x="45.7" y="50.8" class="st60" width="1.2" height="1.2"/>
			</g>
		</g>
	</g>
</g>
</svg>
