<?xml version="1.0" encoding="utf-8"?>
<!-- Generator: Adobe Illustrator 25.0.1, SVG Export Plug-In . SVG Version: 6.00 Build 0)  -->
<svg version="1.1" id="Layer_1" xmlns="http://www.w3.org/2000/svg" xmlns:xlink="http://www.w3.org/1999/xlink" x="0px" y="0px"
	 viewBox="0 0 100 100" style="enable-background:new 0 0 100 100;" xml:space="preserve">
<style type="text/css">
	.st0{opacity:0.13;fill:#F1F7FF;}
	.st1{opacity:0.32;fill:#F1F7FF;}
	.st2{opacity:0.58;fill:#F1F7FF;}
	.st3{fill:#FFFFFF;}
	.st4{fill:none;stroke:#FFFFFF;stroke-width:2;stroke-miterlimit:10;}
	.st5{fill:#BDD4EF;}
	.st6{fill:#060606;}
	.st7{fill:#78D23A;}
	.st8{fill:#EFEC3C;}
	.st9{fill:#D5711C;}
	.st10{fill:#C40B18;}
	.st11{fill:#3D52D2;}
	.st12{fill:#632796;}
	.st13{fill:#B50BEB;}
	.st14{fill:url(#SVGID_1_);}
	.st15{fill:url(#SVGID_2_);}
	.st16{fill:url(#SVGID_3_);}
	.st17{fill:url(#SVGID_4_);}
	.st18{fill:url(#SVGID_5_);}
	.st19{fill:#446EB2;}
	.st20{clip-path:url(#SVGID_7_);}
	.st21{fill:#222221;}
	.st22{fill:#F5D835;}
	.st23{clip-path:url(#SVGID_10_);fill:url(#SVGID_11_);}
	.st24{fill:#232222;stroke:#FFFFFF;stroke-width:0.25;stroke-miterlimit:10;}
	.st25{fill-rule:evenodd;clip-rule:evenodd;fill:#D4B5A8;}
	.st26{fill-rule:evenodd;clip-rule:evenodd;fill:#F0D6C8;}
	.st27{fill-rule:evenodd;clip-rule:evenodd;fill:#4E342E;}
	.st28{fill-rule:evenodd;clip-rule:evenodd;fill:#5D4037;}
	.st29{fill-rule:evenodd;clip-rule:evenodd;fill:#8D6E63;}
	.st30{fill-rule:evenodd;clip-rule:evenodd;fill:#BCAAA4;}
	.st31{fill:#C00E1A;}
	.st32{fill:#C94625;}
	.st33{fill:url(#SVGID_12_);}
	.st34{fill:url(#SVGID_13_);}
	.st35{fill:#181814;}
	.st36{fill:#518E45;}
	.st37{fill:#AED581;}
	.st38{fill:#7CB045;}
	.st39{fill:#477E41;}
	.st40{fill:#232322;}
	.st41{fill:#577A39;}
	.st42{fill:#F3F2F3;}
	.st43{fill:#C0101E;}
	.st44{fill:#D05451;}
	.st45{fill:#D37174;}
	.st46{fill:#C62828;}
	.st47{fill:#B71E1E;}
	.st48{fill:#EDE435;}
	.st49{fill:#CC5428;}
	.st50{fill:#E19F3A;}
	.st51{fill:#D5782C;}
	.st52{fill:#487FC2;}
	.st53{fill:#92C7F0;}
	.st54{fill:#599ED9;}
	.st55{fill:#3965AC;}
	.st56{fill:#70C535;}
	.st57{fill:#4B8325;}
	.st58{fill:#5DA22C;}
	.st59{fill:#7DBAE7;}
	.st60{fill:#75ACCE;}
	.st61{fill:#6F589D;}
	.st62{fill:#8C75AF;}
	.st63{fill:#55428F;}
	.st64{fill:#362F82;}
	.st65{fill:#BBBBBB;}
	.st66{fill:#EDEDED;}
	.st67{fill:#F7EA37;stroke:#F9EB3B;stroke-miterlimit:10;}
	.st68{fill:#575959;}
	.st69{fill:#F9EB3B;}
	.st70{fill:#D50000;}
	.st71{fill:#C00C1A;}
	.st72{fill:#74ADD4;}
	.st73{fill:#99BF6B;}
	.st74{fill:#B4B7B7;}
	.st75{fill:#DD5120;}
	.st76{fill:#EEEEEE;}
	.st77{fill:#5B3918;}
	.st78{fill:#7A481E;}
	.st79{fill:#4E2525;}
	.st80{fill:#9E4545;}
	.st81{fill:#595959;}
	.st82{fill:#740E0E;}
	.st83{fill:#D5806E;}
	.st84{fill:#982931;}
	.st85{fill:#444343;}
	.st86{fill:#31588B;}
	.st87{fill:#6F83AD;}
	.st88{fill:#426498;}
	.st89{fill:#EDC82F;}
	.st90{fill:#E8D5A5;}
	.st91{fill:#F8E9A0;}
	.st92{fill:#898D8F;}
	.st93{fill:#D4C6C6;}
	.st94{fill:#AAAAAA;}
	.st95{opacity:0.5;fill:#212121;}
	.st96{fill:#212121;}
	.st97{opacity:0.5;fill:#7CB045;}
	.st98{opacity:0.5;fill:#4377BD;}
	.st99{fill:#4377BD;}
	.st100{fill:url(#SVGID_14_);}
	.st101{fill:url(#SVGID_15_);}
	.st102{fill:url(#SVGID_16_);}
	.st103{fill:url(#SVGID_17_);}
	.st104{fill:url(#SVGID_18_);}
	.st105{fill:#8C0000;}
	.st106{clip-path:url(#SVGID_20_);}
	.st107{clip-path:url(#SVGID_23_);fill:url(#SVGID_24_);}
	.st108{fill:url(#SVGID_25_);}
	.st109{fill:url(#SVGID_26_);}
</style>
<g>
	<path class="st5" d="M77.7,89.7H22.3c-6.6,0-12-5.4-12-12V22.3c0-6.6,5.4-12,12-12h55.4c6.6,0,12,5.4,12,12v55.4
		C89.7,84.3,84.3,89.7,77.7,89.7z"/>
	<g>
		<polygon class="st67" points="39.6,58.3 39.6,59.3 39.6,60.2 41.3,60.2 41.3,59.3 41.3,58.3 41.3,57.4 39.6,57.4 		"/>
		<rect x="37.9" y="56.5" class="st67" width="1.7" height="0.9"/>
		<rect x="37.9" y="60.2" class="st67" width="1.7" height="0.9"/>
		<polygon class="st67" points="37.9,58.3 37.9,57.4 36.2,57.4 36.2,58.3 36.2,59.3 36.2,60.2 37.9,60.2 37.9,59.3 		"/>
		<rect x="36.2" y="61.2" class="st67" width="1.7" height="0.9"/>
		<polygon class="st67" points="42.9,52.7 42.9,53.6 42.9,54.6 44.6,54.6 44.6,53.6 44.6,52.7 44.6,51.8 42.9,51.8 		"/>
		<rect x="41.3" y="50.8" class="st67" width="1.7" height="0.9"/>
		<rect x="41.3" y="54.6" class="st67" width="1.7" height="0.9"/>
		<polygon class="st67" points="41.3,52.7 41.3,51.8 39.6,51.8 39.6,52.7 39.6,53.6 39.6,54.6 41.3,54.6 41.3,53.6 		"/>
		<rect x="39.6" y="55.5" class="st67" width="1.7" height="0.9"/>
		<rect x="46.3" y="48" class="st67" width="1.7" height="0.9"/>
		<rect x="44.6" y="48.9" class="st67" width="1.7" height="0.9"/>
		<rect x="42.9" y="48" class="st67" width="1.7" height="0.9"/>
		<rect x="42.9" y="49.9" class="st67" width="1.7" height="0.9"/>
		<polygon class="st67" points="36.2,66.8 37.9,66.8 37.9,65.9 37.9,64.9 36.2,64.9 36.2,65.9 		"/>
		<rect x="34.6" y="62.1" class="st67" width="1.7" height="0.9"/>
		<rect x="34.6" y="64" class="st67" width="1.7" height="0.9"/>
		<rect x="34.6" y="66.8" class="st67" width="1.7" height="0.9"/>
		<rect x="32.9" y="63.1" class="st67" width="1.7" height="0.9"/>
		<path class="st67" d="M32.9,68.7v0.9h-1.7h-1.7v0.9v0.9v0.9v0.9v0.9h1.7h1.7v0.9v0.9v0.9h-1.7v-0.9h-1.7v0.9v0.9h1.7h1.7v0.9h1.7
			v-0.9h1.7h1.7v-0.9v-0.9v-0.9v-0.9v-0.9h-1.7h-1.7v-0.9v-0.9v-0.9h1.7v0.9h1.7v-0.9v-0.9h-1.7h-1.7v-0.9v-0.9h-1.7V68.7z
			 M36.2,74.4v0.9v0.9v0.9h-1.7v-0.9v-0.9v-0.9H36.2z M32.9,71.5v0.9v0.9h-1.7v-0.9v-0.9v-0.9h1.7V71.5z"/>
		<rect x="31.2" y="62.1" class="st67" width="1.7" height="0.9"/>
		<rect x="31.2" y="64" class="st67" width="1.7" height="0.9"/>
		<rect x="31.2" y="66.8" class="st67" width="1.7" height="0.9"/>
		<polygon class="st67" points="29.6,59.3 29.6,60.2 31.2,60.2 31.2,59.3 31.2,58.3 31.2,57.4 29.6,57.4 29.6,58.3 		"/>
		<rect x="29.6" y="61.2" class="st67" width="1.7" height="0.9"/>
		<polygon class="st67" points="31.2,64.9 29.6,64.9 29.6,65.9 29.6,66.8 31.2,66.8 31.2,65.9 		"/>
		<rect x="27.9" y="56.5" class="st67" width="1.7" height="0.9"/>
		<rect x="27.9" y="60.2" class="st67" width="1.7" height="0.9"/>
		<polygon class="st67" points="27.9,58.3 27.9,57.4 26.2,57.4 26.2,58.3 26.2,59.3 26.2,60.2 27.9,60.2 27.9,59.3 		"/>
		<polygon class="st67" points="26.2,53.6 26.2,54.6 27.9,54.6 27.9,53.6 27.9,52.7 27.9,51.8 26.2,51.8 26.2,52.7 		"/>
		<rect x="26.2" y="55.5" class="st67" width="1.7" height="0.9"/>
		<rect x="24.5" y="50.8" class="st67" width="1.7" height="0.9"/>
		<rect x="24.5" y="54.6" class="st67" width="1.7" height="0.9"/>
		<polygon class="st67" points="24.5,52.7 24.5,51.8 22.9,51.8 22.9,52.7 22.9,53.6 22.9,54.6 24.5,54.6 24.5,53.6 		"/>
		<rect x="22.9" y="48" class="st67" width="1.7" height="0.9"/>
		<rect x="22.9" y="49.9" class="st67" width="1.7" height="0.9"/>
		<rect x="21.2" y="48.9" class="st67" width="1.7" height="0.9"/>
		<rect x="19.5" y="48" class="st67" width="1.7" height="0.9"/>
	</g>
	<g>
		<polygon class="st68" points="69.6,28.7 69.6,29.7 69.6,30.6 71.3,30.6 71.3,29.7 71.3,28.7 71.3,27.8 69.6,27.8 		"/>
		<rect x="68" y="26.8" class="st68" width="1.7" height="0.9"/>
		<rect x="68" y="30.6" class="st68" width="1.7" height="0.9"/>
		<polygon class="st68" points="68,28.7 68,27.8 66.3,27.8 66.3,28.7 66.3,29.7 66.3,30.6 68,30.6 68,29.7 		"/>
		<rect x="66.3" y="31.5" class="st68" width="1.7" height="0.9"/>
		<polygon class="st68" points="73,23.1 73,24 73,24.9 74.7,24.9 74.7,24 74.7,23.1 74.7,22.1 73,22.1 		"/>
		<rect x="71.3" y="21.2" class="st68" width="1.7" height="0.9"/>
		<rect x="71.3" y="24.9" class="st68" width="1.7" height="0.9"/>
		<polygon class="st68" points="71.3,23.1 71.3,22.1 69.6,22.1 69.6,23.1 69.6,24 69.6,24.9 71.3,24.9 71.3,24 		"/>
		<rect x="69.6" y="25.9" class="st68" width="1.7" height="0.9"/>
		<rect x="76.3" y="18.3" class="st68" width="1.7" height="0.9"/>
		<rect x="74.7" y="19.3" class="st68" width="1.7" height="0.9"/>
		<rect x="73" y="18.3" class="st68" width="1.7" height="0.9"/>
		<rect x="73" y="20.2" class="st68" width="1.7" height="0.9"/>
		<polygon class="st68" points="66.3,37.2 68,37.2 68,36.2 68,35.3 66.3,35.3 66.3,36.2 		"/>
		<rect x="64.6" y="32.5" class="st68" width="1.7" height="0.9"/>
		<rect x="64.6" y="34.4" class="st68" width="1.7" height="0.9"/>
		<rect x="64.6" y="37.2" class="st68" width="1.7" height="0.9"/>
		<rect x="63" y="33.4" class="st68" width="1.7" height="0.9"/>
		<path class="st68" d="M63,39.1V40h-1.7h-1.7V41v0.9v0.9v0.9v0.9h1.7H63v0.9v0.9v0.9h-1.7v-0.9h-1.7v0.9v0.9h1.7H63v0.9h1.7v-0.9
			h1.7H68v-0.9v-0.9v-0.9v-0.9v-0.9h-1.7h-1.7v-0.9v-0.9V41h1.7v0.9H68V41V40h-1.7h-1.7v-0.9v-0.9H63V39.1z M66.3,44.7v0.9v0.9v0.9
			h-1.7v-0.9v-0.9v-0.9H66.3z M63,41.9v0.9v0.9h-1.7v-0.9v-0.9V41H63V41.9z"/>
		<rect x="61.3" y="32.5" class="st68" width="1.7" height="0.9"/>
		<rect x="61.3" y="34.4" class="st68" width="1.7" height="0.9"/>
		<rect x="61.3" y="37.2" class="st68" width="1.7" height="0.9"/>
		<polygon class="st68" points="59.6,29.7 59.6,30.6 61.3,30.6 61.3,29.7 61.3,28.7 61.3,27.8 59.6,27.8 59.6,28.7 		"/>
		<rect x="59.6" y="31.5" class="st68" width="1.7" height="0.9"/>
		<polygon class="st68" points="61.4,35.6 59.6,35.6 59.6,36.4 59.6,37.2 61.4,37.2 61.4,36.4 		"/>
		<rect x="57.9" y="26.8" class="st68" width="1.7" height="0.9"/>
		<rect x="57.9" y="30.6" class="st68" width="1.7" height="0.9"/>
		<polygon class="st68" points="57.9,28.7 57.9,27.8 56.3,27.8 56.3,28.7 56.3,29.7 56.3,30.6 57.9,30.6 57.9,29.7 		"/>
		<polygon class="st68" points="56.3,24 56.3,24.9 57.9,24.9 57.9,24 57.9,23.1 57.9,22.1 56.3,22.1 56.3,23.1 		"/>
		<rect x="56.3" y="25.9" class="st68" width="1.7" height="0.9"/>
		<rect x="54.6" y="21.2" class="st68" width="1.7" height="0.9"/>
		<rect x="54.6" y="24.9" class="st68" width="1.7" height="0.9"/>
		<polygon class="st68" points="54.6,23.1 54.6,22.1 52.9,22.1 52.9,23.1 52.9,24 52.9,24.9 54.6,24.9 54.6,24 		"/>
		<rect x="52.9" y="18.3" class="st68" width="1.7" height="0.9"/>
		<rect x="52.9" y="20.2" class="st68" width="1.7" height="0.9"/>
		<rect x="51.2" y="19.3" class="st68" width="1.7" height="0.9"/>
		<rect x="49.6" y="18.3" class="st68" width="1.7" height="0.9"/>
	</g>
</g>
</svg>
