<?xml version="1.0" encoding="utf-8"?>
<!-- Generator: Adobe Illustrator 25.0.1, SVG Export Plug-In . SVG Version: 6.00 Build 0)  -->
<svg version="1.1" id="Layer_1" xmlns="http://www.w3.org/2000/svg" xmlns:xlink="http://www.w3.org/1999/xlink" x="0px" y="0px"
	 viewBox="0 0 100 100" style="enable-background:new 0 0 100 100;" xml:space="preserve">
<style type="text/css">
	.st0{opacity:0.13;fill:#F1F7FF;}
	.st1{opacity:0.32;fill:#F1F7FF;}
	.st2{opacity:0.58;fill:#F1F7FF;}
	.st3{fill:#FFFFFF;}
	.st4{fill:none;stroke:#FFFFFF;stroke-width:2;stroke-miterlimit:10;}
	.st5{fill:#BDD4EF;}
	.st6{fill:#060606;}
	.st7{fill:#78D23A;}
	.st8{fill:#EFEC3C;}
	.st9{fill:#D5711C;}
	.st10{fill:#C40B18;}
	.st11{fill:#3D52D2;}
	.st12{fill:#632796;}
	.st13{fill:#B50BEB;}
	.st14{fill:url(#SVGID_1_);}
	.st15{fill:url(#SVGID_2_);}
	.st16{fill:url(#SVGID_3_);}
	.st17{fill:url(#SVGID_4_);}
	.st18{fill:url(#SVGID_5_);}
	.st19{fill:#446EB2;}
	.st20{clip-path:url(#SVGID_7_);}
	.st21{fill:#222221;}
	.st22{fill:#F5D835;}
	.st23{clip-path:url(#SVGID_10_);fill:url(#SVGID_11_);}
	.st24{fill:#232222;stroke:#FFFFFF;stroke-width:0.25;stroke-miterlimit:10;}
	.st25{fill-rule:evenodd;clip-rule:evenodd;fill:#D4B5A8;}
	.st26{fill-rule:evenodd;clip-rule:evenodd;fill:#F0D6C8;}
	.st27{fill-rule:evenodd;clip-rule:evenodd;fill:#4E342E;}
	.st28{fill-rule:evenodd;clip-rule:evenodd;fill:#5D4037;}
	.st29{fill-rule:evenodd;clip-rule:evenodd;fill:#8D6E63;}
	.st30{fill-rule:evenodd;clip-rule:evenodd;fill:#BCAAA4;}
	.st31{fill:#C00E1A;}
	.st32{fill:#C94625;}
	.st33{fill:url(#SVGID_12_);}
	.st34{fill:url(#SVGID_13_);}
	.st35{fill:#181814;}
	.st36{fill:#518E45;}
	.st37{fill:#AED581;}
	.st38{fill:#7CB045;}
	.st39{fill:#477E41;}
	.st40{fill:#232322;}
	.st41{fill:#577A39;}
	.st42{fill:#F3F2F3;}
	.st43{fill:#C0101E;}
	.st44{fill:#D05451;}
	.st45{fill:#D37174;}
	.st46{fill:#C62828;}
	.st47{fill:#B71E1E;}
	.st48{fill:#EDE435;}
	.st49{fill:#CC5428;}
	.st50{fill:#E19F3A;}
	.st51{fill:#D5782C;}
	.st52{fill:#487FC2;}
	.st53{fill:#92C7F0;}
	.st54{fill:#599ED9;}
	.st55{fill:#3965AC;}
	.st56{fill:#70C535;}
	.st57{fill:#4B8325;}
	.st58{fill:#5DA22C;}
	.st59{fill:#7DBAE7;}
	.st60{fill:#75ACCE;}
	.st61{fill:#6F589D;}
	.st62{fill:#8C75AF;}
	.st63{fill:#55428F;}
	.st64{fill:#362F82;}
	.st65{fill:#BBBBBB;}
	.st66{fill:#EDEDED;}
	.st67{fill:#F7EA37;stroke:#F9EB3B;stroke-miterlimit:10;}
	.st68{fill:#575959;}
	.st69{fill:#F9EB3B;}
	.st70{fill:#D50000;}
	.st71{fill:#C00C1A;}
	.st72{fill:#74ADD4;}
	.st73{fill:#99BF6B;}
	.st74{fill:#B4B7B7;}
	.st75{fill:#DD5120;}
	.st76{fill:#EEEEEE;}
	.st77{fill:#5B3918;}
	.st78{fill:#7A481E;}
	.st79{fill:#4E2525;}
	.st80{fill:#9E4545;}
	.st81{fill:#595959;}
	.st82{fill:#740E0E;}
	.st83{fill:#D5806E;}
	.st84{fill:#982931;}
	.st85{fill:#444343;}
	.st86{fill:#31588B;}
	.st87{fill:#6F83AD;}
	.st88{fill:#426498;}
	.st89{fill:#EDC82F;}
	.st90{fill:#E8D5A5;}
	.st91{fill:#F8E9A0;}
	.st92{fill:#898D8F;}
	.st93{fill:#D4C6C6;}
	.st94{fill:#AAAAAA;}
	.st95{opacity:0.5;fill:#212121;}
	.st96{fill:#212121;}
	.st97{opacity:0.5;fill:#7CB045;}
	.st98{opacity:0.5;fill:#4377BD;}
	.st99{fill:#4377BD;}
	.st100{fill:url(#SVGID_14_);}
	.st101{fill:url(#SVGID_15_);}
	.st102{fill:url(#SVGID_16_);}
	.st103{fill:url(#SVGID_17_);}
	.st104{fill:url(#SVGID_18_);}
	.st105{fill:#8C0000;}
	.st106{clip-path:url(#SVGID_20_);}
	.st107{clip-path:url(#SVGID_23_);fill:url(#SVGID_24_);}
	.st108{fill:url(#SVGID_25_);}
	.st109{fill:url(#SVGID_26_);}
</style>
<g>
	<path class="st5" d="M77.7,89.7H22.3c-6.6,0-12-5.4-12-12V22.3c0-6.6,5.4-12,12-12h55.4c6.6,0,12,5.4,12,12v55.4
		C89.7,84.3,84.3,89.7,77.7,89.7z"/>
	<g>
		<rect x="22.8" y="77.5" class="st25" width="2.8" height="2.9"/>
		<rect x="19.9" y="80.4" class="st25" width="2.8" height="2.9"/>
		<rect x="25.6" y="80.4" class="st25" width="2.8" height="2.9"/>
		<polygon class="st26" points="45.6,66.1 45.6,71.9 20,71.9 20,74.8 14.3,74.8 14.3,83.3 19.9,83.3 19.9,80.4 22.8,80.4 22.8,77.7 
			25.6,77.7 25.6,80.4 28.4,80.4 28.4,83.3 48.3,83.3 48.3,74.6 51.2,74.6 51.2,83.3 71.1,83.3 71.1,80.4 73.9,80.4 73.9,77.5 
			76.7,77.5 76.7,80.4 79.6,80.4 79.6,83.3 85.3,83.3 85.3,74.8 79.6,74.8 79.6,71.7 54.1,71.7 54.1,66.1 		"/>
		<rect x="48.3" y="74.6" class="st25" width="2.8" height="8.7"/>
		<polygon class="st25" points="45.5,66.1 42.8,66.1 42.8,69.1 20,69.1 20,71.9 45.6,71.9 45.6,66.1 		"/>
		<rect x="14.3" y="71.9" class="st25" width="5.7" height="2.9"/>
		<rect x="11.5" y="74.8" class="st25" width="2.8" height="8.5"/>
		<rect x="73.9" y="77.5" class="st25" width="2.9" height="2.9"/>
		<rect x="76.8" y="80.4" class="st25" width="2.8" height="2.9"/>
		<rect x="71" y="80.4" class="st25" width="2.8" height="2.9"/>
		<polygon class="st25" points="54.1,66.1 56.8,66.1 56.8,69.1 79.5,69.1 79.5,71.9 54,71.9 54,66.1 		"/>
		
			<rect x="79.5" y="71.9" transform="matrix(-1 4.374755e-11 -4.374755e-11 -1 164.779 146.7539)" class="st25" width="5.7" height="2.9"/>
		
			<rect x="85.2" y="74.8" transform="matrix(-1 4.608923e-11 -4.608923e-11 -1 173.3169 158.0966)" class="st25" width="2.8" height="8.5"/>
	</g>
	<g>
		<rect x="22.8" y="33.2" class="st27" width="2.8" height="2.9"/>
		<rect x="19.9" y="36.1" class="st27" width="2.8" height="2.9"/>
		<rect x="25.6" y="36.1" class="st27" width="2.8" height="2.9"/>
		<polygon class="st28" points="45.6,21.8 45.6,27.6 20,27.6 20,30.5 14.3,30.5 14.3,39 19.9,39 19.9,36.1 22.8,36.1 22.8,33.4 
			25.6,33.4 25.6,36.1 28.4,36.1 28.4,39 48.3,39 48.3,30.3 51.2,30.3 51.2,39 71.1,39 71.1,36.1 73.9,36.1 73.9,33.2 76.8,33.2 
			76.8,36.1 79.6,36.1 79.6,39 85.3,39 85.3,30.5 79.6,30.5 79.6,27.4 54.1,27.4 54.1,21.8 		"/>
		<rect x="48.3" y="30.3" class="st27" width="2.8" height="8.7"/>
		<polygon class="st27" points="45.5,21.8 42.8,21.8 42.8,24.8 20,24.8 20,27.6 45.6,27.6 45.6,21.8 		"/>
		<rect x="14.3" y="27.6" class="st27" width="5.7" height="2.9"/>
		<rect x="11.5" y="30.5" class="st27" width="2.8" height="8.5"/>
		<rect x="73.9" y="33.2" class="st27" width="2.9" height="2.9"/>
		<rect x="76.8" y="36.1" class="st27" width="2.8" height="2.9"/>
		<rect x="71" y="36.1" class="st27" width="2.8" height="2.9"/>
		<polygon class="st27" points="54.1,21.8 56.8,21.8 56.8,24.8 79.6,24.8 79.6,27.6 54,27.6 54,21.8 		"/>
		
			<rect x="79.6" y="27.6" transform="matrix(-1 4.725985e-11 -4.725985e-11 -1 164.8041 58.1744)" class="st27" width="5.7" height="2.9"/>
		
			<rect x="85.3" y="30.5" transform="matrix(-1 4.544930e-11 -4.544930e-11 -1 173.3421 69.5171)" class="st27" width="2.8" height="8.5"/>
	</g>
	<g>
		<rect x="22.5" y="54.5" class="st29" width="2.9" height="2.9"/>
		<rect x="19.7" y="57.3" class="st29" width="2.9" height="2.9"/>
		<rect x="25.4" y="57.3" class="st29" width="2.9" height="2.9"/>
		<polygon class="st30" points="45.4,43 45.4,48.8 19.8,48.8 19.8,51.7 14.1,51.7 14.1,60.2 19.7,60.2 19.7,57.3 22.5,57.3 
			22.5,54.6 25.4,54.6 25.4,57.3 28.2,57.3 28.2,60.2 48.2,60.2 48.2,51.6 51,51.6 51,60.2 71,60.2 71,57.3 73.9,57.3 73.9,54.4 
			76.7,54.4 76.7,57.3 79.6,57.3 79.6,60.2 85.3,60.2 85.3,51.7 79.6,51.7 79.6,48.7 54,48.7 54,43 		"/>
		<rect x="48.2" y="51.6" class="st29" width="2.9" height="8.7"/>
		<polygon class="st29" points="45.4,43 42.6,43 42.6,46 19.8,46 19.8,48.9 45.5,48.9 45.5,43 		"/>
		<rect x="14.1" y="48.9" class="st29" width="5.7" height="2.9"/>
		<rect x="11.2" y="51.8" class="st29" width="2.9" height="8.5"/>
		<rect x="73.9" y="54.4" class="st29" width="2.9" height="2.9"/>
		<rect x="76.8" y="57.3" class="st29" width="2.9" height="2.9"/>
		<rect x="71" y="57.3" class="st29" width="2.9" height="2.9"/>
		<polygon class="st29" points="54,43 56.7,43 56.7,46 79.5,46 79.5,48.9 53.9,48.9 53.9,43 		"/>
		
			<rect x="79.5" y="48.9" transform="matrix(-1 4.550392e-11 -4.550392e-11 -1 164.7643 100.6513)" class="st29" width="5.7" height="2.9"/>
		
			<rect x="85.2" y="51.8" transform="matrix(-1 4.592892e-11 -4.592892e-11 -1 173.3321 112.0337)" class="st29" width="2.9" height="8.5"/>
	</g>
</g>
</svg>
