<?xml version="1.0" encoding="utf-8"?>
<!-- Generator: Adobe Illustrator 25.0.1, SVG Export Plug-In . SVG Version: 6.00 Build 0)  -->
<svg version="1.1" id="Layer_1" xmlns="http://www.w3.org/2000/svg" xmlns:xlink="http://www.w3.org/1999/xlink" x="0px" y="0px"
	 viewBox="0 0 100 100" style="enable-background:new 0 0 100 100;" xml:space="preserve">
<style type="text/css">
	.st0{opacity:0.13;fill:#F1F7FF;}
	.st1{opacity:0.32;fill:#F1F7FF;}
	.st2{opacity:0.58;fill:#F1F7FF;}
	.st3{fill:#FFFFFF;}
	.st4{fill:none;stroke:#FFFFFF;stroke-width:2;stroke-miterlimit:10;}
	.st5{fill:#BDD4EF;}
	.st6{fill:#060606;}
	.st7{fill:#78D23A;}
	.st8{fill:#EFEC3C;}
	.st9{fill:#D5711C;}
	.st10{fill:#C40B18;}
	.st11{fill:#3D52D2;}
	.st12{fill:#632796;}
	.st13{fill:#B50BEB;}
	.st14{fill:url(#SVGID_1_);}
	.st15{fill:url(#SVGID_2_);}
	.st16{fill:url(#SVGID_3_);}
	.st17{fill:url(#SVGID_4_);}
	.st18{fill:url(#SVGID_5_);}
	.st19{fill:#446EB2;}
	.st20{clip-path:url(#SVGID_7_);}
	.st21{fill:#222221;}
	.st22{fill:#F5D835;}
	.st23{clip-path:url(#SVGID_10_);fill:url(#SVGID_11_);}
	.st24{fill:#232222;stroke:#FFFFFF;stroke-width:0.25;stroke-miterlimit:10;}
	.st25{fill-rule:evenodd;clip-rule:evenodd;fill:#D4B5A8;}
	.st26{fill-rule:evenodd;clip-rule:evenodd;fill:#F0D6C8;}
	.st27{fill-rule:evenodd;clip-rule:evenodd;fill:#4E342E;}
	.st28{fill-rule:evenodd;clip-rule:evenodd;fill:#5D4037;}
	.st29{fill-rule:evenodd;clip-rule:evenodd;fill:#8D6E63;}
	.st30{fill-rule:evenodd;clip-rule:evenodd;fill:#BCAAA4;}
	.st31{fill:#C00E1A;}
	.st32{fill:#C94625;}
	.st33{fill:url(#SVGID_12_);}
	.st34{fill:url(#SVGID_13_);}
	.st35{fill:#181814;}
	.st36{fill:#518E45;}
	.st37{fill:#AED581;}
	.st38{fill:#7CB045;}
	.st39{fill:#477E41;}
	.st40{fill:#232322;}
	.st41{fill:#577A39;}
	.st42{fill:#F3F2F3;}
	.st43{fill:#C0101E;}
	.st44{fill:#D05451;}
	.st45{fill:#D37174;}
	.st46{fill:#C62828;}
	.st47{fill:#B71E1E;}
	.st48{fill:#EDE435;}
	.st49{fill:#CC5428;}
	.st50{fill:#E19F3A;}
	.st51{fill:#D5782C;}
	.st52{fill:#487FC2;}
	.st53{fill:#92C7F0;}
	.st54{fill:#599ED9;}
	.st55{fill:#3965AC;}
	.st56{fill:#70C535;}
	.st57{fill:#4B8325;}
	.st58{fill:#5DA22C;}
	.st59{fill:#7DBAE7;}
	.st60{fill:#75ACCE;}
	.st61{fill:#6F589D;}
	.st62{fill:#8C75AF;}
	.st63{fill:#55428F;}
	.st64{fill:#362F82;}
	.st65{fill:#BBBBBB;}
	.st66{fill:#EDEDED;}
	.st67{fill:#F7EA37;stroke:#F9EB3B;stroke-miterlimit:10;}
	.st68{fill:#575959;}
	.st69{fill:#F9EB3B;}
	.st70{fill:#D50000;}
	.st71{fill:#C00C1A;}
	.st72{fill:#74ADD4;}
	.st73{fill:#99BF6B;}
	.st74{fill:#B4B7B7;}
	.st75{fill:#DD5120;}
	.st76{fill:#EEEEEE;}
	.st77{fill:#5B3918;}
	.st78{fill:#7A481E;}
	.st79{fill:#4E2525;}
	.st80{fill:#9E4545;}
	.st81{fill:#595959;}
	.st82{fill:#740E0E;}
	.st83{fill:#D5806E;}
	.st84{fill:#982931;}
	.st85{fill:#444343;}
	.st86{fill:#31588B;}
	.st87{fill:#6F83AD;}
	.st88{fill:#426498;}
	.st89{fill:#EDC82F;}
	.st90{fill:#E8D5A5;}
	.st91{fill:#F8E9A0;}
	.st92{fill:#898D8F;}
	.st93{fill:#D4C6C6;}
	.st94{fill:#AAAAAA;}
	.st95{opacity:0.5;fill:#212121;}
	.st96{fill:#212121;}
	.st97{opacity:0.5;fill:#7CB045;}
	.st98{opacity:0.5;fill:#4377BD;}
	.st99{fill:#4377BD;}
	.st100{fill:url(#SVGID_14_);}
	.st101{fill:url(#SVGID_15_);}
	.st102{fill:url(#SVGID_16_);}
	.st103{fill:url(#SVGID_17_);}
	.st104{fill:url(#SVGID_18_);}
	.st105{fill:#8C0000;}
	.st106{clip-path:url(#SVGID_20_);}
	.st107{clip-path:url(#SVGID_23_);fill:url(#SVGID_24_);}
	.st108{fill:url(#SVGID_25_);}
	.st109{fill:url(#SVGID_26_);}
</style>
<g>
	<path class="st5" d="M77.7,89.7H22.3c-6.6,0-12-5.4-12-12V22.3c0-6.6,5.4-12,12-12h55.4c6.6,0,12,5.4,12,12v55.4
		C89.7,84.3,84.3,89.7,77.7,89.7z"/>
	<g id="marijuana_2_">
		<rect x="71.4" y="49.1" class="st77" width="2" height="2"/>
		<rect x="69.4" y="51.1" class="st77" width="2" height="2"/>
		<rect x="69.4" y="49.1" class="st78" width="2" height="2"/>
		<rect x="67.4" y="53.1" class="st77" width="2" height="2"/>
		<rect x="67.4" y="51.1" class="st78" width="2" height="2"/>
		<rect x="65.4" y="55.1" class="st77" width="2" height="2"/>
		<rect x="65.4" y="53.1" class="st78" width="2" height="2"/>
		<rect x="65.4" y="51.1" class="st77" width="2" height="2"/>
		<rect x="63.4" y="57.2" class="st77" width="2" height="2"/>
		<rect x="63.4" y="53.1" class="st77" width="2" height="2"/>
		<rect x="61.3" y="59.2" class="st77" width="2" height="2"/>
		<rect x="61.3" y="57.2" class="st78" width="2" height="2"/>
		<rect x="61.3" y="55.1" class="st78" width="2" height="2"/>
		<rect x="59.3" y="61.2" class="st77" width="2" height="2"/>
		<rect x="59.3" y="55.1" class="st77" width="2" height="2"/>
		<rect x="57.3" y="63.2" class="st77" width="2" height="2"/>
		<rect x="55.3" y="65.2" class="st77" width="2" height="2"/>
		<rect x="55.3" y="59.2" class="st77" width="2" height="2"/>
		<rect x="53.3" y="67.3" class="st77" width="2" height="2"/>
		<polygon class="st79" points="51.2,67.3 51.2,69.3 51.2,71.3 53.3,71.3 53.3,69.3 53.3,67.3 		"/>
		<rect x="51.2" y="65.2" class="st77" width="2" height="2"/>
		<g>
			<rect x="63.4" y="55.1" class="st78" width="2" height="2"/>
			<polygon class="st78" points="57.3,57.2 57.3,59.2 57.3,61.2 55.3,61.2 55.3,63.2 53.3,63.2 51.2,63.2 51.2,65.2 53.3,65.2 
				53.3,67.2 55.3,67.2 55.3,65.2 57.3,65.2 57.3,63.2 59.3,63.2 59.3,61.2 61.3,61.2 61.3,59.2 61.3,57.2 59.3,57.2 			"/>
		</g>
		<polygon class="st77" points="53.3,59.2 53.3,61.2 51.2,61.2 51.2,63.2 53.3,63.2 55.3,63.2 55.3,61.2 55.3,59.2 		"/>
		<polygon class="st77" points="49.2,63.2 47.2,63.2 47.2,65.7 49.2,65.7 51.2,65.7 51.2,63.2 		"/>
		<polygon class="st79" points="49.2,71.3 47.2,71.3 45.2,71.3 45.2,73.3 47.2,73.3 49.2,73.3 51.2,73.3 51.2,71.3 		"/>
		<polygon class="st80" points="49.2,69.3 51.2,69.3 51.2,67.3 49.2,67.3 47.2,67.3 45.2,67.3 45.2,69.3 45.2,71.3 47.2,71.3 
			47.2,71.3 49.2,71.3 51.2,71.3 51.2,69.3 49.2,69.3 47.2,69.3 47.2,69.3 		"/>
		<polygon class="st79" points="49.2,65.2 47.2,65.2 45.2,65.2 45.2,67.3 47.2,67.3 49.2,67.3 51.2,67.3 51.2,65.2 		"/>
		<rect x="43.2" y="55.1" class="st81" width="2" height="2"/>
		<rect x="43.2" y="53.1" class="st81" width="2" height="2"/>
		<polygon class="st79" points="43.2,67.3 43.2,69.3 43.2,71.3 45.2,71.3 45.2,69.3 45.2,67.3 		"/>
		<g>
			<polygon class="st81" points="45.2,59.2 45.2,57.1 43.2,57.1 41.2,57.1 41.2,59.2 41.2,61.2 41.2,63.2 43.2,63.2 43.2,65.2 
				45.2,65.2 45.2,63.2 45.2,61.2 43.2,61.2 43.2,59.2 			"/>
			<polygon class="st81" points="39.2,63.2 37.1,63.2 37.1,61.2 37.1,61.2 37.1,59.2 35.1,59.2 35.1,57.1 35.1,55.1 33.1,55.1 
				33.1,53.1 33.1,51.1 33.1,49.1 31.1,49.1 31.1,47 29.1,47 29.1,49.1 29.1,51.1 31.1,51.1 31.1,53.1 31.1,55.1 31.1,57.1 
				33.1,57.1 33.1,59.2 33.1,61.2 35.1,61.2 35.1,61.2 35.1,63.2 35.1,63.2 37.1,63.2 37.1,65.2 39.1,65.2 39.1,67.2 41.2,67.2 
				41.2,65.2 39.2,65.2 			"/>
			<polygon class="st81" points="35.1,36.9 35.1,39 35.1,41 37.1,41 37.1,43 37.1,45 37.1,47 39.1,47 39.1,49.1 39.1,51.1 
				39.1,53.1 41.2,53.1 41.2,55.1 43.2,55.1 43.2,53.1 43.2,51.1 41.2,51.1 41.2,49.1 41.2,47 41.2,45 39.1,45 39.1,43 39.1,41 
				39.1,39 37.1,39 37.1,36.9 			"/>
			<rect x="33.1" y="32.9" class="st81" width="2" height="2"/>
		</g>
	</g>
</g>
</svg>
