<?xml version="1.0" encoding="utf-8"?>
<!-- Generator: Adobe Illustrator 25.0.1, SVG Export Plug-In . SVG Version: 6.00 Build 0)  -->
<svg version="1.1" id="Layer_1" xmlns="http://www.w3.org/2000/svg" xmlns:xlink="http://www.w3.org/1999/xlink" x="0px" y="0px"
	 viewBox="0 0 438 99" style="enable-background:new 0 0 438 99;" xml:space="preserve">
<style type="text/css">
	.st0{fill:#F5F5F5;}
	.st1{fill:#78D23A;}
	.st2{fill:#EFEC3C;}
	.st3{fill:#D5711C;}
	.st4{fill:#C40B18;}
	.st5{fill:#3D52D2;}
	.st6{fill:#632796;}
	.st7{fill:#B50BEB;}
	.st8{fill-rule:evenodd;clip-rule:evenodd;fill:#D4B5A8;}
	.st9{fill-rule:evenodd;clip-rule:evenodd;fill:#F0D6C8;}
	.st10{fill:#C00E1A;}
	.st11{fill:#446EB2;}
	.st12{fill:#FFFFFF;}
	.st13{fill:#181814;}
	.st14{fill:#D05451;}
	.st15{fill:#D37174;}
	.st16{fill:#C62828;}
	.st17{fill:#B71E1E;}
	.st18{fill:#060606;}
	.st19{fill:#EDE435;}
	.st20{fill:#222221;}
	.st21{font-family:'Pixelated';}
	.st22{font-size:9.8074px;}
	.st23{clip-path:url(#SVGID_2_);}
	.st24{fill:#CC1126;}
	.st25{fill:#3B6847;}
	.st26{fill:#F0C83E;}
	.st27{fill:#A88A30;}
	.st28{fill:#9A9F68;}
	.st29{fill:#717732;}
	.st30{fill:#3B6848;}
	.st31{fill:#CB202A;}
	.st32{fill:#6DC0DA;}
	.st33{fill:#4172A5;}
	.st34{fill:#F0C63C;}
	.st35{fill:#E9A851;}
	.st36{fill:#933220;}
	.st37{fill:#231F20;}
	.st38{fill:#8ABCBD;}
	.st39{fill:#2F534E;}
	.st40{fill:#4A8287;}
	.st41{fill:url(#SVGID_3_);}
	.st42{fill:url(#SVGID_4_);}
	.st43{fill:#DB2736;}
	.st44{fill:#F6E035;}
	.st45{fill:url(#SVGID_5_);}
	.st46{fill:#A6AA71;}
	.st47{fill:#E9A527;}
	.st48{fill:#78732E;}
	.st49{fill:#C4C5A4;}
	.st50{fill:#1C242F;}
	.st51{fill:#957C2E;}
	.st52{fill:#AD7029;}
	.st53{fill:#806C2A;}
	.st54{fill:#F0C83D;}
	.st55{fill:#6F5B24;}
	.st56{fill:#404118;}
	.st57{fill:#A96D29;}
	.st58{fill:#4D2A15;}
	.st59{fill:#D0A367;}
	.st60{fill:#8D4620;}
	.st61{fill:#202020;}
	.st62{fill:#202220;}
	.st63{fill:#4B4139;}
	.st64{fill:#8F4720;}
	.st65{fill:#7F3F1D;}
	.st66{fill:#AE7229;}
	.st67{fill:#5C3A1D;}
	.st68{fill:#89441F;}
	.st69{fill:#312317;}
	.st70{fill:#1E2121;}
	.st71{fill:#5C3818;}
	.st72{fill:#171717;}
	.st73{fill:#45392D;}
	.st74{fill:#D9AB6C;}
	.st75{fill:#854F20;}
	.st76{fill:#B07129;}
	.st77{fill:#6C3F18;}
	.st78{fill:#E06E1A;}
	.st79{fill:#D3D1C8;}
	.st80{fill:#6C4119;}
	.st81{fill:#BD7F2D;}
	.st82{fill:#F0C63A;}
	.st83{fill:#FAF1D6;}
	.st84{fill:#F8E8AD;}
	.st85{fill:#513625;}
	.st86{fill:#895122;}
	.st87{clip-path:url(#SVGID_7_);fill:#F5F5F5;}
	.st88{clip-path:url(#SVGID_7_);}
	.st89{fill:#C03A4E;}
	.st90{fill:#3A4C93;}
	.st91{fill:#ECEDF5;}
</style>
<g>
	<path class="st0" d="M103.4,57.8V46.9h3.6v10.9H103.4z M107.1,46.9v-3.6h7.3v3.6H107.1z M107.1,61.4v-3.6h7.3v3.6H107.1z"/>
	<path class="st0" d="M118,61.4V43.2h7.3v3.6h-3.6v3.6h3.6v3.6h-3.6v7.3H118z M125.2,50.5v-3.6h3.6v3.6H125.2z M125.2,61.4v-7.3h3.6
		v7.3H125.2z"/>
	<path class="st0" d="M132.5,50.5v-7.3h3.6v7.3H132.5z M136.1,61.4V50.5h3.6v10.9H136.1z M139.7,50.5v-7.3h3.6v7.3H139.7z"/>
	<path class="st0" d="M147,61.4V43.2h7.3v3.6h-3.6v3.6h3.6v3.6h-3.6v7.3H147z M154.3,50.5v-3.6h3.6v3.6H154.3z"/>
	<path class="st0" d="M165.2,61.4V46.9h-3.6v-3.6h10.9v3.6h-3.6v14.5H165.2z"/>
	<path class="st0" d="M176.1,57.8V46.9h3.6v10.9H176.1z M179.7,46.9v-3.6h7.3v3.6H179.7z M179.7,61.4v-3.6h7.3v3.6H179.7z
		 M186.9,57.8V46.9h3.6v10.9H186.9z"/>
	<path class="st0" d="M197.8,61.4V43.2h3.6v3.6h3.6v3.6h-3.6v10.9H197.8z M205.1,54.1v-3.6h3.6v3.6H205.1z M212.4,61.4V50.5h-3.6
		v-3.6h3.6v-3.6h3.6v18.2H212.4z"/>
	<path class="st0" d="M219.6,61.4V43.2h10.9v3.6h-7.3v3.6h3.6v3.6h-3.6v3.6h7.3v3.6H219.6z"/>
	<path class="st0" d="M234.2,50.5v-7.3h3.6v7.3H234.2z M234.2,61.4v-7.3h3.6v7.3H234.2z M237.8,54.1v-3.6h3.6v3.6H237.8z
		 M241.4,50.5v-7.3h3.6v7.3H241.4z M241.4,61.4v-7.3h3.6v7.3H241.4z"/>
	<path class="st0" d="M248.7,61.4v-3.6h3.6V46.9h-3.6v-3.6h10.9v3.6h-3.6v10.9h3.6v3.6H248.7z"/>
	<path class="st0" d="M263.2,57.8V46.9h3.6v10.9H263.2z M266.8,46.9v-3.6h7.3v3.6H266.8z M266.8,61.4v-3.6h7.3v3.6H266.8z"/>
	<path class="st0" d="M277.7,61.4V46.9h3.6v3.6h3.6v-3.6h3.6v14.5H285v-7.3h-3.6v7.3H277.7z M281.4,46.9v-3.6h3.6v3.6H281.4z"/>
	<path class="st0" d="M292.3,61.4V43.2h3.6v3.6h3.6v3.6h-3.6v10.9H292.3z M303.1,61.4v-7.3h-3.6v-3.6h3.6v-7.3h3.6v18.2H303.1z"/>
	<path class="st0" d="M314,61.4V43.2h10.9v3.6h-7.3v3.6h3.6v3.6h-3.6v7.3H314z"/>
	<path class="st0" d="M328.6,61.4v-3.6h3.6V46.9h-3.6v-3.6h10.9v3.6h-3.6v10.9h3.6v3.6H328.6z"/>
	<path class="st0" d="M343.1,57.8V46.9h3.6v10.9H343.1z M346.7,46.9v-3.6h7.3v3.6H346.7z M346.7,61.4v-3.6h3.6v3.6H346.7z
		 M350.4,57.8v-7.3h3.6v7.3H350.4z"/>
	<path class="st0" d="M361.2,61.4V46.9h-3.6v-3.6h10.9v3.6h-3.6v14.5H361.2z"/>
	<path class="st0" d="M372.1,61.4V43.2h3.6v7.3h3.6v-7.3h3.6v18.2h-3.6v-7.3h-3.6v7.3H372.1z"/>
	<path class="st0" d="M386.7,61.4V43.2h10.9v3.6h-7.3v3.6h3.6v3.6h-3.6v3.6h7.3v3.6H386.7z"/>
	<path class="st0" d="M401.2,61.4V43.2h7.3v3.6h-3.6v3.6h3.6v3.6h-3.6v7.3H401.2z M408.5,50.5v-3.6h3.6v3.6H408.5z M408.5,61.4v-7.3
		h3.6v7.3H408.5z"/>
	<path class="st0" d="M415.7,50.5v-3.6h3.6v3.6H415.7z M415.7,61.4v-3.6h7.3v3.6H415.7z M419.3,46.9v-3.6h7.3v3.6H419.3z
		 M419.3,54.1v-3.6h3.6v3.6H419.3z M423,57.8v-3.6h3.6v3.6H423z"/>
</g>
<g>
	<g>
		<rect x="53.8" y="20.7" class="st1" width="3.1" height="48.8"/>
		<rect x="56.8" y="20.7" class="st2" width="6.2" height="48.8"/>
		<polygon class="st3" points="66,23.7 66,20.7 63,20.7 63,69.4 66,69.4 66,66.3 69,66.3 69,23.7 		"/>
		<polygon class="st4" points="72.1,29.7 72.1,26.6 69,26.6 69,63.5 72.1,63.5 72.1,57.2 75.1,57.2 75.1,29.7 		"/>
		
			<rect x="47.7" y="20.7" transform="matrix(-1 4.503852e-11 -4.503852e-11 -1 101.559 90.072)" class="st5" width="6.2" height="48.8"/>
		<polygon class="st6" points="44.6,23.7 44.6,20.7 47.7,20.7 47.7,69.4 44.6,69.4 44.6,66.3 41.6,66.3 41.6,23.7 		"/>
		<polygon class="st7" points="38.6,29.7 38.6,26.6 41.6,26.6 41.6,63.5 38.6,63.5 38.6,57.2 35.5,57.2 35.5,29.7 		"/>
	</g>
	<g>
		<rect x="25.5" y="82.1" class="st8" width="3.1" height="3.2"/>
		<rect x="22.3" y="85.3" class="st8" width="3.1" height="3.2"/>
		<rect x="28.6" y="85.3" class="st8" width="3.1" height="3.2"/>
		<polygon class="st9" points="50.8,69.4 50.8,75.8 22.4,75.8 22.4,79 16.1,79 16.1,88.4 22.3,88.4 22.3,85.3 25.5,85.3 25.5,82.2 
			28.6,82.2 28.6,85.3 31.8,85.3 31.8,88.4 53.8,88.4 53.8,78.9 57,78.9 57,88.4 79,88.4 79,85.3 82.2,85.3 82.2,82.1 85.3,82.1 
			85.3,85.3 88.4,85.3 88.4,88.4 94.7,88.4 94.7,79 88.4,79 88.4,75.7 60.2,75.7 60.2,69.4 		"/>
		<rect x="53.8" y="78.9" class="st8" width="3.1" height="9.6"/>
		<polygon class="st8" points="50.7,69.4 47.6,69.4 47.6,72.8 22.4,72.8 22.4,75.9 50.8,75.9 50.8,69.4 		"/>
		<rect x="16.1" y="75.9" class="st8" width="6.3" height="3.2"/>
		<rect x="13" y="79.1" class="st8" width="3.1" height="9.4"/>
		<rect x="82.2" y="82.1" class="st8" width="3.2" height="3.2"/>
		<rect x="85.4" y="85.3" class="st8" width="3.1" height="3.2"/>
		<rect x="79" y="85.3" class="st8" width="3.1" height="3.2"/>
		<polygon class="st8" points="60.2,69.4 63.2,69.4 63.2,72.8 88.4,72.8 88.4,75.9 60.1,75.9 60.1,69.4 		"/>
		
			<rect x="88.4" y="75.9" transform="matrix(-1 4.580724e-11 -4.580724e-11 -1 183.1287 154.9927)" class="st8" width="6.3" height="3.2"/>
		
			<rect x="94.7" y="79.1" transform="matrix(-1 4.389232e-11 -4.389232e-11 -1 192.5921 167.5649)" class="st8" width="3.1" height="9.4"/>
	</g>
	<g id="eyes_12_">
		<polygon class="st10" points="50.7,45.8 50.7,42.1 50.7,38.3 47.4,38.3 44.2,38.3 41,38.3 41,42.1 41,45.8 44.2,45.8 47.4,45.8 		
			"/>
		<polygon class="st11" points="65.7,38.3 62.5,38.3 59.2,38.3 59.2,42.1 59.2,45.8 62.5,45.8 65.7,45.8 69,45.8 69,42.1 69,38.3 		
			"/>
	</g>
	<g id="LUCHA_LIBRE_17_">
		<path id="stroke_29_" class="st12" d="M68.7,29.8v3v3h-2.3h-0.7v-3h-3v3l0,0h-0.7h-2.4h0h-2.3h-0.7v3v3h-3v-3v-3h-3h-3v-3h-3v3h-3
			v-3v-3h-3v3v3v3v0.7v1.8V42v3v0v2v1h3h3h3v3v3h-3v3v3v3h3h3h3h3h3h3h3v-3v-3v-3h-3v-6.1h2.2h0.8h0h2.2h0.8h2.2h0.8v-3v0v-2.7V42
			v-3v-3v-3v-3H68.7z M53.4,45.1L53.4,45.1L53.4,45.1l3,0v0v2.5v0.5h3v6.1h-3h-3h-3v-3v-3h3L53.4,45.1L53.4,45.1z M44.3,45.1h-3v0
			v-3v-0.5v-1.8V39h3h3h3v2.6h0v3.5h-3H44.3z M62.6,60.3h-3h-3h-3h-3h-3v-3h3h3h3h3h3V60.3z M68.7,42v0.3v2.7v0h-0.8h-2.2h0h-0.8
			h-2.2h-3v-2.3h0V42v-3h0h2.4h0.7h3h0.7h2.3V42z"/>
		<g id="face_28_">
			<polygon id="nose_28_" class="st13" points="50.4,51.2 50.4,51.2 50.4,54.2 53.4,54.2 56.5,54.2 59.5,54.2 59.5,51.2 59.5,51.2 
				59.5,48.1 56.5,48.1 56.5,45.1 53.4,45.1 53.4,48.1 50.4,48.1 			"/>
			<polygon id="mouth_27_" class="st13" points="56.5,57.3 53.4,57.3 50.4,57.3 47.3,57.3 47.3,60.3 50.4,60.3 53.4,60.3 56.5,60.3 
				59.5,60.3 62.6,60.3 62.6,57.3 59.5,57.3 			"/>
		</g>
	</g>
	<g>
		<g id="hat_9_">
			<rect x="84.2" y="33" width="2.2" height="1.6"/>
			<polygon class="st14" points="70.9,28.3 70.9,26.7 70.9,25.1 68.7,25.1 68.7,26.7 68.7,28.3 68.7,29.8 70.9,29.8 70.9,31.4 
				73.1,31.4 73.1,29.8 73.1,28.3 			"/>
			<g>
				<polygon class="st15" points="82,33 79.8,33 77.5,33 75.3,33 73.1,33 70.9,33 68.7,33 66.5,33 64.2,33 62,33 59.8,33 57.6,33 
					55.4,33 53.2,33 50.9,33 48.7,33 46.5,33 46.5,34.6 48.7,34.6 50.9,34.6 53.2,34.6 55.4,34.6 57.6,34.6 59.8,34.6 62,34.6 
					64.2,34.6 66.5,34.6 68.7,34.6 70.9,34.6 73.1,34.6 75.3,34.6 77.5,34.6 79.8,34.6 82,34.6 84.2,34.6 84.2,33 				"/>
				<polygon class="st15" points="70.9,26.7 70.9,28.3 73.1,28.3 73.1,26.7 73.1,25.1 73.1,23.5 70.9,23.5 70.9,21.9 70.9,20.3 
					68.7,20.3 68.7,21.9 68.7,23.5 68.7,25.1 70.9,25.1 				"/>
			</g>
			<path class="st16" d="M70.9,18.7h-2.2v-1.6h-2.2h-2.2v-1.6H62h-2.2h-2.2h-2.2h-2.2h-2.2h-2.2v1.6h-2.2h-2.2v1.6h-2.2v1.6v1.6v1.6
				v1.6v1.6v1.6h2.2h2.2h2.2h2.2h2.2h2.2h2.2v0h-2.2h-2.2h-2.2h-2.2h-2.2h-2.2h-2.2v1.6v1.6V33h2.2h2.2h2.2v-1.6h2.2h2.2h2.2h2.2
				h2.2H62h2.2h2.2h2.2h2.2v-1.6h-2.2v-1.6v-1.6h-2.2h-2.2H62h-2.2h-2.2v0h2.2H62h2.2h2.2h2.2v-1.6v-1.6v-1.6v-1.6h2.2v1.6v1.6h2.2
				v-1.6v-1.6v-1.6H70.9z M48.7,20.3h-2.2v0L48.7,20.3L48.7,20.3z"/>
			<g>
				<polygon class="st17" points="46.5,15.5 44.3,15.5 44.3,17.1 46.5,17.1 48.7,17.1 48.7,15.5 				"/>
				<polygon class="st17" points="42.1,33 39.8,33 39.8,34.6 42.1,34.6 44.3,34.6 46.5,34.6 46.5,33 44.3,33 				"/>
				<polygon class="st17" points="39.8,17.1 39.8,18.7 37.6,18.7 37.6,20.3 37.6,21.9 37.6,23.5 37.6,25.1 37.6,26.7 37.6,28.3 
					37.6,29.8 37.6,31.4 39.8,31.4 42.1,31.4 42.1,29.8 42.1,28.3 42.1,26.7 42.1,25.1 42.1,23.5 42.1,21.9 42.1,20.3 42.1,18.7 
					44.3,18.7 44.3,17.1 42.1,17.1 				"/>
			</g>
			<g>
				<polygon class="st18" points="84.2,31.4 82,31.4 79.8,31.4 77.5,31.4 75.3,31.4 75.3,29.8 75.3,28.3 75.3,26.7 75.3,25.1 
					75.3,23.5 75.3,21.9 75.3,20.3 75.3,18.7 73.1,18.7 73.1,20.3 73.1,21.9 73.1,23.5 73.1,25.1 73.1,26.7 73.1,28.3 73.1,29.8 
					73.1,31.4 70.9,31.4 68.7,31.4 66.5,31.4 64.2,31.4 62,31.4 59.8,31.4 57.6,31.4 55.4,31.4 53.2,31.4 50.9,31.4 48.7,31.4 
					48.7,33 50.9,33 53.2,33 55.4,33 57.6,33 59.8,33 62,33 64.2,33 66.5,33 68.7,33 70.9,33 73.1,33 75.3,33 77.5,33 79.8,33 
					82,33 84.2,33 86.4,33 86.4,31.4 				"/>
				<polygon class="st18" points="82,34.6 79.8,34.6 77.5,34.6 75.3,34.6 73.1,34.6 70.9,34.6 68.7,34.6 66.5,34.6 64.2,34.6 
					62,34.6 59.8,34.6 57.6,34.6 55.4,34.6 53.2,34.6 50.9,34.6 48.7,34.6 48.7,36.2 50.9,36.2 53.2,36.2 55.4,36.2 57.6,36.2 
					59.8,36.2 62,36.2 64.2,36.2 66.5,36.2 68.7,36.2 70.9,36.2 73.1,36.2 75.3,36.2 77.5,36.2 79.8,36.2 82,36.2 84.2,36.2 
					86.4,36.2 86.4,34.6 84.2,34.6 				"/>
				<polygon class="st18" points="70.9,17.1 70.9,15.5 68.7,15.5 66.5,15.5 66.5,13.9 64.2,13.9 62,13.9 62,12.3 59.8,12.3 
					57.6,12.3 55.4,12.3 53.2,12.3 50.9,12.3 48.7,12.3 46.5,12.3 46.5,13.9 44.3,13.9 42.1,13.9 42.1,15.5 39.8,15.5 37.6,15.5 
					37.6,17.1 37.6,18.7 39.8,18.7 39.8,17.1 42.1,17.1 44.3,17.1 44.3,15.5 46.5,15.5 48.7,15.5 50.9,15.5 53.2,15.5 55.4,15.5 
					57.6,15.5 59.8,15.5 62,15.5 64.2,15.5 64.2,17.1 66.5,17.1 68.7,17.1 68.7,18.7 70.9,18.7 73.1,18.7 73.1,17.1 				"/>
				<polygon class="st18" points="35.4,20.3 35.4,21.9 35.4,23.5 35.4,25.1 35.4,26.7 35.4,28.3 35.4,29.8 35.4,31.4 35.4,33 
					35.4,34.6 37.6,34.6 39.8,34.6 39.8,33 42.1,33 42.1,31.4 39.8,31.4 37.6,31.4 37.6,29.8 37.6,28.3 37.6,26.7 37.6,25.1 
					37.6,23.5 37.6,21.9 37.6,20.3 37.6,18.7 35.4,18.7 				"/>
			</g>
		</g>
		<g>
			<rect id="XMLID_299_" x="49.3" y="22" class="st19" width="2.3" height="4.9"/>
			<rect id="XMLID_298_" x="49.3" y="22" class="st19" width="2.3" height="2.2"/>
			<rect id="XMLID_297_" x="54.3" y="22" class="st19" width="2.3" height="4.6"/>
			<rect id="XMLID_296_" x="54.3" y="22" class="st19" width="2.3" height="2.2"/>
			<rect id="XMLID_295_" x="59.1" y="22" class="st19" width="2.3" height="4.6"/>
			<rect id="XMLID_294_" x="59.1" y="22" class="st19" width="2.3" height="2.2"/>
			<rect id="XMLID_293_" x="51.8" y="19.7" class="st19" width="2.3" height="2.2"/>
			<rect id="XMLID_292_" x="56.8" y="19.7" class="st19" width="2.3" height="2.2"/>
		</g>
	</g>
	<g>
		<g id="XMLID_290_">
			<path id="XMLID_291_" class="st12" d="M24.3,11.6h20.9v1.9h1.9v13.3h-1.9v1.9h-3.8v5.7h-1.9v-1.9h-1.9v-1.9h-1.9v-1.9H24.3v-1.9
				h-1.9V13.5h1.9C24.3,13.5,24.3,11.5,24.3,11.6z"/>
			<g>
				<polygon class="st18" points="47.1,13.5 47.1,15.4 47.1,17.3 47.1,19.2 47.1,21.1 47.1,23 47.1,24.9 47.1,26.8 49,26.8 49,24.9 
					49,23 49,21.1 49,19.2 49,17.3 49,15.4 49,13.5 				"/>
				<rect x="45.2" y="26.8" class="st18" width="1.9" height="1.9"/>
				<rect x="45.2" y="11.6" class="st18" width="1.9" height="1.9"/>
				<polygon class="st18" points="41.4,28.7 41.4,30.6 41.4,32.5 41.4,34.4 39.5,34.4 39.5,36.3 41.4,36.3 43.3,36.3 43.3,34.4 
					43.3,32.5 43.3,30.6 45.2,30.6 45.2,28.7 43.3,28.7 				"/>
				<rect x="37.6" y="32.5" class="st18" width="1.9" height="1.9"/>
				<rect x="35.7" y="30.6" class="st18" width="1.9" height="1.9"/>
				<polygon class="st18" points="33.8,28.7 31.9,28.7 30,28.7 28.1,28.7 26.2,28.7 24.3,28.7 24.3,30.6 26.2,30.6 28.1,30.6 
					30,30.6 31.9,30.6 33.8,30.6 35.7,30.6 35.7,28.7 				"/>
				<polygon class="st18" points="28.1,11.6 30,11.6 31.9,11.6 33.8,11.6 35.7,11.6 37.6,11.6 39.5,11.6 41.4,11.6 43.3,11.6 
					45.2,11.6 45.2,9.7 43.3,9.7 41.4,9.7 39.5,9.7 37.6,9.7 35.7,9.7 33.8,9.7 31.9,9.7 30,9.7 28.1,9.7 26.2,9.7 24.3,9.7 
					24.3,11.6 26.2,11.6 				"/>
				<rect x="22.4" y="26.8" class="st18" width="1.9" height="1.9"/>
				<rect x="22.4" y="11.6" class="st18" width="1.9" height="1.9"/>
				<polygon class="st18" points="22.4,23 22.4,21.1 22.4,19.2 22.4,17.3 22.4,15.4 22.4,13.5 20.5,13.5 20.5,15.4 20.5,17.3 
					20.5,19.2 20.5,21.1 20.5,23 20.5,24.9 20.5,26.8 22.4,26.8 22.4,24.9 				"/>
			</g>
		</g>
		<g>
			<text transform="matrix(1 0 0 1 24.907 23.0925)" class="st20 st21 st22">NFTS</text>
		</g>
	</g>
</g>
</svg>
