<?xml version="1.0" encoding="utf-8"?>
<!-- Generator: Adobe Illustrator 25.0.1, SVG Export Plug-In . SVG Version: 6.00 Build 0)  -->
<svg version="1.1" id="Layer_1" xmlns="http://www.w3.org/2000/svg" xmlns:xlink="http://www.w3.org/1999/xlink" x="0px" y="0px"
	 viewBox="0 0 59 50" style="enable-background:new 0 0 59 50;" xml:space="preserve">
<style type="text/css">
	.st0{fill:#F5F5F5;}
	.st1{fill:#78D23A;}
	.st2{fill:#EFEC3C;}
	.st3{fill:#D5711C;}
	.st4{fill:#C40B18;}
	.st5{fill:#3D52D2;}
	.st6{fill:#632796;}
	.st7{fill:#B50BEB;}
	.st8{fill-rule:evenodd;clip-rule:evenodd;fill:#D4B5A8;}
	.st9{fill-rule:evenodd;clip-rule:evenodd;fill:#F0D6C8;}
	.st10{fill:#C00E1A;}
	.st11{fill:#446EB2;}
	.st12{fill:#FFFFFF;}
	.st13{fill:#181814;}
	.st14{fill:#D05451;}
	.st15{fill:#D37174;}
	.st16{fill:#C62828;}
	.st17{fill:#B71E1E;}
	.st18{fill:#060606;}
	.st19{fill:#EDE435;}
	.st20{clip-path:url(#SVGID_2_);}
	.st21{fill:#CC1126;}
	.st22{fill:#3B6847;}
	.st23{fill:#F0C83E;}
	.st24{fill:#A88A30;}
	.st25{fill:#9A9F68;}
	.st26{fill:#717732;}
	.st27{fill:#3B6848;}
	.st28{fill:#CB202A;}
	.st29{fill:#6DC0DA;}
	.st30{fill:#4172A5;}
	.st31{fill:#F0C63C;}
	.st32{fill:#E9A851;}
	.st33{fill:#933220;}
	.st34{fill:#231F20;}
	.st35{fill:#8ABCBD;}
	.st36{fill:#2F534E;}
	.st37{fill:#4A8287;}
	.st38{fill:url(#SVGID_3_);}
	.st39{fill:url(#SVGID_4_);}
	.st40{fill:#DB2736;}
	.st41{fill:#F6E035;}
	.st42{fill:url(#SVGID_5_);}
	.st43{fill:#A6AA71;}
	.st44{fill:#E9A527;}
	.st45{fill:#78732E;}
	.st46{fill:#C4C5A4;}
	.st47{fill:#1C242F;}
	.st48{fill:#957C2E;}
	.st49{fill:#AD7029;}
	.st50{fill:#806C2A;}
	.st51{fill:#F0C83D;}
	.st52{fill:#6F5B24;}
	.st53{fill:#404118;}
	.st54{fill:#A96D29;}
	.st55{fill:#4D2A15;}
	.st56{fill:#D0A367;}
	.st57{fill:#8D4620;}
	.st58{fill:#202020;}
	.st59{fill:#202220;}
	.st60{fill:#4B4139;}
	.st61{fill:#8F4720;}
	.st62{fill:#7F3F1D;}
	.st63{fill:#AE7229;}
	.st64{fill:#5C3A1D;}
	.st65{fill:#89441F;}
	.st66{fill:#312317;}
	.st67{fill:#1E2121;}
	.st68{fill:#5C3818;}
	.st69{fill:#171717;}
	.st70{fill:#45392D;}
	.st71{fill:#D9AB6C;}
	.st72{fill:#854F20;}
	.st73{fill:#B07129;}
	.st74{fill:#6C3F18;}
	.st75{fill:#E06E1A;}
	.st76{fill:#D3D1C8;}
	.st77{fill:#6C4119;}
	.st78{fill:#BD7F2D;}
	.st79{fill:#F0C63A;}
	.st80{fill:#FAF1D6;}
	.st81{fill:#F8E8AD;}
	.st82{fill:#513625;}
	.st83{fill:#895122;}
	.st84{clip-path:url(#SVGID_7_);fill:#F5F5F5;}
	.st85{clip-path:url(#SVGID_7_);}
	.st86{fill:#C03A4E;}
	.st87{fill:#3A4C93;}
	.st88{fill:#ECEDF5;}
</style>
<g>
	<defs>
		
			<ellipse id="SVGID_6_" transform="matrix(0.1618 -0.9868 0.9868 0.1618 5.740367e-02 50.0675)" cx="29.5" cy="25" rx="14.1" ry="14.1"/>
	</defs>
	<clipPath id="SVGID_2_">
		<use xlink:href="#SVGID_6_"  style="overflow:visible;"/>
	</clipPath>
	<rect x="12.5" y="10.6" style="clip-path:url(#SVGID_2_);fill:#F5F5F5;" width="31.9" height="28.8"/>
	<g class="st20">
		<g>
			<rect x="13.8" y="10.6" class="st86" width="30.5" height="3.2"/>
			<rect x="13.8" y="16.2" class="st86" width="30.5" height="3.2"/>
			<rect x="13.8" y="21.8" class="st86" width="30.5" height="3.2"/>
			<rect x="13.8" y="27.5" class="st86" width="30.5" height="3.2"/>
			<rect x="13.8" y="33.1" class="st86" width="30.5" height="3.2"/>
			<rect x="13.8" y="37.9" class="st86" width="30.5" height="1.6"/>
		</g>
		<rect x="12.5" y="10.6" class="st87" width="20.2" height="16.4"/>
		<g>
			<polygon class="st88" points="13.5,12.6 13.8,13.2 14.5,13.3 14,13.7 14.1,14.4 13.5,14.1 13,14.4 13.1,13.7 12.6,13.3 
				13.3,13.2 			"/>
			<polygon class="st88" points="16,12.6 16.2,13.2 16.9,13.3 16.4,13.7 16.5,14.4 16,14.1 15.4,14.4 15.5,13.7 15,13.3 15.7,13.2 
							"/>
			<polygon class="st88" points="18.4,12.6 18.6,13.2 19.3,13.3 18.8,13.7 18.9,14.4 18.4,14.1 17.8,14.4 17.9,13.7 17.4,13.3 
				18.1,13.2 			"/>
			<polygon class="st88" points="20.8,12.6 21.1,13.2 21.7,13.3 21.2,13.7 21.3,14.4 20.8,14.1 20.2,14.4 20.3,13.7 19.9,13.3 
				20.5,13.2 			"/>
			<polygon class="st88" points="23.2,12.6 23.5,13.2 24.1,13.3 23.6,13.7 23.8,14.4 23.2,14.1 22.6,14.4 22.7,13.7 22.3,13.3 
				22.9,13.2 			"/>
			<polygon class="st88" points="25.6,12.6 25.9,13.2 26.5,13.3 26.1,13.7 26.2,14.4 25.6,14.1 25,14.4 25.1,13.7 24.7,13.3 
				25.3,13.2 			"/>
			<polygon class="st88" points="28,12.6 28.3,13.2 28.9,13.3 28.5,13.7 28.6,14.4 28,14.1 27.4,14.4 27.5,13.7 27.1,13.3 
				27.7,13.2 			"/>
			<polygon class="st88" points="30.4,12.6 30.7,13.2 31.3,13.3 30.9,13.7 31,14.4 30.4,14.1 29.8,14.4 30,13.7 29.5,13.3 
				30.1,13.2 			"/>
			<polygon class="st88" points="13.5,15.3 13.8,15.9 14.5,15.9 14,16.4 14.1,17 13.5,16.7 13,17 13.1,16.4 12.6,15.9 13.3,15.9 			
				"/>
			<polygon class="st88" points="16,15.3 16.2,15.9 16.9,15.9 16.4,16.4 16.5,17 16,16.7 15.4,17 15.5,16.4 15,15.9 15.7,15.9 			
				"/>
			<polygon class="st88" points="18.4,15.3 18.6,15.9 19.3,15.9 18.8,16.4 18.9,17 18.4,16.7 17.8,17 17.9,16.4 17.4,15.9 
				18.1,15.9 			"/>
			<polygon class="st88" points="20.8,15.3 21.1,15.9 21.7,15.9 21.2,16.4 21.3,17 20.8,16.7 20.2,17 20.3,16.4 19.9,15.9 
				20.5,15.9 			"/>
			<polygon class="st88" points="23.2,15.3 23.5,15.9 24.1,15.9 23.6,16.4 23.8,17 23.2,16.7 22.6,17 22.7,16.4 22.3,15.9 
				22.9,15.9 			"/>
			<polygon class="st88" points="25.6,15.3 25.9,15.9 26.5,15.9 26.1,16.4 26.2,17 25.6,16.7 25,17 25.1,16.4 24.7,15.9 25.3,15.9 
							"/>
			<polygon class="st88" points="28,15.3 28.3,15.9 28.9,15.9 28.5,16.4 28.6,17 28,16.7 27.4,17 27.5,16.4 27.1,15.9 27.7,15.9 			
				"/>
			<polygon class="st88" points="30.4,15.3 30.7,15.9 31.3,15.9 30.9,16.4 31,17 30.4,16.7 29.8,17 30,16.4 29.5,15.9 30.1,15.9 			
				"/>
			<polygon class="st88" points="13.5,17.9 13.8,18.5 14.5,18.6 14,19 14.1,19.7 13.5,19.4 13,19.7 13.1,19 12.6,18.6 13.3,18.5 			
				"/>
			<polygon class="st88" points="16,17.9 16.2,18.5 16.9,18.6 16.4,19 16.5,19.7 16,19.4 15.4,19.7 15.5,19 15,18.6 15.7,18.5 			
				"/>
			<polygon class="st88" points="18.4,17.9 18.6,18.5 19.3,18.6 18.8,19 18.9,19.7 18.4,19.4 17.8,19.7 17.9,19 17.4,18.6 
				18.1,18.5 			"/>
			<polygon class="st88" points="20.8,17.9 21.1,18.5 21.7,18.6 21.2,19 21.3,19.7 20.8,19.4 20.2,19.7 20.3,19 19.9,18.6 
				20.5,18.5 			"/>
			<polygon class="st88" points="23.2,17.9 23.5,18.5 24.1,18.6 23.6,19 23.8,19.7 23.2,19.4 22.6,19.7 22.7,19 22.3,18.6 
				22.9,18.5 			"/>
			<polygon class="st88" points="25.6,17.9 25.9,18.5 26.5,18.6 26.1,19 26.2,19.7 25.6,19.4 25,19.7 25.1,19 24.7,18.6 25.3,18.5 
							"/>
			<polygon class="st88" points="28,17.9 28.3,18.5 28.9,18.6 28.5,19 28.6,19.7 28,19.4 27.4,19.7 27.5,19 27.1,18.6 27.7,18.5 			
				"/>
			<polygon class="st88" points="30.4,17.9 30.7,18.5 31.3,18.6 30.9,19 31,19.7 30.4,19.4 29.8,19.7 30,19 29.5,18.6 30.1,18.5 			
				"/>
			<polygon class="st88" points="13.5,20.6 13.8,21.2 14.5,21.2 14,21.7 14.1,22.3 13.5,22 13,22.3 13.1,21.7 12.6,21.2 13.3,21.2 
							"/>
			<polygon class="st88" points="16,20.6 16.2,21.2 16.9,21.2 16.4,21.7 16.5,22.3 16,22 15.4,22.3 15.5,21.7 15,21.2 15.7,21.2 			
				"/>
			<polygon class="st88" points="18.4,20.6 18.6,21.2 19.3,21.2 18.8,21.7 18.9,22.3 18.4,22 17.8,22.3 17.9,21.7 17.4,21.2 
				18.1,21.2 			"/>
			<polygon class="st88" points="20.8,20.6 21.1,21.2 21.7,21.2 21.2,21.7 21.3,22.3 20.8,22 20.2,22.3 20.3,21.7 19.9,21.2 
				20.5,21.2 			"/>
			<polygon class="st88" points="23.2,20.6 23.5,21.2 24.1,21.2 23.6,21.7 23.8,22.3 23.2,22 22.6,22.3 22.7,21.7 22.3,21.2 
				22.9,21.2 			"/>
			<polygon class="st88" points="25.6,20.6 25.9,21.2 26.5,21.2 26.1,21.7 26.2,22.3 25.6,22 25,22.3 25.1,21.7 24.7,21.2 
				25.3,21.2 			"/>
			<polygon class="st88" points="28,20.6 28.3,21.2 28.9,21.2 28.5,21.7 28.6,22.3 28,22 27.4,22.3 27.5,21.7 27.1,21.2 27.7,21.2 
							"/>
			<polygon class="st88" points="30.4,20.6 30.7,21.2 31.3,21.2 30.9,21.7 31,22.3 30.4,22 29.8,22.3 30,21.7 29.5,21.2 30.1,21.2 
							"/>
			<polygon class="st88" points="13.5,23.2 13.8,23.8 14.5,23.9 14,24.3 14.1,25 13.5,24.7 13,25 13.1,24.3 12.6,23.9 13.3,23.8 			
				"/>
			<polygon class="st88" points="16,23.2 16.2,23.8 16.9,23.9 16.4,24.3 16.5,25 16,24.7 15.4,25 15.5,24.3 15,23.9 15.7,23.8 			
				"/>
			<polygon class="st88" points="18.4,23.2 18.6,23.8 19.3,23.9 18.8,24.3 18.9,25 18.4,24.7 17.8,25 17.9,24.3 17.4,23.9 
				18.1,23.8 			"/>
			<polygon class="st88" points="20.8,23.2 21.1,23.8 21.7,23.9 21.2,24.3 21.3,25 20.8,24.7 20.2,25 20.3,24.3 19.9,23.9 
				20.5,23.8 			"/>
			<polygon class="st88" points="23.2,23.2 23.5,23.8 24.1,23.9 23.6,24.3 23.8,25 23.2,24.7 22.6,25 22.7,24.3 22.3,23.9 
				22.9,23.8 			"/>
			<polygon class="st88" points="25.6,23.2 25.9,23.8 26.5,23.9 26.1,24.3 26.2,25 25.6,24.7 25,25 25.1,24.3 24.7,23.9 25.3,23.8 
							"/>
			<polygon class="st88" points="28,23.2 28.3,23.8 28.9,23.9 28.5,24.3 28.6,25 28,24.7 27.4,25 27.5,24.3 27.1,23.9 27.7,23.8 			
				"/>
			<polygon class="st88" points="30.4,23.2 30.7,23.8 31.3,23.9 30.9,24.3 31,25 30.4,24.7 29.8,25 30,24.3 29.5,23.9 30.1,23.8 			
				"/>
		</g>
	</g>
</g>
</svg>
